NotoSerifTamil-ExtraCondensedExtraBold.ufo
<glyph name="exclam" format="2">
  <advance width="334.0714285714285"/>
  <unicode hex="0021"/>
  <outline>
    <contour>
      <point x="142.11904761904762" y="227.76190476190476" type="line"/>
      <point x="191.95238095238093" y="227.76190476190476" type="line"/>
      <point x="250.07142857142858" y="714.0" type="line"/>
      <point x="84.00000000000001" y="714.0" type="line"/>
    </contour>
    <contour>
      <point x="168.30952380952382" y="-7.5476190476190474" type="curve" smooth="yes"/>
      <point x="208.14285714285714" y="-7.5476190476190474"/>
      <point x="242.42857142857147" y="11.095238095238095"/>
      <point x="242.42857142857147" y="70.3809523809524" type="curve" smooth="yes"/>
      <point x="242.42857142857147" y="129.21428571428572"/>
      <point x="208.14285714285714" y="148.3095238095238"/>
      <point x="168.30952380952382" y="148.3095238095238" type="curve" smooth="yes"/>
      <point x="126.47619047619048" y="148.3095238095238"/>
      <point x="94.19047619047619" y="129.21428571428572"/>
      <point x="94.19047619047619" y="70.3809523809524" type="curve" smooth="yes"/>
      <point x="94.19047619047619" y="11.095238095238095"/>
      <point x="126.47619047619048" y="-7.5476190476190474"/>
    </contour>
  </outline>
</glyph>
<glyph name="quotedbl" format="2">
  <advance width="457.95238095238096"/>
  <unicode hex="0022"/>
  <outline>
    <contour>
      <point x="305.90476190476187" y="439.4047619047619" type="line"/>
      <point x="367.4761904761905" y="439.4047619047619" type="line"/>
      <point x="398.6666666666667" y="714.0" type="line"/>
      <point x="250.2380952380952" y="714.0" type="line"/>
    </contour>
    <contour>
      <point x="102.21428571428572" y="439.4047619047619" type="line"/>
      <point x="163.78571428571428" y="439.4047619047619" type="line"/>
      <point x="207.16666666666666" y="714.0" type="line"/>
      <point x="59.285714285714285" y="714.0" type="line"/>
    </contour>
  </outline>
</glyph>
<glyph name="numbersign" format="2">
  <advance width="461.4761904761904"/>
  <unicode hex="0023"/>
  <outline>
    <contour>
      <point x="50.642857142857146" y="0.0" type="line"/>
      <point x="124.66666666666669" y="0.0" type="line"/>
      <point x="163.11904761904765" y="199.8095238095238" type="line"/>
      <point x="237.90476190476195" y="199.8095238095238" type="line"/>
      <point x="201.45238095238093" y="0.0" type="line"/>
      <point x="275.4761904761905" y="0.0" type="line"/>
      <point x="312.3809523809523" y="199.8095238095238" type="line"/>
      <point x="417.38095238095235" y="199.8095238095238" type="line"/>
      <point x="417.38095238095235" y="271.28571428571433" type="line"/>
      <point x="327.0238095238095" y="271.28571428571433" type="line"/>
      <point x="360.3809523809524" y="447.1666666666667" type="line"/>
      <point x="449.38095238095235" y="447.1666666666667" type="line"/>
      <point x="449.38095238095235" y="520.1904761904761" type="line"/>
      <point x="373.4761904761905" y="520.1904761904761" type="line"/>
      <point x="410.4761904761905" y="714.0" type="line"/>
      <point x="336.45238095238096" y="714.0" type="line"/>
      <point x="299.0" y="520.1904761904761" type="line"/>
      <point x="224.2142857142857" y="520.1904761904761" type="line"/>
      <point x="259.6666666666667" y="714.0" type="line"/>
      <point x="184.64285714285714" y="714.0" type="line"/>
      <point x="149.7380952380952" y="520.1904761904761" type="line"/>
      <point x="44.64285714285714" y="520.1904761904761" type="line"/>
      <point x="44.64285714285714" y="447.1666666666667" type="line"/>
      <point x="135.64285714285714" y="447.1666666666667" type="line"/>
      <point x="101.73809523809524" y="271.28571428571433" type="line"/>
      <point x="12.642857142857142" y="271.28571428571433" type="line"/>
      <point x="12.642857142857142" y="199.8095238095238" type="line"/>
      <point x="88.64285714285714" y="199.8095238095238" type="line"/>
    </contour>
    <contour>
      <point x="176.21428571428572" y="271.28571428571433" type="line"/>
      <point x="211.11904761904762" y="447.1666666666667" type="line"/>
      <point x="286.904761904762" y="447.1666666666667" type="line"/>
      <point x="252.99999999999997" y="271.28571428571433" type="line"/>
    </contour>
  </outline>
</glyph>
<glyph name="percent" format="2">
  <advance width="751.047619047619"/>
  <unicode hex="0025"/>
  <outline>
    <contour>
      <point x="200.83333333333331" y="0.0" type="line"/>
      <point x="269.2142857142858" y="0.0" type="line"/>
      <point x="548.2142857142858" y="714.0" type="line"/>
      <point x="479.83333333333337" y="714.0" type="line"/>
    </contour>
    <contour>
      <point x="178.28571428571425" y="280.0" type="curve" smooth="yes"/>
      <point x="283.21428571428567" y="280.0"/>
      <point x="333.85714285714283" y="369.0"/>
      <point x="333.85714285714283" y="503.0" type="curve"/>
      <point x="333.85714285714283" y="637.0"/>
      <point x="283.21428571428567" y="724.0"/>
      <point x="178.83333333333331" y="724.0" type="curve" smooth="yes"/>
      <point x="68.9047619047619" y="724.0"/>
      <point x="23.261904761904763" y="637.0"/>
      <point x="23.261904761904763" y="503.0" type="curve" smooth="yes"/>
      <point x="23.261904761904763" y="369.0"/>
      <point x="68.9047619047619" y="280.0"/>
    </contour>
    <contour>
      <point x="178.83333333333331" y="328.8333333333333" type="curve" smooth="yes"/>
      <point x="139.02380952380952" y="328.8333333333333"/>
      <point x="124.57142857142856" y="391.73809523809524"/>
      <point x="124.57142857142856" y="503.0" type="curve"/>
      <point x="124.57142857142856" y="612.2619047619048"/>
      <point x="139.02380952380952" y="674.1666666666666"/>
      <point x="178.83333333333331" y="674.1666666666666" type="curve" smooth="yes"/>
      <point x="219.0952380952381" y="674.1666666666666"/>
      <point x="231.547619047619" y="612.2619047619048"/>
      <point x="231.547619047619" y="503.0" type="curve" smooth="yes"/>
      <point x="231.547619047619" y="391.73809523809524"/>
      <point x="219.0952380952381" y="328.8333333333333"/>
    </contour>
    <contour>
      <point x="572.7619047619049" y="-10.0" type="curve" smooth="yes"/>
      <point x="677.5952380952382" y="-10.0"/>
      <point x="727.7857142857143" y="79.0"/>
      <point x="727.7857142857143" y="213.0" type="curve" smooth="yes"/>
      <point x="727.7857142857143" y="347.0"/>
      <point x="677.5952380952382" y="434.0"/>
      <point x="573.7619047619049" y="434.0" type="curve" smooth="yes"/>
      <point x="463.83333333333337" y="434.0"/>
      <point x="418.19047619047615" y="347.0"/>
      <point x="418.19047619047615" y="213.0" type="curve" smooth="yes"/>
      <point x="418.19047619047615" y="79.0"/>
      <point x="463.83333333333337" y="-10.0"/>
    </contour>
    <contour>
      <point x="572.7619047619049" y="38.833333333333336" type="curve" smooth="yes"/>
      <point x="533.952380952381" y="38.833333333333336"/>
      <point x="519.5" y="101.73809523809524"/>
      <point x="519.5" y="213.0" type="curve" smooth="yes"/>
      <point x="519.5" y="322.26190476190476"/>
      <point x="533.952380952381" y="384.1666666666667"/>
      <point x="573.7619047619048" y="384.1666666666667" type="curve" smooth="yes"/>
      <point x="613.0238095238095" y="384.1666666666667"/>
      <point x="626.4761904761906" y="322.26190476190476"/>
      <point x="626.4761904761906" y="213.0" type="curve" smooth="yes"/>
      <point x="626.4761904761906" y="101.73809523809524"/>
      <point x="613.0238095238095" y="38.833333333333336"/>
    </contour>
  </outline>
</glyph>
<glyph name="quotesingle" format="2">
  <advance width="267.0"/>
  <unicode hex="0027"/>
  <outline>
    <contour>
      <point x="102.21428571428572" y="439.4047619047619" type="line"/>
      <point x="163.78571428571428" y="439.4047619047619" type="line"/>
      <point x="207.16666666666666" y="714.0" type="line"/>
      <point x="59.285714285714285" y="714.0" type="line"/>
    </contour>
  </outline>
</glyph>
<glyph name="parenleft" format="2">
  <advance width="350.7142857142857"/>
  <unicode hex="0028"/>
  <outline>
    <contour>
      <point x="325.1666666666667" y="-138.83333333333331" type="curve"/>
      <point x="325.1666666666667" y="-74.80952380952381" type="line"/>
      <point x="227.35714285714283" y="6.642857142857143"/>
      <point x="201.6190476190476" y="158.54761904761907"/>
      <point x="201.6190476190476" y="317.54761904761904" type="curve" smooth="yes"/>
      <point x="201.6190476190476" y="476.0"/>
      <point x="227.35714285714283" y="626.3571428571428"/>
      <point x="325.1666666666667" y="709.3571428571429" type="curve"/>
      <point x="325.1666666666667" y="771.8333333333334" type="line"/>
      <point x="125.47619047619047" y="683.3571428571428"/>
      <point x="46.547619047619044" y="532.7857142857143"/>
      <point x="46.547619047619044" y="317.54761904761904" type="curve" smooth="yes"/>
      <point x="46.547619047619044" y="101.76190476190477"/>
      <point x="125.47619047619047" y="-49.357142857142854"/>
    </contour>
  </outline>
</glyph>
<glyph name="parenright" format="2">
  <advance width="350.7142857142857"/>
  <unicode hex="0029"/>
  <outline>
    <contour>
      <point x="25.547619047619047" y="-138.83333333333331" type="line"/>
      <point x="225.6904761904762" y="-49.357142857142854"/>
      <point x="304.1666666666667" y="101.76190476190477"/>
      <point x="304.1666666666667" y="317.54761904761904" type="curve" smooth="yes"/>
      <point x="304.1666666666667" y="532.7857142857143"/>
      <point x="225.6904761904762" y="683.3571428571428"/>
      <point x="25.547619047619047" y="771.8333333333334" type="curve"/>
      <point x="25.547619047619047" y="709.3571428571429" type="line"/>
      <point x="122.80952380952381" y="626.3571428571428"/>
      <point x="149.09523809523807" y="476.0"/>
      <point x="149.09523809523807" y="317.54761904761904" type="curve" smooth="yes"/>
      <point x="149.09523809523807" y="158.54761904761907"/>
      <point x="122.80952380952381" y="6.642857142857143"/>
      <point x="25.547619047619047" y="-74.80952380952381" type="curve"/>
    </contour>
  </outline>
</glyph>
<glyph name="asterisk" format="2">
  <advance width="410.404761904762"/>
  <unicode hex="002A"/>
  <outline>
    <contour>
      <point x="157.64285714285714" y="365.26190476190476" type="line"/>
      <point x="257.85714285714283" y="365.26190476190476" type="line"/>
      <point x="226.11904761904762" y="530.2619047619048" type="line"/>
      <point x="346.3095238095238" y="425.9761904761904" type="line"/>
      <point x="387.5952380952381" y="522.6428571428572" type="line"/>
      <point x="265.5952380952381" y="562.9047619047618" type="line"/>
      <point x="387.5952380952381" y="602.6190476190476" type="line"/>
      <point x="346.3095238095238" y="700.2857142857142" type="line"/>
      <point x="226.11904761904762" y="595.5476190476192" type="line"/>
      <point x="258.4047619047619" y="760.0" type="line"/>
      <point x="157.64285714285714" y="760.0" type="line"/>
      <point x="187.83333333333334" y="594.0" type="line"/>
      <point x="67.19047619047619" y="702.2857142857142" type="line"/>
      <point x="26.904761904761905" y="603.6190476190476" type="line"/>
      <point x="149.35714285714286" y="562.9047619047618" type="line"/>
      <point x="26.904761904761905" y="521.6428571428572" type="line"/>
      <point x="67.19047619047619" y="424.9761904761904" type="line"/>
      <point x="186.83333333333334" y="532.2619047619048" type="line"/>
    </contour>
  </outline>
</glyph>
<glyph name="plus" format="2">
  <advance width="425.0"/>
  <unicode hex="002B"/>
  <outline>
    <contour>
      <point x="175.35714285714286" y="143.0" type="line"/>
      <point x="249.1904761904762" y="143.0" type="line"/>
      <point x="249.1904761904762" y="322.35714285714283" type="line"/>
      <point x="389.1904761904762" y="322.35714285714283" type="line"/>
      <point x="389.1904761904762" y="392.64285714285717" type="line"/>
      <point x="249.1904761904762" y="392.64285714285717" type="line"/>
      <point x="249.1904761904762" y="572.0" type="line"/>
      <point x="175.35714285714286" y="572.0" type="line"/>
      <point x="175.35714285714286" y="392.64285714285717" type="line"/>
      <point x="35.80952380952381" y="392.64285714285717" type="line"/>
      <point x="35.80952380952381" y="322.35714285714283" type="line"/>
      <point x="175.35714285714286" y="322.35714285714283" type="line"/>
    </contour>
  </outline>
</glyph>
<glyph name="comma" format="2">
  <advance width="259.8809523809524"/>
  <unicode hex="002C"/>
  <outline>
    <contour>
      <point x="43.833333333333336" y="-154.0" type="line"/>
      <point x="154.3095238095238" y="-120.45238095238095"/>
      <point x="195.5" y="-46.357142857142854"/>
      <point x="195.5" y="35.73809523809524" type="curve" smooth="yes"/>
      <point x="195.5" y="105.02380952380953"/>
      <point x="170.49999999999997" y="148.3095238095238"/>
      <point x="119.1190476190476" y="148.3095238095238" type="curve" smooth="yes"/>
      <point x="83.3809523809524" y="148.3095238095238"/>
      <point x="53.642857142857146" y="124.21428571428572"/>
      <point x="53.642857142857146" y="81.47619047619048" type="curve" smooth="yes"/>
      <point x="53.642857142857146" y="3.357142857142856"/>
      <point x="112.83333333333331" y="10.999999999999998"/>
      <point x="112.83333333333331" y="-25.0" type="curve" smooth="yes"/>
      <point x="112.83333333333331" y="-61.0"/>
      <point x="88.28571428571429" y="-83.16666666666667"/>
      <point x="43.833333333333336" y="-103.16666666666667" type="curve"/>
    </contour>
  </outline>
</glyph>
<glyph name="hyphen" format="2">
  <advance width="256.2857142857143"/>
  <unicode hex="002D"/>
  <outline>
    <contour>
      <point x="21.0" y="220.07142857142856" type="line"/>
      <point x="235.73809523809524" y="220.07142857142856" type="line"/>
      <point x="235.73809523809524" y="324.92857142857144" type="line"/>
      <point x="21.0" y="324.92857142857144" type="line"/>
    </contour>
  </outline>
</glyph>
<glyph name="period" format="2">
  <advance width="259.8809523809524"/>
  <unicode hex="002E"/>
  <outline>
    <contour>
      <point x="129.6666666666667" y="-7.5476190476190474" type="curve" smooth="yes"/>
      <point x="169.5" y="-7.5476190476190474"/>
      <point x="204.7857142857143" y="11.095238095238095"/>
      <point x="204.7857142857143" y="70.3809523809524" type="curve" smooth="yes"/>
      <point x="204.7857142857143" y="129.21428571428572"/>
      <point x="169.5" y="148.3095238095238"/>
      <point x="129.6666666666667" y="148.3095238095238" type="curve" smooth="yes"/>
      <point x="87.83333333333336" y="148.3095238095238"/>
      <point x="55.09523809523809" y="129.21428571428572"/>
      <point x="55.09523809523809" y="70.3809523809524" type="curve" smooth="yes"/>
      <point x="55.09523809523809" y="11.095238095238095"/>
      <point x="87.83333333333336" y="-7.5476190476190474"/>
    </contour>
  </outline>
</glyph>
<glyph name="slash" format="2">
  <advance width="237.73809523809524"/>
  <unicode hex="002F"/>
  <outline>
    <contour>
      <point x="0.0" y="-121.0" type="line"/>
      <point x="65.3809523809524" y="-121.0" type="line"/>
      <point x="237.73809523809524" y="760.0" type="line"/>
      <point x="175.3571428571429" y="760.0" type="line"/>
    </contour>
  </outline>
</glyph>
<glyph name="zero" format="2">
  <advance width="461.4761904761905"/>
  <unicode hex="0030"/>
  <outline>
    <contour>
      <point x="230.73809523809524" y="-10.0" type="curve" smooth="yes"/>
      <point x="381.76190476190476" y="-10.0"/>
      <point x="436.76190476190476" y="132.19047619047618"/>
      <point x="436.76190476190476" y="358.0" type="curve" smooth="yes"/>
      <point x="436.76190476190476" y="585.8095238095239"/>
      <point x="382.2142857142858" y="724.0"/>
      <point x="231.73809523809524" y="724.0" type="curve" smooth="yes"/>
      <point x="72.26190476190476" y="724.0"/>
      <point x="23.261904761904763" y="583.3571428571428"/>
      <point x="23.261904761904763" y="359.0" type="curve" smooth="yes"/>
      <point x="23.261904761904763" y="130.73809523809524"/>
      <point x="72.71428571428571" y="-10.0"/>
    </contour>
    <contour>
      <point x="230.73809523809524" y="53.833333333333336" type="curve" smooth="yes"/>
      <point x="177.30952380952382" y="53.833333333333336"/>
      <point x="170.6904761904762" y="165.73809523809524"/>
      <point x="170.6904761904762" y="358.0" type="curve" smooth="yes"/>
      <point x="170.6904761904762" y="550.2619047619048"/>
      <point x="177.30952380952382" y="660.1666666666666"/>
      <point x="231.73809523809524" y="660.1666666666666" type="curve" smooth="yes"/>
      <point x="283.16666666666663" y="660.1666666666666"/>
      <point x="290.23809523809524" y="550.2619047619048"/>
      <point x="290.23809523809524" y="358.0" type="curve" smooth="yes"/>
      <point x="290.23809523809524" y="165.73809523809524"/>
      <point x="283.16666666666663" y="53.833333333333336"/>
    </contour>
  </outline>
</glyph>
<glyph name="one" format="2">
  <advance width="461.4761904761905"/>
  <unicode hex="0031"/>
  <outline>
    <contour>
      <point x="67.16666666666666" y="0.0" type="line"/>
      <point x="424.7857142857144" y="0.0" type="line"/>
      <point x="424.7857142857144" y="52.833333333333336" type="line"/>
      <point x="375.8571428571429" y="52.833333333333336" type="line" smooth="yes"/>
      <point x="342.047619047619" y="52.833333333333336"/>
      <point x="323.2380952380953" y="74.11904761904762"/>
      <point x="323.2380952380953" y="117.64285714285714" type="curve" smooth="yes"/>
      <point x="323.2380952380953" y="718.0" type="line"/>
      <point x="212.80952380952382" y="718.0" type="line"/>
      <point x="155.26190476190476" y="669.547619047619" type="line" smooth="yes"/>
      <point x="99.16666666666666" y="622.0952380952381"/>
      <point x="57.976190476190474" y="605.0952380952381"/>
      <point x="25.428571428571423" y="595.0952380952381" type="curve"/>
      <point x="25.428571428571423" y="549.7142857142857"/>
      <point x="48.07142857142858" y="521.5238095238094"/>
      <point x="75.71428571428571" y="521.5238095238094" type="curve" smooth="yes"/>
      <point x="109.26190476190474" y="521.5238095238094"/>
      <point x="142.8095238095238" y="554.7857142857143"/>
      <point x="182.8095238095238" y="612.7857142857143" type="curve"/>
      <point x="182.8095238095238" y="117.64285714285714" type="line" smooth="yes"/>
      <point x="182.8095238095238" y="65.47619047619048"/>
      <point x="158.9047619047619" y="52.833333333333336"/>
      <point x="130.1904761904762" y="52.833333333333336" type="curve" smooth="yes"/>
      <point x="67.16666666666666" y="52.833333333333336" type="line"/>
    </contour>
  </outline>
</glyph>
<glyph name="two" format="2">
  <advance width="461.4761904761905"/>
  <unicode hex="0032"/>
  <outline>
    <contour>
      <point x="25.166666666666668" y="0.0" type="line"/>
      <point x="430.95238095238096" y="0.0" type="line"/>
      <point x="434.95238095238096" y="210.04761904761907" type="line"/>
      <point x="379.0238095238095" y="210.04761904761907" type="line"/>
      <point x="370.92857142857144" y="178.21428571428572" type="line" smooth="yes"/>
      <point x="358.9285714285714" y="131.21428571428572"/>
      <point x="329.4523809523809" y="109.85714285714286"/>
      <point x="303.38095238095235" y="109.85714285714286" type="curve" smooth="yes"/>
      <point x="123.47619047619047" y="109.85714285714286" type="line"/>
      <point x="240.4523809523809" y="234.88095238095238" type="line" smooth="yes"/>
      <point x="342.57142857142856" y="343.33333333333337"/>
      <point x="415.40476190476187" y="433.4523809523809"/>
      <point x="415.40476190476187" y="550.9047619047618" type="curve" smooth="yes"/>
      <point x="415.40476190476187" y="654.452380952381"/>
      <point x="347.30952380952374" y="724.0"/>
      <point x="214.64285714285714" y="724.0" type="curve" smooth="yes"/>
      <point x="87.16666666666666" y="724.0"/>
      <point x="26.523809523809526" y="653.7142857142858"/>
      <point x="26.523809523809526" y="584.7142857142858" type="curve" smooth="yes"/>
      <point x="26.523809523809526" y="514.6904761904761"/>
      <point x="82.54761904761905" y="496.14285714285717"/>
      <point x="143.11904761904765" y="496.14285714285717" type="curve"/>
      <point x="143.11904761904765" y="610.0952380952382"/>
      <point x="166.76190476190476" y="663.1666666666666"/>
      <point x="214.64285714285714" y="663.1666666666666" type="curve" smooth="yes"/>
      <point x="247.07142857142858" y="663.1666666666666"/>
      <point x="271.52380952380946" y="629.6428571428571"/>
      <point x="271.52380952380946" y="548.095238095238" type="curve" smooth="yes"/>
      <point x="271.52380952380946" y="447.0952380952381"/>
      <point x="240.07142857142853" y="371.1666666666667"/>
      <point x="138.5952380952381" y="241.5238095238095" type="curve" smooth="yes"/>
      <point x="25.166666666666668" y="95.76190476190477" type="line"/>
    </contour>
  </outline>
</glyph>
<glyph name="three" format="2">
  <advance width="461.4761904761905"/>
  <unicode hex="0033"/>
  <outline>
    <contour>
      <point x="201.0952380952381" y="-10.0" type="curve" smooth="yes"/>
      <point x="325.66666666666663" y="-10.0"/>
      <point x="434.8571428571429" y="43.0"/>
      <point x="434.8571428571429" y="202.64285714285714" type="curve" smooth="yes"/>
      <point x="434.8571428571429" y="314.8095238095238"/>
      <point x="361.85714285714283" y="363.90476190476187"/>
      <point x="291.7619047619047" y="379.54761904761904" type="curve"/>
      <point x="360.30952380952385" y="408.73809523809524"/>
      <point x="413.8571428571429" y="468.45238095238096"/>
      <point x="413.8571428571429" y="558.452380952381" type="curve" smooth="yes"/>
      <point x="413.8571428571429" y="664.452380952381"/>
      <point x="339.11904761904765" y="724.0"/>
      <point x="216.452380952381" y="724.0" type="curve" smooth="yes"/>
      <point x="89.52380952380952" y="724.0"/>
      <point x="29.428571428571416" y="658.3571428571428"/>
      <point x="29.428571428571416" y="589.452380952381" type="curve" smooth="yes"/>
      <point x="29.428571428571416" y="531.0714285714286"/>
      <point x="73.71428571428571" y="509.42857142857144"/>
      <point x="138.92857142857144" y="509.42857142857144" type="curve"/>
      <point x="138.92857142857144" y="588.4285714285714"/>
      <point x="158.28571428571425" y="663.1666666666666"/>
      <point x="209.00000000000003" y="663.1666666666666" type="curve" smooth="yes"/>
      <point x="245.52380952380955" y="663.1666666666666"/>
      <point x="269.4285714285714" y="618.7142857142857"/>
      <point x="269.4285714285714" y="546.9047619047619" type="curve" smooth="yes"/>
      <point x="269.4285714285714" y="458.6428571428571"/>
      <point x="247.90476190476193" y="400.64285714285717"/>
      <point x="177.35714285714283" y="400.64285714285717" type="curve"/>
      <point x="115.78571428571429" y="400.64285714285717" type="line"/>
      <point x="115.78571428571429" y="339.8095238095238" type="line"/>
      <point x="172.80952380952382" y="339.8095238095238" type="line" smooth="yes"/>
      <point x="250.52380952380955" y="339.8095238095238"/>
      <point x="289.42857142857144" y="283.8095238095238"/>
      <point x="289.42857142857144" y="203.64285714285714" type="curve" smooth="yes"/>
      <point x="289.42857142857144" y="92.1904761904762"/>
      <point x="245.7142857142857" y="59.476190476190474"/>
      <point x="197.0" y="59.476190476190474" type="curve" smooth="yes"/>
      <point x="140.64285714285717" y="59.476190476190474"/>
      <point x="98.0" y="109.83333333333333"/>
      <point x="98.0" y="194.76190476190476" type="curve"/>
      <point x="56.26190476190475" y="194.76190476190476"/>
      <point x="18.880952380952376" y="168.2142857142857"/>
      <point x="18.880952380952376" y="117.38095238095238" type="curve" smooth="yes"/>
      <point x="18.880952380952376" y="45.09523809523809"/>
      <point x="68.97619047619048" y="-10.0"/>
    </contour>
  </outline>
</glyph>
<glyph name="four" format="2">
  <advance width="461.4761904761905"/>
  <unicode hex="0034"/>
  <outline>
    <contour>
      <point x="135.23809523809524" y="0.0" type="line"/>
      <point x="444.3095238095239" y="0.0" type="line"/>
      <point x="444.3095238095239" y="52.833333333333336" type="line"/>
      <point x="433.30952380952385" y="52.833333333333336" type="line" smooth="yes"/>
      <point x="396.30952380952385" y="52.833333333333336"/>
      <point x="365.76190476190476" y="61.83333333333333"/>
      <point x="365.76190476190476" y="124.83333333333333" type="curve" smooth="yes"/>
      <point x="365.76190476190476" y="186.71428571428572" type="line"/>
      <point x="443.3809523809523" y="186.71428571428572" type="line"/>
      <point x="443.3809523809523" y="252.0" type="line"/>
      <point x="365.76190476190476" y="252.0" type="line"/>
      <point x="365.76190476190476" y="714.0" type="line"/>
      <point x="228.97619047619048" y="714.0" type="line"/>
      <point x="9.904761904761905" y="246.28571428571428" type="line"/>
      <point x="9.904761904761905" y="186.71428571428572" type="line"/>
      <point x="226.33333333333331" y="186.71428571428572" type="line"/>
      <point x="226.33333333333331" y="124.83333333333333" type="line" smooth="yes"/>
      <point x="226.33333333333331" y="61.83333333333333"/>
      <point x="195.78571428571428" y="52.833333333333336"/>
      <point x="158.78571428571428" y="52.833333333333336" type="curve" smooth="yes"/>
      <point x="135.23809523809524" y="52.833333333333336" type="line"/>
    </contour>
    <contour>
      <point x="76.64285714285714" y="252.0" type="line"/>
      <point x="170.61904761904762" y="457.23809523809524" type="line" smooth="yes"/>
      <point x="191.61904761904762" y="504.3333333333333"/>
      <point x="216.2380952380952" y="564.7619047619048"/>
      <point x="231.88095238095235" y="611.5952380952381" type="curve"/>
      <point x="227.33333333333331" y="549.5952380952381"/>
      <point x="226.33333333333331" y="494.3571428571429"/>
      <point x="226.33333333333331" y="436.3571428571429" type="curve" smooth="yes"/>
      <point x="226.33333333333331" y="252.0" type="line"/>
    </contour>
  </outline>
</glyph>
<glyph name="five" format="2">
  <advance width="461.4761904761905"/>
  <unicode hex="0035"/>
  <outline>
    <contour>
      <point x="202.73809523809527" y="-10.0" type="curve" smooth="yes"/>
      <point x="290.07142857142856" y="-10.0"/>
      <point x="424.9523809523809" y="46.5"/>
      <point x="424.9523809523809" y="219.54761904761904" type="curve" smooth="yes"/>
      <point x="424.9523809523809" y="362.6428571428571"/>
      <point x="340.3095238095238" y="434.64285714285717"/>
      <point x="202.0952380952381" y="434.64285714285717" type="curve" smooth="yes"/>
      <point x="177.28571428571428" y="434.64285714285717"/>
      <point x="133.0952380952381" y="427.19047619047615"/>
      <point x="114.64285714285712" y="418.1904761904762" type="curve"/>
      <point x="130.0952380952381" y="604.6904761904761" type="line"/>
      <point x="303.57142857142856" y="604.6904761904761" type="line" smooth="yes"/>
      <point x="326.8333333333333" y="604.6904761904761"/>
      <point x="330.38095238095235" y="591.1428571428571"/>
      <point x="338.3809523809524" y="562.8809523809525" type="curve" smooth="yes"/>
      <point x="347.0238095238095" y="532.1428571428571" type="line"/>
      <point x="400.40476190476187" y="532.1428571428571" type="line"/>
      <point x="396.85714285714283" y="713.547619047619" type="line"/>
      <point x="81.26190476190477" y="713.547619047619" type="line"/>
      <point x="51.166666666666664" y="369.1904761904762" type="line"/>
      <point x="86.0952380952381" y="350.4523809523809" type="line"/>
      <point x="113.73809523809524" y="358.9047619047619"/>
      <point x="140.54761904761904" y="369.8095238095238"/>
      <point x="174.26190476190476" y="369.8095238095238" type="curve" smooth="yes"/>
      <point x="242.2619047619048" y="369.8095238095238"/>
      <point x="280.0714285714286" y="319.9047619047619"/>
      <point x="280.0714285714286" y="219.54761904761904" type="curve" smooth="yes"/>
      <point x="280.0714285714286" y="94.73809523809524"/>
      <point x="234.61904761904765" y="56.92857142857143"/>
      <point x="186.0" y="56.92857142857143" type="curve" smooth="yes"/>
      <point x="118.9047619047619" y="56.92857142857143"/>
      <point x="99.64285714285714" y="124.76190476190476"/>
      <point x="99.64285714285714" y="183.2142857142857" type="curve"/>
      <point x="58.45238095238094" y="183.2142857142857"/>
      <point x="27.166666666666668" y="158.76190476190476"/>
      <point x="27.166666666666668" y="113.47619047619048" type="curve" smooth="yes"/>
      <point x="27.166666666666668" y="51.0"/>
      <point x="77.54761904761905" y="-10.0"/>
    </contour>
  </outline>
</glyph>
<glyph name="six" format="2">
  <advance width="461.4761904761905"/>
  <unicode hex="0036"/>
  <outline>
    <contour>
      <point x="241.73809523809524" y="-10.0" type="curve" smooth="yes"/>
      <point x="373.3095238095238" y="-10.0"/>
      <point x="438.85714285714283" y="88.0"/>
      <point x="438.85714285714283" y="230.54761904761904" type="curve" smooth="yes"/>
      <point x="438.85714285714283" y="360.6428571428571"/>
      <point x="373.3095238095238" y="437.6428571428571"/>
      <point x="274.11904761904765" y="437.6428571428571" type="curve" smooth="yes"/>
      <point x="216.57142857142858" y="437.6428571428571"/>
      <point x="187.76190476190476" y="417.2857142857143"/>
      <point x="166.30952380952382" y="399.0238095238095" type="curve"/>
      <point x="172.95238095238093" y="568.3571428571428"/>
      <point x="201.66666666666663" y="665.1666666666666"/>
      <point x="257.73809523809524" y="665.1666666666666" type="curve" smooth="yes"/>
      <point x="297.4523809523809" y="665.1666666666666"/>
      <point x="317.90476190476187" y="607.8809523809524"/>
      <point x="317.90476190476187" y="536.3333333333334" type="curve"/>
      <point x="393.76190476190476" y="536.3333333333334"/>
      <point x="421.8571428571429" y="568.7142857142857"/>
      <point x="421.8571428571429" y="613.3571428571428" type="curve" smooth="yes"/>
      <point x="421.8571428571429" y="671.452380952381"/>
      <point x="375.85714285714283" y="724.0"/>
      <point x="262.2857142857142" y="724.0" type="curve" smooth="yes"/>
      <point x="107.45238095238096" y="724.0"/>
      <point x="30.619047619047624" y="583.547619047619"/>
      <point x="30.619047619047624" y="333.35714285714283" type="curve" smooth="yes"/>
      <point x="30.619047619047624" y="97.0"/>
      <point x="114.26190476190477" y="-10.0"/>
    </contour>
    <contour>
      <point x="244.28571428571428" y="54.38095238095238" type="curve" smooth="yes"/>
      <point x="201.21428571428575" y="54.38095238095238"/>
      <point x="167.85714285714286" y="148.38095238095235"/>
      <point x="166.85714285714286" y="337.2857142857142" type="curve"/>
      <point x="181.7619047619048" y="352.54761904761904"/>
      <point x="204.0238095238095" y="374.71428571428567"/>
      <point x="237.64285714285714" y="374.71428571428567" type="curve" smooth="yes"/>
      <point x="276.7142857142857" y="374.71428571428567"/>
      <point x="302.6190476190476" y="329.3571428571429"/>
      <point x="302.6190476190476" y="220.54761904761904" type="curve" smooth="yes"/>
      <point x="302.6190476190476" y="105.28571428571429"/>
      <point x="279.26190476190476" y="54.38095238095238"/>
    </contour>
  </outline>
</glyph>
<glyph name="seven" format="2">
  <advance width="461.4761904761905"/>
  <unicode hex="0037"/>
  <outline>
    <contour>
      <point x="121.16666666666667" y="0.0" type="line"/>
      <point x="208.28571428571428" y="0.0" type="line"/>
      <point x="428.6666666666667" y="664.9761904761906" type="line"/>
      <point x="428.6666666666667" y="713.547619047619" type="line"/>
      <point x="40.357142857142854" y="713.547619047619" type="line"/>
      <point x="35.357142857142854" y="503.6904761904762" type="line"/>
      <point x="92.73809523809524" y="503.6904761904762" type="line"/>
      <point x="98.83333333333333" y="552.2380952380952" type="line" smooth="yes"/>
      <point x="103.38095238095238" y="587.6904761904763"/>
      <point x="116.3809523809524" y="604.6904761904761"/>
      <point x="146.3809523809524" y="604.6904761904761" type="curve" smooth="yes"/>
      <point x="347.1904761904762" y="604.6904761904761" type="line"/>
    </contour>
  </outline>
</glyph>
<glyph name="eight" format="2">
  <advance width="461.4761904761905"/>
  <unicode hex="0038"/>
  <outline>
    <contour>
      <point x="226.1904761904762" y="-10.0" type="curve" smooth="yes"/>
      <point x="364.2142857142857" y="-10.0"/>
      <point x="442.85714285714283" y="67.19047619047619"/>
      <point x="442.85714285714283" y="183.64285714285717" type="curve" smooth="yes"/>
      <point x="442.85714285714283" y="284.0"/>
      <point x="404.6904761904762" y="335.0"/>
      <point x="312.30952380952385" y="387.73809523809524" type="curve"/>
      <point x="380.404761904762" y="423.73809523809524"/>
      <point x="421.4047619047619" y="470.6428571428571"/>
      <point x="421.4047619047619" y="559.547619047619" type="curve" smooth="yes"/>
      <point x="421.4047619047619" y="651.9047619047619"/>
      <point x="359.30952380952385" y="724.0"/>
      <point x="235.83333333333331" y="724.0" type="curve" smooth="yes"/>
      <point x="94.16666666666667" y="724.0"/>
      <point x="37.61904761904762" y="642.9047619047618"/>
      <point x="37.61904761904762" y="543.3571428571429" type="curve" smooth="yes"/>
      <point x="37.61904761904762" y="453.35714285714283"/>
      <point x="79.61904761904762" y="403.9047619047619"/>
      <point x="144.71428571428572" y="362.3571428571428" type="curve"/>
      <point x="73.61904761904762" y="330.45238095238096"/>
      <point x="19.071428571428573" y="277.54761904761904"/>
      <point x="19.071428571428573" y="173.54761904761904" type="curve" smooth="yes"/>
      <point x="19.071428571428573" y="74.09523809523809"/>
      <point x="80.61904761904762" y="-10.0"/>
    </contour>
    <contour>
      <point x="229.73809523809524" y="49.28571428571429" type="curve" smooth="yes"/>
      <point x="181.21428571428572" y="49.28571428571429"/>
      <point x="144.21428571428572" y="93.0952380952381"/>
      <point x="144.21428571428572" y="181.64285714285717" type="curve" smooth="yes"/>
      <point x="144.21428571428572" y="248.45238095238096"/>
      <point x="163.47619047619048" y="295.71428571428567"/>
      <point x="195.0952380952381" y="327.6190476190476" type="curve"/>
      <point x="264.9761904761904" y="280.9047619047619"/>
      <point x="303.9761904761905" y="232.35714285714286"/>
      <point x="303.9761904761905" y="166.00000000000003" type="curve" smooth="yes"/>
      <point x="303.9761904761905" y="91.64285714285715"/>
      <point x="273.8095238095238" y="49.28571428571429"/>
    </contour>
    <contour>
      <point x="254.83333333333331" y="418.47619047619054" type="curve"/>
      <point x="204.76190476190476" y="450.1904761904762"/>
      <point x="171.95238095238096" y="489.1904761904762"/>
      <point x="171.95238095238096" y="560.547619047619" type="curve" smooth="yes"/>
      <point x="171.95238095238096" y="624.904761904762"/>
      <point x="193.21428571428572" y="664.7142857142858"/>
      <point x="233.28571428571428" y="664.7142857142858" type="curve" smooth="yes"/>
      <point x="275.8095238095238" y="664.7142857142858"/>
      <point x="299.26190476190476" y="616.452380952381"/>
      <point x="299.26190476190476" y="556.0" type="curve" smooth="yes"/>
      <point x="299.26190476190476" y="485.54761904761904"/>
      <point x="281.26190476190476" y="445.19047619047615"/>
    </contour>
  </outline>
</glyph>
<glyph name="nine" format="2">
  <advance width="461.4761904761905"/>
  <unicode hex="0039"/>
  <outline>
    <contour>
      <point x="187.19047619047618" y="-10.452380952380953" type="curve"/>
      <point x="360.66666666666674" y="-10.452380952380953"/>
      <point x="430.8571428571429" y="157.64285714285714"/>
      <point x="430.8571428571429" y="388.0" type="curve"/>
      <point x="430.8571428571429" y="631.6428571428572"/>
      <point x="340.1190476190476" y="724.0"/>
      <point x="216.73809523809524" y="724.0" type="curve" smooth="yes"/>
      <point x="94.90476190476191" y="724.0"/>
      <point x="22.619047619047624" y="627.0952380952382"/>
      <point x="22.619047619047624" y="485.0" type="curve" smooth="yes"/>
      <point x="22.619047619047624" y="351.4523809523809"/>
      <point x="89.71428571428571" y="277.90476190476187"/>
      <point x="183.26190476190476" y="277.90476190476187" type="curve" smooth="yes"/>
      <point x="240.8095238095238" y="277.90476190476187"/>
      <point x="274.07142857142856" y="302.61904761904765"/>
      <point x="299.7142857142857" y="337.26190476190476" type="curve"/>
      <point x="293.7142857142857" y="150.73809523809524"/>
      <point x="259.26190476190476" y="53.285714285714285"/>
      <point x="194.1904761904762" y="53.285714285714285" type="curve" smooth="yes"/>
      <point x="135.64285714285714" y="53.285714285714285"/>
      <point x="114.73809523809526" y="104.11904761904762"/>
      <point x="98.19047619047619" y="164.5952380952381" type="curve"/>
      <point x="59.16666666666668" y="156.5952380952381"/>
      <point x="45.07142857142858" y="126.30952380952382"/>
      <point x="45.07142857142858" y="97.21428571428571" type="curve" smooth="yes"/>
      <point x="45.07142857142858" y="40.285714285714285"/>
      <point x="84.8095238095238" y="-10.452380952380953"/>
    </contour>
    <contour>
      <point x="228.28571428571425" y="345.92857142857133" type="curve" smooth="yes"/>
      <point x="182.21428571428572" y="345.9285714285714"/>
      <point x="157.85714285714283" y="399.3809523809524"/>
      <point x="157.85714285714283" y="488.0" type="curve" smooth="yes"/>
      <point x="157.85714285714283" y="600.3571428571428"/>
      <point x="182.21428571428572" y="658.6190476190476"/>
      <point x="224.83333333333334" y="658.6190476190476" type="curve" smooth="yes"/>
      <point x="271.45238095238096" y="658.6190476190476"/>
      <point x="298.7142857142857" y="590.4523809523808"/>
      <point x="299.7142857142857" y="399.5476190476191" type="curve"/>
      <point x="282.9761904761905" y="369.452380952381"/>
      <point x="255.45238095238096" y="345.9285714285714"/>
    </contour>
  </outline>
</glyph>
<glyph name="colon" format="2">
  <advance width="256.4047619047619"/>
  <unicode hex="003A"/>
  <outline>
    <contour>
      <point x="127.47619047619047" y="385.4285714285714" type="curve" smooth="yes"/>
      <point x="166.76190476190476" y="385.4285714285714"/>
      <point x="202.04761904761907" y="404.52380952380946"/>
      <point x="202.04761904761907" y="463.35714285714283" type="curve" smooth="yes"/>
      <point x="202.04761904761907" y="522.6428571428571"/>
      <point x="166.76190476190476" y="541.2857142857144"/>
      <point x="127.47619047619047" y="541.2857142857144" type="curve" smooth="yes"/>
      <point x="85.64285714285714" y="541.2857142857144"/>
      <point x="53.35714285714285" y="522.6428571428571"/>
      <point x="53.35714285714285" y="463.35714285714283" type="curve" smooth="yes"/>
      <point x="53.35714285714285" y="404.52380952380946"/>
      <point x="85.64285714285714" y="385.4285714285714"/>
    </contour>
    <contour>
      <point x="127.47619047619047" y="-7.5476190476190474" type="curve" smooth="yes"/>
      <point x="166.76190476190476" y="-7.5476190476190474"/>
      <point x="202.04761904761907" y="11.095238095238095"/>
      <point x="202.04761904761907" y="70.3809523809524" type="curve" smooth="yes"/>
      <point x="202.04761904761907" y="129.21428571428572"/>
      <point x="166.76190476190476" y="148.3095238095238"/>
      <point x="127.47619047619047" y="148.3095238095238" type="curve" smooth="yes"/>
      <point x="85.64285714285714" y="148.3095238095238"/>
      <point x="53.35714285714285" y="129.21428571428572"/>
      <point x="53.35714285714285" y="70.3809523809524" type="curve" smooth="yes"/>
      <point x="53.35714285714285" y="11.095238095238095"/>
      <point x="85.64285714285714" y="-7.5476190476190474"/>
    </contour>
  </outline>
</glyph>
<glyph name="semicolon" format="2">
  <advance width="256.4047619047619"/>
  <unicode hex="003B"/>
  <outline>
    <contour>
      <point x="46.19047619047618" y="-154.0" type="line"/>
      <point x="157.21428571428572" y="-120.45238095238095"/>
      <point x="198.40476190476193" y="-46.357142857142854"/>
      <point x="198.40476190476193" y="35.73809523809524" type="curve" smooth="yes"/>
      <point x="198.40476190476193" y="105.02380952380953"/>
      <point x="173.85714285714286" y="148.3095238095238"/>
      <point x="121.47619047619045" y="148.3095238095238" type="curve" smooth="yes"/>
      <point x="86.73809523809524" y="148.3095238095238"/>
      <point x="56.99999999999999" y="124.21428571428572"/>
      <point x="56.99999999999999" y="81.47619047619048" type="curve" smooth="yes"/>
      <point x="56.99999999999999" y="3.357142857142856"/>
      <point x="116.19047619047618" y="10.999999999999998"/>
      <point x="116.19047619047618" y="-25.0" type="curve" smooth="yes"/>
      <point x="116.19047619047618" y="-62.547619047619044"/>
      <point x="91.64285714285714" y="-83.16666666666667"/>
      <point x="46.19047619047618" y="-103.16666666666667" type="curve"/>
    </contour>
    <contour>
      <point x="127.47619047619047" y="385.4285714285714" type="curve" smooth="yes"/>
      <point x="167.76190476190476" y="385.4285714285714"/>
      <point x="202.04761904761907" y="404.52380952380946"/>
      <point x="202.04761904761907" y="463.35714285714283" type="curve" smooth="yes"/>
      <point x="202.04761904761907" y="522.6428571428571"/>
      <point x="167.76190476190476" y="541.2857142857144"/>
      <point x="127.47619047619047" y="541.2857142857144" type="curve" smooth="yes"/>
      <point x="85.64285714285714" y="541.2857142857144"/>
      <point x="53.35714285714285" y="522.6428571428571"/>
      <point x="53.35714285714285" y="463.35714285714283" type="curve" smooth="yes"/>
      <point x="53.35714285714285" y="404.52380952380946"/>
      <point x="85.64285714285714" y="385.4285714285714"/>
    </contour>
  </outline>
</glyph>
<glyph name="less" format="2">
  <advance width="425.0"/>
  <unicode hex="003C"/>
  <outline>
    <contour>
      <point x="389.1904761904762" y="104.35714285714286" type="line"/>
      <point x="389.1904761904762" y="184.1904761904762" type="line"/>
      <point x="128.73809523809524" y="357.0" type="line"/>
      <point x="389.1904761904762" y="531.8095238095239" type="line"/>
      <point x="389.1904761904762" y="611.6428571428571" type="line"/>
      <point x="35.80952380952381" y="378.0952380952381" type="line"/>
      <point x="35.80952380952381" y="336.9047619047619" type="line"/>
    </contour>
  </outline>
</glyph>
<glyph name="equal" format="2">
  <advance width="425.0"/>
  <unicode hex="003D"/>
  <outline>
    <contour>
      <point x="33.261904761904766" y="410.71428571428567" type="line"/>
      <point x="391.7380952380953" y="410.71428571428567" type="line"/>
      <point x="391.7380952380953" y="481.0" type="line"/>
      <point x="33.261904761904766" y="481.0" type="line"/>
    </contour>
    <contour>
      <point x="33.261904761904766" y="233.0" type="line"/>
      <point x="391.7380952380953" y="233.0" type="line"/>
      <point x="391.7380952380953" y="303.28571428571433" type="line"/>
      <point x="33.261904761904766" y="303.28571428571433" type="line"/>
    </contour>
  </outline>
</glyph>
<glyph name="question" format="2">
  <advance width="474.61904761904754"/>
  <unicode hex="003F"/>
  <outline>
    <contour>
      <point x="188.02380952380952" y="226.47619047619048" type="line"/>
      <point x="235.85714285714286" y="226.47619047619048" type="line"/>
      <point x="262.14285714285717" y="323.0" type="line"/>
      <point x="374.9761904761905" y="377.6428571428571"/>
      <point x="427.0714285714285" y="434.45238095238096"/>
      <point x="427.0714285714285" y="541.3571428571429" type="curve" smooth="yes"/>
      <point x="427.0714285714285" y="656.9047619047619"/>
      <point x="344.69047619047615" y="724.0"/>
      <point x="215.11904761904765" y="724.0" type="curve" smooth="yes"/>
      <point x="87.45238095238095" y="724.0"/>
      <point x="29.357142857142858" y="665.8095238095237"/>
      <point x="29.357142857142858" y="604.8095238095237" type="curve" smooth="yes"/>
      <point x="29.357142857142858" y="547.9761904761906"/>
      <point x="75.28571428571429" y="530.4285714285714"/>
      <point x="155.69047619047618" y="530.4285714285714" type="curve"/>
      <point x="155.69047619047618" y="614.7142857142857"/>
      <point x="175.69047619047618" y="664.1666666666666"/>
      <point x="216.1190476190476" y="664.1666666666666" type="curve" smooth="yes"/>
      <point x="252.64285714285714" y="664.1666666666666"/>
      <point x="273.4523809523809" y="615.9047619047618"/>
      <point x="273.4523809523809" y="551.095238095238" type="curve" smooth="yes"/>
      <point x="273.4523809523809" y="469.1904761904762"/>
      <point x="255.73809523809524" y="394.54761904761904"/>
      <point x="162.1904761904762" y="348.547619047619" type="curve"/>
    </contour>
    <contour>
      <point x="210.11904761904762" y="-7.5476190476190474" type="curve" smooth="yes"/>
      <point x="249.95238095238093" y="-7.5476190476190474"/>
      <point x="284.69047619047615" y="11.095238095238095"/>
      <point x="284.69047619047615" y="70.3809523809524" type="curve" smooth="yes"/>
      <point x="284.69047619047615" y="129.21428571428572"/>
      <point x="249.95238095238093" y="148.3095238095238"/>
      <point x="210.11904761904762" y="148.3095238095238" type="curve" smooth="yes"/>
      <point x="168.2857142857143" y="148.3095238095238"/>
      <point x="135.54761904761904" y="129.21428571428572"/>
      <point x="135.54761904761904" y="70.3809523809524" type="curve" smooth="yes"/>
      <point x="135.54761904761904" y="11.095238095238095"/>
      <point x="168.2857142857143" y="-7.5476190476190474"/>
    </contour>
  </outline>
</glyph>
<glyph name="bracketleft" format="2">
  <advance width="362.7142857142857"/>
  <unicode hex="005B"/>
  <outline>
    <contour>
      <point x="82.09523809523809" y="-128.0" type="line"/>
      <point x="332.1666666666667" y="-128.0" type="line"/>
      <point x="332.1666666666667" y="-75.16666666666666" type="line"/>
      <point x="297.1666666666667" y="-75.16666666666666" type="line" smooth="yes"/>
      <point x="259.61904761904765" y="-75.16666666666666"/>
      <point x="229.07142857142858" y="-66.16666666666666"/>
      <point x="229.07142857142858" y="-3.1666666666666647" type="curve" smooth="yes"/>
      <point x="229.07142857142858" y="635.1666666666666" type="line" smooth="yes"/>
      <point x="229.07142857142858" y="698.1666666666666"/>
      <point x="259.61904761904765" y="707.1666666666666"/>
      <point x="297.1666666666667" y="707.1666666666666" type="curve" smooth="yes"/>
      <point x="332.1666666666667" y="707.1666666666666" type="line"/>
      <point x="332.1666666666667" y="760.0" type="line"/>
      <point x="82.09523809523809" y="760.0" type="line"/>
    </contour>
  </outline>
</glyph>
<glyph name="bracketright" format="2">
  <advance width="362.7142857142857"/>
  <unicode hex="005D"/>
  <outline>
    <contour>
      <point x="30.547619047619047" y="-128.0" type="line"/>
      <point x="280.61904761904765" y="-128.0" type="line"/>
      <point x="280.61904761904765" y="760.0" type="line"/>
      <point x="30.547619047619047" y="760.0" type="line"/>
      <point x="30.547619047619047" y="707.1666666666666" type="line"/>
      <point x="66.0952380952381" y="707.1666666666666" type="line" smooth="yes"/>
      <point x="103.64285714285715" y="707.1666666666666"/>
      <point x="133.64285714285714" y="698.1666666666666"/>
      <point x="133.64285714285714" y="635.1666666666666" type="curve" smooth="yes"/>
      <point x="133.64285714285714" y="-3.1666666666666647" type="line" smooth="yes"/>
      <point x="133.64285714285714" y="-66.16666666666666"/>
      <point x="103.64285714285715" y="-75.16666666666666"/>
      <point x="66.0952380952381" y="-75.16666666666666" type="curve" smooth="yes"/>
      <point x="30.547619047619047" y="-75.16666666666666" type="line"/>
    </contour>
  </outline>
</glyph>
<glyph name="asciicircum" format="2">
  <advance width="425.0"/>
  <unicode hex="005E"/>
  <outline>
    <contour>
      <point x="18.166666666666664" y="262.3571428571429" type="line"/>
      <point x="86.0" y="262.3571428571429" type="line"/>
      <point x="211.0" y="604.5238095238096" type="line"/>
      <point x="337.45238095238096" y="262.3571428571429" type="line"/>
      <point x="405.83333333333326" y="262.3571428571429" type="line"/>
      <point x="230.6428571428571" y="714.0" type="line"/>
      <point x="192.35714285714286" y="714.0" type="line"/>
    </contour>
  </outline>
</glyph>
<glyph name="braceleft" format="2">
  <advance width="369.2142857142857"/>
  <unicode hex="007B"/>
  <outline>
    <contour>
      <point x="263.3809523809524" y="-124.9047619047619" type="curve" smooth="yes"/>
      <point x="352.69047619047615" y="-124.9047619047619" type="line"/>
      <point x="352.69047619047615" y="-71.61904761904762" type="line"/>
      <point x="316.9523809523809" y="-71.61904761904762" type="line" smooth="yes"/>
      <point x="270.95238095238096" y="-71.61904761904762"/>
      <point x="262.14285714285717" y="-37.166666666666664"/>
      <point x="262.14285714285717" y="25.642857142857146" type="curve" smooth="yes"/>
      <point x="262.14285714285717" y="196.64285714285714" type="line" smooth="yes"/>
      <point x="262.14285714285717" y="257.4523809523809"/>
      <point x="235.14285714285714" y="296.2619047619048"/>
      <point x="172.5952380952381" y="315.4523809523809" type="curve"/>
      <point x="172.5952380952381" y="323.64285714285717" type="line"/>
      <point x="237.2380952380952" y="340.83333333333337"/>
      <point x="262.14285714285717" y="379.6428571428571"/>
      <point x="262.14285714285717" y="440.45238095238096" type="curve" smooth="yes"/>
      <point x="262.14285714285717" y="610.452380952381" type="line" smooth="yes"/>
      <point x="262.14285714285717" y="673.2619047619048"/>
      <point x="270.95238095238096" y="707.7142857142857"/>
      <point x="316.9523809523809" y="707.7142857142857" type="curve" smooth="yes"/>
      <point x="352.69047619047615" y="707.7142857142857" type="line"/>
      <point x="352.69047619047615" y="760.0" type="line"/>
      <point x="263.3809523809524" y="760.0" type="line" smooth="yes"/>
      <point x="163.35714285714286" y="760.0"/>
      <point x="112.07142857142856" y="707.452380952381"/>
      <point x="112.07142857142856" y="613.9047619047619" type="curve" smooth="yes"/>
      <point x="112.07142857142856" y="442.45238095238096" type="line" smooth="yes"/>
      <point x="112.07142857142856" y="367.64285714285717"/>
      <point x="70.52380952380953" y="350.83333333333337"/>
      <point x="16.523809523809526" y="348.83333333333337" type="curve"/>
      <point x="16.523809523809526" y="288.2619047619048" type="line"/>
      <point x="70.52380952380953" y="285.2619047619048"/>
      <point x="112.07142857142856" y="270.4523809523809"/>
      <point x="112.07142857142856" y="193.64285714285714" type="curve" smooth="yes"/>
      <point x="112.07142857142856" y="23.19047619047619" type="line" smooth="yes"/>
      <point x="112.07142857142856" y="-68.35714285714286"/>
      <point x="163.35714285714286" y="-124.9047619047619"/>
    </contour>
  </outline>
</glyph>
<glyph name="bar" format="2">
  <advance width="461.4761904761905"/>
  <unicode hex="007C"/>
  <outline>
    <contour>
      <point x="198.09523809523807" y="-240.0" type="line"/>
      <point x="262.92857142857144" y="-240.0" type="line"/>
      <point x="262.92857142857144" y="760.0" type="line"/>
      <point x="198.09523809523807" y="760.0" type="line"/>
    </contour>
  </outline>
</glyph>
<glyph name="braceright" format="2">
  <advance width="369.2142857142857"/>
  <unicode hex="007D"/>
  <outline>
    <contour>
      <point x="16.523809523809526" y="-124.9047619047619" type="line"/>
      <point x="105.83333333333333" y="-124.9047619047619" type="line" smooth="yes"/>
      <point x="206.4047619047619" y="-124.9047619047619"/>
      <point x="257.14285714285717" y="-68.35714285714286"/>
      <point x="257.14285714285717" y="23.19047619047619" type="curve" smooth="yes"/>
      <point x="257.14285714285717" y="193.64285714285714" type="line" smooth="yes"/>
      <point x="257.14285714285717" y="270.4523809523809"/>
      <point x="300.14285714285717" y="285.2619047619048"/>
      <point x="352.69047619047615" y="288.2619047619048" type="curve"/>
      <point x="352.69047619047615" y="348.83333333333337" type="line"/>
      <point x="300.14285714285717" y="350.83333333333337"/>
      <point x="257.14285714285717" y="367.64285714285717"/>
      <point x="257.14285714285717" y="442.45238095238096" type="curve" smooth="yes"/>
      <point x="257.14285714285717" y="613.9047619047619" type="line" smooth="yes"/>
      <point x="257.14285714285717" y="707.452380952381"/>
      <point x="206.4047619047619" y="760.0"/>
      <point x="105.83333333333333" y="760.0" type="curve" smooth="yes"/>
      <point x="16.523809523809526" y="760.0" type="line"/>
      <point x="16.523809523809526" y="707.7142857142857" type="line"/>
      <point x="52.809523809523796" y="707.7142857142857" type="line" smooth="yes"/>
      <point x="98.26190476190476" y="707.7142857142857"/>
      <point x="107.07142857142856" y="673.2619047619048"/>
      <point x="107.07142857142856" y="610.452380952381" type="curve" smooth="yes"/>
      <point x="107.07142857142856" y="440.45238095238096" type="line" smooth="yes"/>
      <point x="107.07142857142856" y="379.6428571428571"/>
      <point x="132.52380952380955" y="340.83333333333337"/>
      <point x="197.6190476190476" y="323.64285714285717" type="curve"/>
      <point x="197.6190476190476" y="315.4523809523809" type="line"/>
      <point x="134.07142857142858" y="296.2619047619048"/>
      <point x="107.07142857142856" y="257.4523809523809"/>
      <point x="107.07142857142856" y="196.64285714285714" type="curve" smooth="yes"/>
      <point x="107.07142857142856" y="25.642857142857146" type="line" smooth="yes"/>
      <point x="107.07142857142856" y="-37.166666666666664"/>
      <point x="98.26190476190476" y="-71.61904761904762"/>
      <point x="52.809523809523796" y="-71.61904761904762" type="curve" smooth="yes"/>
      <point x="16.523809523809526" y="-71.61904761904762" type="line"/>
    </contour>
  </outline>
</glyph>
<glyph name="asciitilde" format="2">
  <advance width="425.0"/>
  <unicode hex="007E"/>
  <outline>
    <contour>
      <point x="14.071428571428564" y="261.8095238095238" type="curve"/>
      <point x="83.0" y="261.8095238095238" type="line"/>
      <point x="84.35714285714285" y="345.35714285714283"/>
      <point x="99.90476190476193" y="378.7142857142857"/>
      <point x="129.9047619047619" y="378.7142857142857" type="curve" smooth="yes"/>
      <point x="148.35714285714286" y="378.7142857142857"/>
      <point x="160.26190476190476" y="365.9047619047619"/>
      <point x="194.35714285714286" y="326.8095238095238" type="curve" smooth="yes"/>
      <point x="242.90476190476187" y="271.3571428571429"/>
      <point x="268.4523809523809" y="261.8095238095238"/>
      <point x="299.0" y="261.8095238095238" type="curve" smooth="yes"/>
      <point x="385.38095238095235" y="261.8095238095238"/>
      <point x="411.47619047619054" y="349.7142857142857"/>
      <point x="412.38095238095235" y="451.19047619047615" type="curve"/>
      <point x="343.0" y="451.19047619047615" type="line"/>
      <point x="342.0952380952381" y="366.0952380952381"/>
      <point x="327.0" y="334.73809523809524"/>
      <point x="297.54761904761904" y="334.73809523809524" type="curve" smooth="yes"/>
      <point x="277.09523809523813" y="334.73809523809524"/>
      <point x="267.1904761904762" y="350.6428571428572"/>
      <point x="236.64285714285717" y="383.6428571428571" type="curve" smooth="yes"/>
      <point x="189.9047619047619" y="433.38095238095235"/>
      <point x="163.35714285714283" y="451.19047619047615"/>
      <point x="126.35714285714285" y="451.19047619047615" type="curve" smooth="yes"/>
      <point x="41.61904761904762" y="451.19047619047615"/>
      <point x="14.97619047619047" y="363.7380952380952"/>
    </contour>
  </outline>
</glyph>
<glyph name="twosuperior" format="2">
  <advance width="329.8333333333333"/>
  <unicode hex="00B2"/>
  <outline>
    <contour>
      <point x="20.80952380952381" y="387.0" type="line"/>
      <point x="302.2142857142857" y="387.0" type="line"/>
      <point x="305.76190476190476" y="532.1190476190477" type="line"/>
      <point x="276.0238095238095" y="532.1190476190477" type="line"/>
      <point x="271.0238095238095" y="504.5714285714286" type="line"/>
      <point x="267.57142857142856" y="485.11904761904765"/>
      <point x="258.4761904761905" y="471.6666666666667"/>
      <point x="237.02380952380952" y="471.6666666666667" type="curve"/>
      <point x="89.64285714285715" y="471.6666666666667" type="line"/>
      <point x="142.16666666666669" y="517.7142857142857" type="line"/>
      <point x="262.30952380952385" y="604.547619047619"/>
      <point x="299.85714285714283" y="638.452380952381"/>
      <point x="299.85714285714283" y="706.9047619047619" type="curve" smooth="yes"/>
      <point x="299.85714285714283" y="775.3571428571428"/>
      <point x="261.40476190476187" y="825.0"/>
      <point x="162.2857142857143" y="825.0" type="curve" smooth="yes"/>
      <point x="67.35714285714286" y="825.0"/>
      <point x="23.714285714285715" y="784.4523809523808"/>
      <point x="23.714285714285715" y="735.9047619047618" type="curve" smooth="yes"/>
      <point x="23.714285714285715" y="701.7142857142858"/>
      <point x="44.80952380952381" y="686.1666666666666"/>
      <point x="104.92857142857142" y="686.1666666666666" type="curve"/>
      <point x="104.92857142857142" y="737.9761904761905"/>
      <point x="111.64285714285714" y="776.1666666666665"/>
      <point x="150.64285714285714" y="776.1666666666665" type="curve" smooth="yes"/>
      <point x="177.9047619047619" y="776.1666666666665"/>
      <point x="192.35714285714283" y="750.8095238095239"/>
      <point x="192.35714285714283" y="710.547619047619" type="curve" smooth="yes"/>
      <point x="192.35714285714283" y="651.1904761904763"/>
      <point x="162.26190476190476" y="614.2857142857142"/>
      <point x="104.97619047619045" y="553.6428571428571" type="curve" smooth="yes"/>
      <point x="20.80952380952381" y="463.3095238095238" type="line"/>
    </contour>
  </outline>
</glyph>
<glyph name="threesuperior" format="2">
  <advance width="329.8333333333333"/>
  <unicode hex="00B3"/>
  <outline>
    <contour>
      <point x="146.09523809523807" y="380.0" type="curve" smooth="yes"/>
      <point x="254.7619047619048" y="380.0"/>
      <point x="309.21428571428567" y="429.6428571428571"/>
      <point x="309.21428571428567" y="509.54761904761904" type="curve" smooth="yes"/>
      <point x="309.21428571428567" y="577.9047619047619"/>
      <point x="260.2142857142858" y="603.0"/>
      <point x="211.57142857142856" y="612.0" type="curve"/>
      <point x="211.57142857142856" y="615.547619047619" type="line"/>
      <point x="255.66666666666666" y="630.0"/>
      <point x="295.2142857142857" y="663.452380952381"/>
      <point x="295.2142857142857" y="722.452380952381" type="curve" smooth="yes"/>
      <point x="295.2142857142857" y="784.452380952381"/>
      <point x="256.2142857142857" y="824.0"/>
      <point x="160.28571428571428" y="824.0" type="curve" smooth="yes"/>
      <point x="66.35714285714286" y="824.0"/>
      <point x="26.80952380952381" y="784.0952380952381"/>
      <point x="26.80952380952381" y="737.452380952381" type="curve" smooth="yes"/>
      <point x="26.80952380952381" y="703.9047619047619"/>
      <point x="53.0" y="691.3571428571428"/>
      <point x="102.47619047619048" y="691.3571428571428" type="curve"/>
      <point x="102.47619047619048" y="740.2619047619047"/>
      <point x="107.28571428571429" y="777.7142857142857"/>
      <point x="145.54761904761907" y="777.7142857142857" type="curve" smooth="yes"/>
      <point x="171.8095238095238" y="777.7142857142857"/>
      <point x="187.16666666666666" y="755.7142857142857"/>
      <point x="187.16666666666666" y="715.452380952381" type="curve" smooth="yes"/>
      <point x="187.16666666666666" y="665.0"/>
      <point x="167.3571428571429" y="633.6428571428572"/>
      <point x="124.00000000000001" y="633.6428571428572" type="curve" smooth="yes"/>
      <point x="93.45238095238095" y="633.6428571428572" type="line"/>
      <point x="93.45238095238095" y="583.8095238095237" type="line"/>
      <point x="123.54761904761907" y="583.8095238095237" type="line" smooth="yes"/>
      <point x="178.35714285714286" y="583.8095238095237"/>
      <point x="197.16666666666666" y="555.3571428571428"/>
      <point x="197.16666666666666" y="512.0952380952381" type="curve" smooth="yes"/>
      <point x="197.16666666666666" y="452.7380952380953"/>
      <point x="170.26190476190476" y="432.38095238095235"/>
      <point x="136.45238095238093" y="432.38095238095235" type="curve" smooth="yes"/>
      <point x="96.28571428571429" y="432.38095238095235"/>
      <point x="78.73809523809524" y="467.64285714285717"/>
      <point x="78.73809523809524" y="517.7380952380952" type="curve"/>
      <point x="36.357142857142854" y="517.7380952380952"/>
      <point x="14.714285714285715" y="500.64285714285717"/>
      <point x="14.714285714285715" y="467.64285714285717" type="curve" smooth="yes"/>
      <point x="14.714285714285715" y="418.64285714285717"/>
      <point x="53.8095238095238" y="380.0"/>
    </contour>
  </outline>
</glyph>
<glyph name="multiply" format="2">
  <advance width="425.0"/>
  <unicode hex="00D7"/>
  <outline>
    <contour>
      <point x="90.09523809523809" y="160.73809523809524" type="line"/>
      <point x="211.9047619047619" y="305.80952380952385" type="line"/>
      <point x="331.71428571428567" y="163.28571428571428" type="line"/>
      <point x="383.45238095238096" y="207.57142857142856" type="line"/>
      <point x="256.64285714285717" y="359.54761904761904" type="line"/>
      <point x="383.45238095238096" y="510.5238095238096" type="line"/>
      <point x="330.7142857142857" y="554.2619047619047" type="line"/>
      <point x="211.9047619047619" y="412.7380952380952" type="line"/>
      <point x="91.09523809523809" y="556.8095238095239" type="line"/>
      <point x="38.357142857142854" y="513.0714285714286" type="line"/>
      <point x="167.16666666666666" y="359.54761904761904" type="line"/>
      <point x="38.357142857142854" y="205.02380952380955" type="line"/>
    </contour>
  </outline>
</glyph>
<glyph name="divide" format="2">
  <advance width="425.0"/>
  <unicode hex="00F7"/>
  <outline>
    <contour>
      <point x="35.80952380952381" y="322.35714285714283" type="line"/>
      <point x="389.1904761904762" y="322.35714285714283" type="line"/>
      <point x="389.1904761904762" y="392.64285714285717" type="line"/>
      <point x="35.80952380952381" y="392.64285714285717" type="line"/>
    </contour>
    <contour>
      <point x="213.0" y="107.35714285714286" type="curve" smooth="yes"/>
      <point x="240.09523809523807" y="107.35714285714286"/>
      <point x="262.64285714285717" y="123.35714285714286"/>
      <point x="262.64285714285717" y="168.0" type="curve" smooth="yes"/>
      <point x="262.64285714285717" y="213.64285714285714"/>
      <point x="240.09523809523807" y="228.64285714285714"/>
      <point x="213.0" y="228.64285714285714" type="curve" smooth="yes"/>
      <point x="183.35714285714286" y="228.64285714285714"/>
      <point x="162.35714285714286" y="213.64285714285714"/>
      <point x="162.35714285714286" y="168.0" type="curve" smooth="yes"/>
      <point x="162.35714285714286" y="123.35714285714286"/>
      <point x="183.35714285714286" y="107.35714285714286"/>
    </contour>
    <contour>
      <point x="213.0" y="486.35714285714283" type="curve" smooth="yes"/>
      <point x="240.09523809523807" y="486.35714285714283"/>
      <point x="262.64285714285717" y="502.3571428571429"/>
      <point x="262.64285714285717" y="547.0" type="curve" smooth="yes"/>
      <point x="262.64285714285717" y="592.6428571428572"/>
      <point x="240.09523809523807" y="607.6428571428571"/>
      <point x="213.0" y="607.6428571428571" type="curve" smooth="yes"/>
      <point x="183.35714285714286" y="607.6428571428571"/>
      <point x="162.35714285714286" y="592.6428571428572"/>
      <point x="162.35714285714286" y="547.0" type="curve" smooth="yes"/>
      <point x="162.35714285714286" y="502.3571428571429"/>
      <point x="183.35714285714286" y="486.35714285714283"/>
    </contour>
  </outline>
</glyph>
<glyph name="udatta-deva" format="2">
  <unicode hex="0951"/>
  <anchor x="0.0" y="571.0238095238095" name="_vedic"/>
  <outline>
    <contour>
      <point x="-32.19047619047619" y="947.4047619047619" type="line"/>
      <point x="32.19047619047619" y="947.4047619047619" type="line"/>
      <point x="32.19047619047619" y="1151.6904761904761" type="line"/>
      <point x="-32.19047619047619" y="1151.6904761904761" type="line"/>
    </contour>
  </outline>
</glyph>
<glyph name="anudatta-deva" format="2">
  <unicode hex="0952"/>
  <anchor x="0.0" y="0.0" name="_bottom"/>
  <outline>
    <contour>
      <point x="-202.54761904761904" y="-548.4761904761905" type="line"/>
      <point x="202.54761904761904" y="-548.4761904761905" type="line"/>
      <point x="202.54761904761904" y="-457.8095238095238" type="line"/>
      <point x="-202.54761904761904" y="-457.8095238095238" type="line"/>
    </contour>
  </outline>
</glyph>
<glyph name="danda-deva" format="2">
  <advance width="285.8571428571429"/>
  <unicode hex="0964"/>
  <outline>
    <contour>
      <point x="62.166666666666664" y="0.0" type="line"/>
      <point x="223.78571428571433" y="0.0" type="line"/>
      <point x="223.78571428571433" y="571.0238095238095" type="line"/>
      <point x="62.166666666666664" y="571.0238095238095" type="line"/>
    </contour>
  </outline>
</glyph>
<glyph name="dbldanda-deva" format="2">
  <advance width="528.9047619047619"/>
  <unicode hex="0965"/>
  <outline>
    <contour>
      <point x="305.66666666666663" y="0.0" type="line"/>
      <point x="467.2857142857142" y="0.0" type="line"/>
      <point x="467.2857142857142" y="571.0238095238095" type="line"/>
      <point x="305.66666666666663" y="571.0238095238095" type="line"/>
    </contour>
    <contour>
      <point x="62.166666666666664" y="0.0" type="line"/>
      <point x="223.78571428571433" y="0.0" type="line"/>
      <point x="223.78571428571433" y="571.0238095238095" type="line"/>
      <point x="62.166666666666664" y="571.0238095238095" type="line"/>
    </contour>
  </outline>
</glyph>
<glyph name="anusvara-tamil" format="2">
  <unicode hex="0B82"/>
  <note>
uni0B82
</note>
  <anchor x="0.0" y="571.0238095238095" name="_top"/>
  <outline>
    <contour>
      <point x="0.0" y="625.8095238095239" type="curve" smooth="yes"/>
      <point x="75.38095238095238" y="625.8095238095239"/>
      <point x="135.7619047619048" y="683.2857142857142"/>
      <point x="135.7619047619048" y="760.3095238095239" type="curve" smooth="yes"/>
      <point x="135.7619047619048" y="836.7857142857143"/>
      <point x="75.38095238095238" y="893.2619047619049"/>
      <point x="0.0" y="893.2619047619049" type="curve" smooth="yes"/>
      <point x="-75.38095238095238" y="893.2619047619049"/>
      <point x="-135.7619047619048" y="836.7857142857143"/>
      <point x="-135.7619047619048" y="760.3095238095239" type="curve" smooth="yes"/>
      <point x="-135.7619047619048" y="683.2857142857142"/>
      <point x="-75.38095238095238" y="625.8095238095239"/>
    </contour>
    <contour>
      <point x="0.0" y="704.0238095238095" type="curve" smooth="yes"/>
      <point x="-29.547619047619044" y="704.0238095238095"/>
      <point x="-55.1904761904762" y="728.6666666666667"/>
      <point x="-55.1904761904762" y="759.7619047619048" type="curve" smooth="yes"/>
      <point x="-55.1904761904762" y="790.8571428571429"/>
      <point x="-29.547619047619044" y="815.5"/>
      <point x="0.0" y="815.5" type="curve" smooth="yes"/>
      <point x="29.547619047619044" y="815.5"/>
      <point x="55.1904761904762" y="790.8571428571429"/>
      <point x="55.1904761904762" y="759.7619047619048" type="curve" smooth="yes"/>
      <point x="55.1904761904762" y="728.6666666666667"/>
      <point x="29.547619047619044" y="704.0238095238095"/>
    </contour>
  </outline>
</glyph>
<glyph name="visarga-tamil" format="2">
  <advance width="726.952380952381"/>
  <unicode hex="0B83"/>
  <note>
uni0B83
</note>
  <outline>
    <contour>
      <point x="537.3095238095239" y="-3.6428571428571432" type="curve" smooth="yes"/>
      <point x="626.047619047619" y="-3.6428571428571432"/>
      <point x="685.6904761904761" y="63.16666666666666"/>
      <point x="685.6904761904761" y="185.99999999999997" type="curve" smooth="yes"/>
      <point x="685.6904761904761" y="308.92857142857144"/>
      <point x="625.5" y="375.19047619047615"/>
      <point x="539.857142857143" y="375.19047619047615" type="curve" smooth="yes"/>
      <point x="448.0238095238095" y="375.19047619047615"/>
      <point x="396.3809523809524" y="300.1904761904762"/>
      <point x="396.3809523809524" y="182.4523809523809" type="curve" smooth="yes"/>
      <point x="396.3809523809524" y="69.35714285714286"/>
      <point x="444.47619047619054" y="-3.6428571428571432"/>
    </contour>
    <contour>
      <point x="183.09523809523807" y="-3.6428571428571432" type="curve" smooth="yes"/>
      <point x="271.28571428571433" y="-3.6428571428571432"/>
      <point x="330.47619047619054" y="63.16666666666666"/>
      <point x="330.47619047619054" y="185.99999999999997" type="curve" smooth="yes"/>
      <point x="330.47619047619054" y="308.92857142857144"/>
      <point x="270.2857142857143" y="375.19047619047615"/>
      <point x="185.19047619047618" y="375.19047619047615" type="curve" smooth="yes"/>
      <point x="92.80952380952381" y="375.19047619047615"/>
      <point x="41.714285714285715" y="300.1904761904762"/>
      <point x="41.714285714285715" y="182.4523809523809" type="curve" smooth="yes"/>
      <point x="41.714285714285715" y="69.35714285714286"/>
      <point x="89.26190476190477" y="-3.6428571428571432"/>
    </contour>
    <contour>
      <point x="363.0238095238095" y="433.1190476190476" type="curve" smooth="yes"/>
      <point x="451.2142857142858" y="433.1190476190476"/>
      <point x="510.85714285714283" y="499.92857142857144"/>
      <point x="510.85714285714283" y="622.7619047619048" type="curve" smooth="yes"/>
      <point x="510.85714285714283" y="746.2380952380953"/>
      <point x="450.66666666666674" y="811.952380952381"/>
      <point x="365.0238095238095" y="811.952380952381" type="curve" smooth="yes"/>
      <point x="273.1904761904762" y="811.952380952381"/>
      <point x="222.0952380952381" y="736.952380952381"/>
      <point x="222.0952380952381" y="619.6666666666666" type="curve" smooth="yes"/>
      <point x="222.0952380952381" y="507.1190476190476"/>
      <point x="269.64285714285717" y="433.1190476190476"/>
    </contour>
    <contour>
      <point x="159.80952380952382" y="67.92857142857143" type="curve" smooth="yes"/>
      <point x="120.35714285714286" y="67.92857142857143"/>
      <point x="104.54761904761905" y="111.19047619047618"/>
      <point x="104.54761904761905" y="185.99999999999997" type="curve" smooth="yes"/>
      <point x="104.54761904761905" y="259.9047619047619"/>
      <point x="121.35714285714285" y="303.61904761904765"/>
      <point x="161.8095238095238" y="303.61904761904765" type="curve" smooth="yes"/>
      <point x="197.61904761904765" y="303.61904761904765"/>
      <point x="215.9761904761905" y="266.35714285714283"/>
      <point x="215.9761904761905" y="185.99999999999997" type="curve" smooth="yes"/>
      <point x="215.9761904761905" y="104.19047619047619"/>
      <point x="197.0714285714286" y="67.92857142857143"/>
    </contour>
    <contour>
      <point x="339.64285714285717" y="505.23809523809524" type="curve" smooth="yes"/>
      <point x="300.73809523809524" y="505.23809523809524"/>
      <point x="284.9285714285714" y="548.4047619047619"/>
      <point x="284.9285714285714" y="622.7619047619048" type="curve" smooth="yes"/>
      <point x="284.9285714285714" y="696.6666666666665"/>
      <point x="301.28571428571433" y="740.9285714285714"/>
      <point x="341.1904761904762" y="740.9285714285714" type="curve" smooth="yes"/>
      <point x="377.45238095238096" y="740.9285714285714"/>
      <point x="396.3571428571428" y="703.1190476190476"/>
      <point x="396.3571428571428" y="622.7619047619048" type="curve" smooth="yes"/>
      <point x="396.3571428571428" y="540.952380952381"/>
      <point x="376.45238095238096" y="505.23809523809524"/>
    </contour>
    <contour>
      <point x="514.4761904761906" y="67.92857142857143" type="curve" smooth="yes"/>
      <point x="475.02380952380946" y="67.92857142857143"/>
      <point x="459.30952380952385" y="111.19047619047618"/>
      <point x="459.30952380952385" y="185.99999999999997" type="curve" smooth="yes"/>
      <point x="459.30952380952385" y="259.9047619047619"/>
      <point x="475.5714285714285" y="303.61904761904765"/>
      <point x="516.0238095238096" y="303.61904761904765" type="curve" smooth="yes"/>
      <point x="552.2857142857143" y="303.61904761904765"/>
      <point x="570.642857142857" y="266.35714285714283"/>
      <point x="570.642857142857" y="185.99999999999997" type="curve" smooth="yes"/>
      <point x="570.642857142857" y="104.19047619047619"/>
      <point x="551.2857142857142" y="67.92857142857143"/>
    </contour>
  </outline>
</glyph>
<glyph name="a-tamil" format="2">
  <advance width="1129.4285714285713"/>
  <unicode hex="0B85"/>
  <note>
uni0B85
</note>
  <anchor x="551.8809523809524" y="0.0" name="bottom"/>
  <anchor x="366.11904761904765" y="-148.76190476190476" name="nukta"/>
  <anchor x="552.1428571428571" y="571.0238095238095" name="top"/>
  <anchor x="552.5952380952381" y="571.0238095238095" name="vedic"/>
  <outline>
    <contour>
      <point x="908.0952380952381" y="-212.85714285714286" type="line"/>
      <point x="1069.7142857142858" y="-212.85714285714286" type="line"/>
      <point x="1069.7142857142858" y="571.0238095238095" type="line"/>
      <point x="908.0952380952381" y="571.0238095238095" type="line"/>
      <point x="908.0952380952381" y="160.16666666666663" type="line"/>
      <point x="104.54761904761905" y="160.16666666666663" type="line" smooth="yes"/>
      <point x="57.547619047619044" y="160.16666666666663"/>
      <point x="24.261904761904766" y="128.61904761904762"/>
      <point x="24.261904761904766" y="79.42857142857143" type="curve" smooth="yes"/>
      <point x="24.261904761904766" y="-43.97619047619049"/>
      <point x="170.92857142857142" y="-148.76190476190476"/>
      <point x="366.11904761904765" y="-148.76190476190476" type="curve" smooth="yes"/>
      <point x="622.6904761904761" y="-148.76190476190476"/>
      <point x="820.3809523809525" y="-13.404761904761909"/>
      <point x="820.3809523809525" y="235.52380952380952" type="curve" smooth="yes"/>
      <point x="820.3809523809525" y="452.83333333333326"/>
      <point x="686.7142857142858" y="576.0238095238095"/>
      <point x="511.40476190476187" y="576.0238095238095" type="curve" smooth="yes"/>
      <point x="367.0" y="576.0238095238095"/>
      <point x="294.9047619047619" y="482.6190476190476"/>
      <point x="294.9047619047619" y="376.2619047619048" type="curve" smooth="yes"/>
      <point x="294.9047619047619" y="282.7857142857143"/>
      <point x="357.73809523809524" y="219.14285714285717"/>
      <point x="439.4761904761905" y="219.14285714285717" type="curve" smooth="yes"/>
      <point x="517.6666666666666" y="219.14285714285717"/>
      <point x="583.1428571428571" y="267.6904761904762"/>
      <point x="583.1428571428571" y="366.1666666666667" type="curve" smooth="yes"/>
      <point x="583.1428571428571" y="447.3571428571429"/>
      <point x="533.5952380952381" y="508.35714285714295"/>
      <point x="477.6904761904762" y="535.4761904761905" type="curve"/>
      <point x="416.2142857142857" y="524.2857142857142" type="line"/>
      <point x="466.95238095238096" y="495.90476190476187"/>
      <point x="492.76190476190476" y="441.0952380952381"/>
      <point x="492.76190476190476" y="382.9047619047619" type="curve" smooth="yes"/>
      <point x="492.76190476190476" y="337.54761904761904"/>
      <point x="471.2142857142858" y="296.90476190476187"/>
      <point x="427.57142857142856" y="296.90476190476187" type="curve" smooth="yes"/>
      <point x="393.4761904761904" y="296.90476190476187"/>
      <point x="363.9285714285714" y="323.3571428571429"/>
      <point x="363.9285714285714" y="383.54761904761904" type="curve" smooth="yes"/>
      <point x="363.9285714285714" y="447.07142857142856"/>
      <point x="403.28571428571433" y="509.09523809523813"/>
      <point x="491.2142857142858" y="509.09523809523813" type="curve" smooth="yes"/>
      <point x="604.4285714285714" y="509.09523809523813"/>
      <point x="670.047619047619" y="417.7380952380952"/>
      <point x="670.047619047619" y="251.54761904761907" type="curve" smooth="yes"/>
      <point x="670.047619047619" y="18.309523809523803"/>
      <point x="524.5714285714286" y="-82.3809523809524"/>
      <point x="341.1904761904762" y="-82.3809523809524" type="curve" smooth="yes"/>
      <point x="204.02380952380955" y="-82.3809523809524"/>
      <point x="99.73809523809524" y="-1.9523809523809543"/>
      <point x="99.73809523809524" y="66.78571428571428" type="curve" smooth="yes"/>
      <point x="99.73809523809524" y="84.88095238095238"/>
      <point x="109.83333333333333" y="94.78571428571428"/>
      <point x="128.83333333333334" y="94.78571428571428" type="curve" smooth="yes"/>
      <point x="908.0952380952381" y="94.78571428571428" type="line"/>
    </contour>
  </outline>
</glyph>
<glyph name="aa-tamil" format="2">
  <advance width="1342.1428571428569"/>
  <unicode hex="0B86"/>
  <note>
uni0B86
</note>
  <anchor x="673.9761904761905" y="0.0" name="bottom"/>
  <anchor x="366.11904761904765" y="-148.76190476190476" name="nukta"/>
  <anchor x="673.6904761904763" y="571.0238095238095" name="top"/>
  <anchor x="674.6904761904763" y="571.0238095238095" name="vedic"/>
  <outline>
    <contour>
      <point x="891.1428571428572" y="-407.4523809523809" type="curve" smooth="yes"/>
      <point x="1118.1190476190475" y="-407.4523809523809"/>
      <point x="1328.2380952380952" y="-293.0"/>
      <point x="1328.2380952380952" y="-64.59523809523809" type="curve" smooth="yes"/>
      <point x="1328.2380952380952" y="43.333333333333336"/>
      <point x="1275.5" y="103.26190476190477"/>
      <point x="1193.4761904761906" y="103.26190476190477" type="curve" smooth="yes"/>
      <point x="1104.5476190476193" y="103.26190476190477"/>
      <point x="1051.1666666666667" y="36.16666666666667"/>
      <point x="1040.5238095238094" y="-86.42857142857142" type="curve"/>
      <point x="1067.2619047619048" y="-93.88095238095238" type="line"/>
      <point x="1065.7142857142858" y="-39.33333333333333"/>
      <point x="1090.1666666666667" y="-12.976190476190474"/>
      <point x="1122.2619047619048" y="-12.976190476190474" type="curve" smooth="yes"/>
      <point x="1153.7142857142858" y="-12.976190476190474"/>
      <point x="1172.7142857142858" y="-37.97619047619048"/>
      <point x="1172.7142857142858" y="-83.88095238095238" type="curve" smooth="yes"/>
      <point x="1172.2619047619048" y="-256.0714285714286"/>
      <point x="1049.2857142857144" y="-343.6190476190476"/>
      <point x="883.0476190476188" y="-343.6190476190476" type="curve" smooth="yes"/>
      <point x="801.3095238095237" y="-343.6190476190476"/>
      <point x="727.2857142857143" y="-319.71428571428567"/>
      <point x="727.2857142857143" y="-263.8095238095238" type="curve" smooth="yes"/>
      <point x="727.2857142857143" y="-221.35714285714283"/>
      <point x="754.7380952380953" y="-202.0952380952381"/>
      <point x="808.2857142857144" y="-189.64285714285714" type="curve"/>
      <point x="794.7380952380953" y="-128.9047619047619" type="line"/>
      <point x="705.9047619047619" y="-149.90476190476193"/>
      <point x="659.0000000000001" y="-190.7142857142857"/>
      <point x="659.0000000000001" y="-260.8095238095238" type="curve" smooth="yes"/>
      <point x="659.0000000000001" y="-354.9047619047619"/>
      <point x="754.4761904761905" y="-407.4523809523809"/>
    </contour>
    <component base="a-tamil"/>
  </outline>
</glyph>
<glyph name="i-tamil" format="2">
  <advance width="872.8333333333333"/>
  <unicode hex="0B87"/>
  <note>
uni0B87
</note>
  <anchor x="414.14285714285717" y="0.0" name="bottom"/>
  <anchor x="413.23809523809524" y="-284.6666666666667" name="nukta"/>
  <anchor x="428.0476190476191" y="839.2142857142858" name="top"/>
  <anchor x="420.14285714285717" y="571.0238095238095" name="vedic"/>
  <outline>
    <contour>
      <point x="196.28571428571428" y="-323.8571428571429" type="curve" smooth="yes"/>
      <point x="481.16666666666663" y="-323.8571428571429"/>
      <point x="693.9285714285714" y="-58.11904761904762"/>
      <point x="693.9285714285714" y="225.61904761904762" type="curve" smooth="yes"/>
      <point x="693.9285714285714" y="436.5476190476191"/>
      <point x="593.7380952380952" y="576.0238095238095"/>
      <point x="418.4285714285715" y="576.0238095238095" type="curve" smooth="yes"/>
      <point x="277.1904761904762" y="576.0238095238095"/>
      <point x="204.64285714285714" y="483.5238095238095"/>
      <point x="204.64285714285714" y="375.3571428571429" type="curve" smooth="yes"/>
      <point x="204.64285714285714" y="281.42857142857144"/>
      <point x="266.0238095238096" y="219.14285714285714"/>
      <point x="345.8571428571429" y="219.14285714285714" type="curve" smooth="yes"/>
      <point x="424.0476190476191" y="219.14285714285714"/>
      <point x="488.52380952380946" y="267.04761904761904"/>
      <point x="488.52380952380946" y="363.7142857142857" type="curve" smooth="yes"/>
      <point x="488.52380952380946" y="442.19047619047626"/>
      <point x="440.33333333333337" y="505.19047619047626"/>
      <point x="383.9761904761905" y="535.0238095238096" type="curve"/>
      <point x="322.0476190476191" y="523.8333333333333" type="line"/>
      <point x="373.23809523809524" y="495.45238095238096"/>
      <point x="397.69047619047615" y="440.0"/>
      <point x="397.69047619047615" y="380.9047619047619" type="curve" smooth="yes"/>
      <point x="397.69047619047615" y="336.0"/>
      <point x="378.1428571428571" y="296.904761904762"/>
      <point x="334.40476190476187" y="296.904761904762" type="curve" smooth="yes"/>
      <point x="299.8571428571429" y="296.904761904762"/>
      <point x="273.66666666666663" y="324.7142857142857"/>
      <point x="273.66666666666663" y="383.095238095238" type="curve" smooth="yes"/>
      <point x="273.66666666666663" y="447.0714285714286"/>
      <point x="311.21428571428567" y="509.09523809523813"/>
      <point x="398.14285714285717" y="509.09523809523813" type="curve" smooth="yes"/>
      <point x="514.0714285714286" y="509.09523809523813"/>
      <point x="547.1428571428572" y="402.0"/>
      <point x="547.1428571428572" y="247.07142857142858" type="curve" smooth="yes"/>
      <point x="547.1428571428572" y="9.833333333333337"/>
      <point x="462.7142857142857" y="-255.3809523809524"/>
      <point x="197.64285714285717" y="-255.3809523809524" type="curve" smooth="yes"/>
      <point x="134.547619047619" y="-255.3809523809524"/>
      <point x="101.0" y="-224.38095238095238"/>
      <point x="101.0" y="-164.92857142857144" type="curve" smooth="yes"/>
      <point x="101.0" y="-45.85714285714286"/>
      <point x="252.19047619047618" y="45.16666666666666"/>
      <point x="408.95238095238096" y="45.16666666666666" type="curve" smooth="yes"/>
      <point x="579.5476190476192" y="45.16666666666666"/>
      <point x="745.0238095238095" y="-36.85714285714286"/>
      <point x="745.0238095238095" y="-166.2142857142857" type="curve" smooth="yes"/>
      <point x="745.0238095238095" y="-225.83333333333334"/>
      <point x="708.1190476190476" y="-255.3809523809524"/>
      <point x="647.1190476190477" y="-255.3809523809524" type="curve" smooth="yes"/>
      <point x="416.8095238095238" y="-255.3809523809524"/>
      <point x="112.9047619047619" y="54.595238095238095"/>
      <point x="112.9047619047619" y="359.1428571428571" type="curve" smooth="yes"/>
      <point x="112.9047619047619" y="599.6666666666667"/>
      <point x="239.64285714285717" y="709.5238095238095"/>
      <point x="428.0476190476191" y="709.5238095238095" type="curve" smooth="yes"/>
      <point x="622.3333333333334" y="709.5238095238095"/>
      <point x="766.3809523809523" y="591.2857142857143"/>
      <point x="766.3809523809523" y="339.9523809523809" type="curve" smooth="yes"/>
      <point x="766.3809523809523" y="99.92857142857143" type="line"/>
      <point x="834.6666666666666" y="99.92857142857143" type="line"/>
      <point x="834.6666666666666" y="346.69047619047615" type="line" smooth="yes"/>
      <point x="834.6666666666666" y="691.1190476190476"/>
      <point x="668.2619047619048" y="839.2142857142858"/>
      <point x="428.0476190476191" y="839.2142857142858" type="curve" smooth="yes"/>
      <point x="187.64285714285714" y="839.2142857142858"/>
      <point x="35.523809523809526" y="665.0"/>
      <point x="35.523809523809526" y="403.42857142857144" type="curve" smooth="yes"/>
      <point x="35.523809523809526" y="20.380952380952372"/>
      <point x="398.57142857142856" y="-323.8571428571429"/>
      <point x="654.8333333333333" y="-323.8571428571429" type="curve" smooth="yes"/>
      <point x="763.5000000000001" y="-323.8571428571429"/>
      <point x="823.4047619047619" y="-266.57142857142856"/>
      <point x="823.4047619047619" y="-179.21428571428572" type="curve" smooth="yes"/>
      <point x="823.4047619047619" y="11.523809523809518"/>
      <point x="623.8333333333334" y="105.35714285714285"/>
      <point x="407.95238095238096" y="105.35714285714285" type="curve" smooth="yes"/>
      <point x="213.0952380952381" y="105.35714285714285"/>
      <point x="27.166666666666668" y="-4.761904761904763"/>
      <point x="27.166666666666668" y="-167.47619047619048" type="curve" smooth="yes"/>
      <point x="27.166666666666668" y="-270.3095238095238"/>
      <point x="92.80952380952381" y="-323.8571428571429"/>
    </contour>
  </outline>
</glyph>
<glyph name="ii-tamil" format="2">
  <advance width="709.3809523809524"/>
  <unicode hex="0B88"/>
  <note>
uni0B88
</note>
  <anchor x="356.8809523809524" y="0.0" name="bottom"/>
  <anchor x="357.4285714285714" y="0.0" name="nukta"/>
  <anchor x="359.3333333333333" y="571.0238095238095" name="top"/>
  <anchor x="359.88095238095235" y="571.0238095238095" name="vedic"/>
  <outline>
    <contour>
      <point x="60.16666666666667" y="0.0" type="line"/>
      <point x="129.0" y="0.0" type="line"/>
      <point x="129.0" y="507.1904761904762" type="line"/>
      <point x="324.45238095238096" y="507.1904761904762" type="line"/>
      <point x="324.45238095238096" y="0.0" type="line"/>
      <point x="488.6190476190476" y="0.0" type="line"/>
      <point x="488.6190476190476" y="507.1904761904762" type="line"/>
      <point x="663.1904761904761" y="507.1904761904762" type="line"/>
      <point x="663.1904761904761" y="571.0238095238095" type="line"/>
      <point x="60.16666666666667" y="571.0238095238095" type="line"/>
    </contour>
    <contour>
      <point x="226.0" y="206.80952380952382" type="curve" smooth="yes"/>
      <point x="263.1904761904762" y="206.80952380952382"/>
      <point x="293.8333333333333" y="236.45238095238093"/>
      <point x="293.8333333333333" y="271.19047619047626" type="curve" smooth="yes"/>
      <point x="293.8333333333333" y="306.4761904761905"/>
      <point x="263.64285714285717" y="336.1190476190476"/>
      <point x="226.99999999999997" y="336.1190476190476" type="curve" smooth="yes"/>
      <point x="189.35714285714286" y="336.1190476190476"/>
      <point x="159.16666666666669" y="306.4761904761905"/>
      <point x="159.16666666666669" y="271.19047619047626" type="curve" smooth="yes"/>
      <point x="159.16666666666669" y="236.45238095238093"/>
      <point x="189.35714285714286" y="206.80952380952382"/>
    </contour>
    <contour>
      <point x="586.1666666666666" y="206.80952380952382" type="curve" smooth="yes"/>
      <point x="622.8095238095237" y="206.80952380952382"/>
      <point x="654.0000000000001" y="236.45238095238093"/>
      <point x="654.0000000000001" y="271.19047619047626" type="curve" smooth="yes"/>
      <point x="654.0000000000001" y="306.4761904761905"/>
      <point x="623.8095238095237" y="336.1190476190476"/>
      <point x="587.1666666666667" y="336.1190476190476" type="curve" smooth="yes"/>
      <point x="548.9761904761905" y="336.1190476190476"/>
      <point x="518.7857142857143" y="306.4761904761905"/>
      <point x="518.7857142857143" y="271.19047619047626" type="curve" smooth="yes"/>
      <point x="518.7857142857143" y="236.45238095238093"/>
      <point x="548.9761904761905" y="206.80952380952382"/>
    </contour>
  </outline>
</glyph>
<glyph name="u-tamil" format="2">
  <advance width="788.952380952381"/>
  <unicode hex="0B89"/>
  <note>
uni0B89
</note>
  <anchor x="390.0" y="0.0" name="bottom"/>
  <anchor x="390.0" y="0.0" name="nukta"/>
  <anchor x="393.4523809523809" y="571.0238095238095" name="top"/>
  <anchor x="393.0" y="571.0238095238095" name="vedic"/>
  <outline>
    <contour>
      <point x="125.90476190476191" y="0.0" type="curve" smooth="yes"/>
      <point x="777.5952380952382" y="0.0" type="line"/>
      <point x="777.5952380952382" y="64.28571428571429" type="line"/>
      <point x="123.26190476190474" y="64.28571428571429" type="line" smooth="yes"/>
      <point x="105.71428571428571" y="64.28571428571429"/>
      <point x="91.90476190476191" y="77.73809523809524"/>
      <point x="91.90476190476191" y="98.64285714285712" type="curve" smooth="yes"/>
      <point x="91.90476190476191" y="119.0"/>
      <point x="105.26190476190476" y="131.90476190476187"/>
      <point x="123.26190476190474" y="131.90476190476187" type="curve" smooth="yes"/>
      <point x="321.57142857142856" y="131.90476190476187" type="line" smooth="yes"/>
      <point x="469.69047619047626" y="131.90476190476187"/>
      <point x="579.2619047619048" y="193.80952380952382"/>
      <point x="579.2619047619048" y="338.54761904761904" type="curve" smooth="yes"/>
      <point x="579.2619047619048" y="486.64285714285717"/>
      <point x="472.07142857142856" y="576.0238095238095"/>
      <point x="301.9285714285714" y="576.0238095238095" type="curve" smooth="yes"/>
      <point x="171.26190476190476" y="576.0238095238095"/>
      <point x="87.52380952380952" y="492.0"/>
      <point x="87.52380952380952" y="386.6428571428571" type="curve" smooth="yes"/>
      <point x="87.52380952380952" y="293.7142857142857"/>
      <point x="144.35714285714283" y="242.35714285714283"/>
      <point x="219.54761904761904" y="242.35714285714283" type="curve" smooth="yes"/>
      <point x="295.73809523809524" y="242.35714285714283"/>
      <point x="355.02380952380946" y="290.452380952381"/>
      <point x="355.02380952380946" y="371.904761904762" type="curve" smooth="yes"/>
      <point x="355.02380952380946" y="451.09523809523813"/>
      <point x="304.3809523809524" y="509.45238095238096"/>
      <point x="248.3809523809524" y="533.4761904761905" type="curve"/>
      <point x="182.8095238095238" y="528.3809523809524" type="line"/>
      <point x="239.73809523809524" y="495.9047619047619"/>
      <point x="264.64285714285717" y="448.38095238095235"/>
      <point x="264.64285714285717" y="390.1904761904762" type="curve" smooth="yes"/>
      <point x="264.64285714285717" y="343.8333333333333"/>
      <point x="243.54761904761904" y="313.3809523809524"/>
      <point x="207.0" y="313.3809523809524" type="curve" smooth="yes"/>
      <point x="175.9047619047619" y="313.3809523809524"/>
      <point x="155.99999999999997" y="342.0238095238095"/>
      <point x="155.99999999999997" y="389.2857142857143" type="curve" smooth="yes"/>
      <point x="155.99999999999997" y="458.0"/>
      <point x="212.28571428571428" y="512.1904761904763"/>
      <point x="278.1904761904762" y="512.1904761904763" type="curve" smooth="yes"/>
      <point x="374.11904761904765" y="512.1904761904763"/>
      <point x="429.92857142857144" y="454.73809523809524"/>
      <point x="429.92857142857144" y="348.00000000000006" type="curve" smooth="yes"/>
      <point x="429.92857142857144" y="247.09523809523813"/>
      <point x="378.8333333333333" y="192.64285714285717"/>
      <point x="299.3809523809523" y="192.64285714285717" type="curve" smooth="yes"/>
      <point x="125.90476190476191" y="192.64285714285717" type="line" smooth="yes"/>
      <point x="68.16666666666666" y="192.64285714285717"/>
      <point x="30.166666666666668" y="158.64285714285714"/>
      <point x="30.166666666666668" y="98.09523809523807" type="curve" smooth="yes"/>
      <point x="30.166666666666668" y="36.54761904761905"/>
      <point x="69.16666666666666" y="0.0"/>
    </contour>
  </outline>
</glyph>
<glyph name="uu-tamil" format="2">
  <advance width="1523.8095238095239"/>
  <unicode hex="0B8A"/>
  <note>
uni0B8A
</note>
  <anchor x="763.2380952380953" y="0.0" name="bottom"/>
  <anchor x="763.2380952380952" y="0.0" name="nukta"/>
  <anchor x="764.8809523809523" y="571.0238095238095" name="top"/>
  <anchor x="766.2380952380953" y="571.0238095238095" name="vedic"/>
  <outline>
    <contour>
      <point x="125.00000000000001" y="0.0" type="curve" smooth="yes"/>
      <point x="1471.142857142857" y="0.0" type="line"/>
      <point x="1471.142857142857" y="64.28571428571429" type="line"/>
      <point x="122.35714285714283" y="64.28571428571429" type="line" smooth="yes"/>
      <point x="104.35714285714285" y="64.28571428571429"/>
      <point x="91.90476190476191" y="77.73809523809524"/>
      <point x="91.90476190476191" y="98.64285714285712" type="curve" smooth="yes"/>
      <point x="91.90476190476191" y="119.0"/>
      <point x="104.35714285714285" y="131.90476190476187"/>
      <point x="122.35714285714283" y="131.90476190476187" type="curve" smooth="yes"/>
      <point x="321.57142857142856" y="131.90476190476187" type="line" smooth="yes"/>
      <point x="469.69047619047626" y="131.90476190476187"/>
      <point x="579.2619047619048" y="193.80952380952382"/>
      <point x="579.2619047619048" y="338.54761904761904" type="curve" smooth="yes"/>
      <point x="579.2619047619048" y="486.64285714285717"/>
      <point x="472.07142857142856" y="576.0238095238095"/>
      <point x="301.9285714285714" y="576.0238095238095" type="curve" smooth="yes"/>
      <point x="171.26190476190476" y="576.0238095238095"/>
      <point x="87.52380952380952" y="492.0"/>
      <point x="87.52380952380952" y="386.6428571428571" type="curve" smooth="yes"/>
      <point x="87.52380952380952" y="293.7142857142857"/>
      <point x="144.35714285714283" y="242.35714285714283"/>
      <point x="219.54761904761904" y="242.35714285714283" type="curve" smooth="yes"/>
      <point x="295.73809523809524" y="242.35714285714283"/>
      <point x="355.02380952380946" y="290.452380952381"/>
      <point x="355.02380952380946" y="371.904761904762" type="curve" smooth="yes"/>
      <point x="355.02380952380946" y="451.09523809523813"/>
      <point x="304.3809523809524" y="509.45238095238096"/>
      <point x="248.3809523809524" y="533.4761904761905" type="curve"/>
      <point x="182.8095238095238" y="528.3809523809524" type="line"/>
      <point x="239.73809523809524" y="495.9047619047619"/>
      <point x="264.64285714285717" y="448.38095238095235"/>
      <point x="264.64285714285717" y="390.1904761904762" type="curve" smooth="yes"/>
      <point x="264.64285714285717" y="343.8333333333333"/>
      <point x="243.54761904761904" y="313.3809523809524"/>
      <point x="207.0" y="313.3809523809524" type="curve" smooth="yes"/>
      <point x="175.9047619047619" y="313.3809523809524"/>
      <point x="155.99999999999997" y="342.0238095238095"/>
      <point x="155.99999999999997" y="389.2857142857143" type="curve" smooth="yes"/>
      <point x="155.99999999999997" y="458.0"/>
      <point x="212.28571428571428" y="512.1904761904763"/>
      <point x="278.1904761904762" y="512.1904761904763" type="curve" smooth="yes"/>
      <point x="374.11904761904765" y="512.1904761904763"/>
      <point x="429.92857142857144" y="454.73809523809524"/>
      <point x="429.92857142857144" y="348.00000000000006" type="curve" smooth="yes"/>
      <point x="429.92857142857144" y="247.09523809523813"/>
      <point x="378.8333333333333" y="192.64285714285717"/>
      <point x="299.3809523809523" y="192.64285714285717" type="curve" smooth="yes"/>
      <point x="125.00000000000001" y="192.64285714285717" type="line" smooth="yes"/>
      <point x="66.8095238095238" y="192.64285714285717"/>
      <point x="30.166666666666668" y="158.64285714285714"/>
      <point x="30.166666666666668" y="98.09523809523807" type="curve" smooth="yes"/>
      <point x="30.166666666666668" y="36.54761904761905"/>
      <point x="67.8095238095238" y="0.0"/>
    </contour>
    <contour>
      <point x="802.3809523809524" y="119.02380952380953" type="curve" smooth="yes"/>
      <point x="882.9285714285714" y="119.02380952380953"/>
      <point x="947.8571428571429" y="167.19047619047618"/>
      <point x="947.8571428571429" y="262.1190476190476" type="curve" smooth="yes"/>
      <point x="947.8571428571429" y="354.92857142857144"/>
      <point x="891.2142857142859" y="402.92857142857144"/>
      <point x="822.1190476190476" y="402.92857142857144" type="curve" smooth="yes"/>
      <point x="734.4523809523811" y="402.92857142857144"/>
      <point x="694.0952380952381" y="319.5238095238095"/>
      <point x="693.8333333333333" y="230.88095238095238" type="curve"/>
      <point x="725.6666666666666" y="204.9047619047619" type="line"/>
      <point x="726.0238095238096" y="274.54761904761904"/>
      <point x="752.2857142857142" y="332.6428571428571"/>
      <point x="793.3809523809524" y="332.6428571428571" type="curve" smooth="yes"/>
      <point x="825.4761904761905" y="332.6428571428571"/>
      <point x="847.3809523809524" y="307.09523809523813"/>
      <point x="847.3809523809524" y="262.5714285714286" type="curve" smooth="yes"/>
      <point x="847.3809523809524" y="214.76190476190476"/>
      <point x="825.2857142857143" y="184.30952380952382"/>
      <point x="788.2857142857143" y="184.30952380952382" type="curve" smooth="yes"/>
      <point x="741.7380952380953" y="184.30952380952382"/>
      <point x="689.357142857143" y="231.30952380952382"/>
      <point x="689.357142857143" y="337.0238095238095" type="curve" smooth="yes"/>
      <point x="689.357142857143" y="443.57142857142856"/>
      <point x="747.0" y="512.7380952380953"/>
      <point x="844.2857142857143" y="512.7380952380953" type="curve" smooth="yes"/>
      <point x="948.6666666666665" y="512.7380952380953"/>
      <point x="1008.7619047619047" y="436.57142857142856"/>
      <point x="1008.7619047619047" y="329.8571428571429" type="curve"/>
      <point x="1068.595238095238" y="329.8571428571429" type="line"/>
      <point x="1063.5" y="492.0476190476191"/>
      <point x="961.1904761904761" y="576.0238095238095"/>
      <point x="845.3809523809524" y="576.0238095238095" type="curve" smooth="yes"/>
      <point x="714.5476190476192" y="576.0238095238095"/>
      <point x="626.6190476190477" y="476.2142857142857"/>
      <point x="626.6190476190477" y="335.5714285714286" type="curve" smooth="yes"/>
      <point x="626.6190476190477" y="200.11904761904762"/>
      <point x="706.6428571428571" y="119.02380952380953"/>
    </contour>
    <contour>
      <point x="1008.7619047619047" y="120.92857142857143" type="line"/>
      <point x="1143.8095238095236" y="120.92857142857143" type="line"/>
      <point x="1143.8095238095236" y="512.2857142857143" type="line"/>
      <point x="1255.357142857143" y="512.2857142857143" type="line"/>
      <point x="1255.357142857143" y="120.92857142857143" type="line"/>
      <point x="1390.5" y="120.92857142857143" type="line"/>
      <point x="1390.5" y="512.2857142857143" type="line"/>
      <point x="1471.1428571428573" y="512.2857142857143" type="line"/>
      <point x="1471.1428571428573" y="571.0238095238095" type="line"/>
      <point x="1038.142857142857" y="571.0238095238095" type="line"/>
      <point x="1042.7857142857142" y="396.4761904761905" type="line"/>
      <point x="1008.7619047619047" y="395.11904761904765" type="line"/>
    </contour>
  </outline>
</glyph>
<glyph name="e-tamil" format="2">
  <advance width="799.0952380952381"/>
  <unicode hex="0B8E"/>
  <note>
uni0B8E
</note>
  <anchor x="418.5" y="0.0" name="bottom"/>
  <anchor x="418.5" y="0.0" name="nukta"/>
  <anchor x="420.9523809523809" y="571.0238095238095" name="top"/>
  <anchor x="421.5" y="571.0238095238095" name="vedic"/>
  <outline>
    <contour>
      <point x="238.1190476190476" y="-5.0" type="curve" smooth="yes"/>
      <point x="341.40476190476187" y="-5.0"/>
      <point x="411.33333333333326" y="61.095238095238095"/>
      <point x="411.33333333333326" y="170.02380952380952" type="curve" smooth="yes"/>
      <point x="411.33333333333326" y="262.0238095238095"/>
      <point x="359.7857142857143" y="333.4047619047619"/>
      <point x="269.40476190476187" y="333.4047619047619" type="curve" smooth="yes"/>
      <point x="166.57142857142856" y="333.4047619047619"/>
      <point x="112.92857142857142" y="235.11904761904762"/>
      <point x="109.38095238095237" y="117.0" type="curve"/>
      <point x="149.11904761904762" y="90.45238095238096" type="line"/>
      <point x="152.21428571428572" y="176.7380952380952"/>
      <point x="174.47619047619045" y="235.0"/>
      <point x="216.83333333333337" y="235.0" type="curve" smooth="yes"/>
      <point x="248.0" y="235.0"/>
      <point x="267.0" y="201.83333333333334"/>
      <point x="267.0" y="156.83333333333334" type="curve" smooth="yes"/>
      <point x="267.0" y="102.83333333333334"/>
      <point x="249.0" y="70.66666666666666"/>
      <point x="208.28571428571428" y="70.66666666666666" type="curve" smooth="yes"/>
      <point x="156.47619047619048" y="70.66666666666666"/>
      <point x="110.83333333333333" y="142.3095238095238"/>
      <point x="110.83333333333333" y="258.2857142857143" type="curve" smooth="yes"/>
      <point x="110.83333333333333" y="418.0952380952381"/>
      <point x="194.02380952380952" y="507.1904761904762"/>
      <point x="368.8809523809524" y="507.1904761904762" type="curve" smooth="yes"/>
      <point x="521.5952380952381" y="507.1904761904762" type="line"/>
      <point x="521.5952380952381" y="0.0" type="line"/>
      <point x="683.6666666666666" y="0.0" type="line"/>
      <point x="683.6666666666666" y="507.1904761904762" type="line"/>
      <point x="782.7380952380952" y="507.1904761904762" type="line"/>
      <point x="782.7380952380952" y="571.0238095238095" type="line"/>
      <point x="355.1428571428571" y="571.0238095238095" type="line" smooth="yes"/>
      <point x="152.1904761904762" y="571.0238095238095"/>
      <point x="42.45238095238095" y="453.64285714285717"/>
      <point x="42.45238095238095" y="259.73809523809524" type="curve" smooth="yes"/>
      <point x="42.45238095238095" y="103.11904761904762"/>
      <point x="118.0952380952381" y="-5.0"/>
    </contour>
  </outline>
</glyph>
<glyph name="ee-tamil" format="2">
  <advance width="799.0952380952381"/>
  <unicode hex="0B8F"/>
  <note>
uni0B8F
</note>
  <anchor x="418.5" y="0.0" name="bottom"/>
  <anchor x="418.5" y="-176.88095238095238" name="nukta"/>
  <anchor x="422.04761904761904" y="571.0238095238095" name="top"/>
  <anchor x="421.5" y="571.0238095238095" name="vedic"/>
  <outline>
    <contour>
      <point x="435.23809523809524" y="-228.2142857142857" type="line"/>
      <point x="683.6666666666666" y="52.85714285714286" type="line"/>
      <point x="683.6666666666666" y="507.1904761904762" type="line"/>
      <point x="782.7380952380952" y="507.1904761904762" type="line"/>
      <point x="782.7380952380952" y="571.0238095238095" type="line"/>
      <point x="355.1428571428571" y="571.0238095238095" type="line" smooth="yes"/>
      <point x="152.1904761904762" y="571.0238095238095"/>
      <point x="42.45238095238095" y="453.64285714285717"/>
      <point x="42.45238095238095" y="259.73809523809524" type="curve" smooth="yes"/>
      <point x="42.45238095238095" y="103.11904761904762"/>
      <point x="118.0952380952381" y="-5.0"/>
      <point x="238.1190476190476" y="-5.0" type="curve" smooth="yes"/>
      <point x="341.40476190476187" y="-5.0"/>
      <point x="411.33333333333326" y="61.095238095238095"/>
      <point x="411.33333333333326" y="170.02380952380952" type="curve" smooth="yes"/>
      <point x="411.33333333333326" y="262.0238095238095"/>
      <point x="359.7857142857143" y="333.4047619047619"/>
      <point x="269.40476190476187" y="333.4047619047619" type="curve" smooth="yes"/>
      <point x="166.57142857142856" y="333.4047619047619"/>
      <point x="112.92857142857142" y="235.11904761904762"/>
      <point x="109.38095238095237" y="117.0" type="curve"/>
      <point x="149.11904761904762" y="90.45238095238095" type="line"/>
      <point x="152.21428571428572" y="176.73809523809527"/>
      <point x="176.47619047619048" y="235.0"/>
      <point x="218.3809523809524" y="235.0" type="curve" smooth="yes"/>
      <point x="249.54761904761907" y="235.0"/>
      <point x="267.0" y="201.83333333333331"/>
      <point x="267.0" y="156.83333333333334" type="curve" smooth="yes"/>
      <point x="267.0" y="102.83333333333334"/>
      <point x="249.54761904761904" y="70.66666666666666"/>
      <point x="209.28571428571428" y="70.66666666666666" type="curve" smooth="yes"/>
      <point x="159.57142857142858" y="70.66666666666666"/>
      <point x="111.83333333333333" y="142.3095238095238"/>
      <point x="111.83333333333333" y="258.2857142857143" type="curve" smooth="yes"/>
      <point x="111.83333333333333" y="418.0952380952381"/>
      <point x="194.02380952380952" y="507.1904761904762"/>
      <point x="368.8809523809524" y="507.1904761904762" type="curve" smooth="yes"/>
      <point x="521.5952380952381" y="507.1904761904762" type="line"/>
      <point x="521.5952380952381" y="-22.214285714285715" type="line"/>
      <point x="384.04761904761904" y="-183.92857142857142" type="line"/>
    </contour>
  </outline>
</glyph>
<glyph name="ai-tamil" format="2">
  <advance width="834.8095238095237"/>
  <unicode hex="0B90"/>
  <note>
uni0B90
</note>
  <anchor x="414.76190476190476" y="0.0" name="bottom"/>
  <anchor x="413.85714285714283" y="-323.30952380952385" name="nukta"/>
  <anchor x="430.02380952380946" y="571.0238095238095" name="top"/>
  <anchor x="427.4761904761904" y="571.0238095238095" name="vedic"/>
  <outline>
    <contour>
      <point x="241.83333333333337" y="-323.30952380952385" type="curve" smooth="yes"/>
      <point x="343.3095238095238" y="-323.30952380952385"/>
      <point x="406.76190476190476" y="-273.11904761904765"/>
      <point x="430.40476190476204" y="-197.02380952380952" type="curve"/>
      <point x="450.5952380952382" y="-269.1190476190476"/>
      <point x="508.2380952380953" y="-323.30952380952385"/>
      <point x="599.2380952380953" y="-323.30952380952385" type="curve" smooth="yes"/>
      <point x="710.0714285714286" y="-323.30952380952385"/>
      <point x="792.3571428571428" y="-258.7619047619047"/>
      <point x="792.3571428571428" y="-116.57142857142856" type="curve" smooth="yes"/>
      <point x="792.3571428571428" y="-47.38095238095238"/>
      <point x="768.7142857142858" y="10.357142857142856"/>
      <point x="736.1666666666667" y="67.26190476190477" type="curve"/>
      <point x="676.8809523809523" y="34.07142857142857" type="line"/>
      <point x="704.9761904761905" y="-16.02380952380953"/>
      <point x="723.9761904761904" y="-62.47619047619048"/>
      <point x="723.9761904761904" y="-111.57142857142858" type="curve" smooth="yes"/>
      <point x="723.9761904761904" y="-210.11904761904762"/>
      <point x="674.3333333333334" y="-253.0238095238095"/>
      <point x="602.3333333333334" y="-253.0238095238095" type="curve" smooth="yes"/>
      <point x="534.4285714285713" y="-253.0238095238095"/>
      <point x="489.1428571428571" y="-199.8571428571429"/>
      <point x="489.1428571428571" y="-105.4047619047619" type="curve" smooth="yes"/>
      <point x="489.1428571428571" y="-27.07142857142857" type="line"/>
      <point x="367.4761904761905" y="-27.07142857142857" type="line"/>
      <point x="367.4761904761905" y="-117.85714285714288" type="line" smooth="yes"/>
      <point x="367.4761904761905" y="-206.02380952380955"/>
      <point x="335.6666666666667" y="-253.38095238095238"/>
      <point x="275.3095238095238" y="-253.38095238095238" type="curve" smooth="yes"/>
      <point x="215.3095238095238" y="-253.38095238095238"/>
      <point x="188.69047619047615" y="-205.73809523809524"/>
      <point x="188.69047619047615" y="-123.19047619047619" type="curve" smooth="yes"/>
      <point x="188.69047619047615" y="10.333333333333332"/>
      <point x="233.71428571428572" y="51.07142857142858"/>
      <point x="443.85714285714295" y="76.45238095238095" type="curve" smooth="yes"/>
      <point x="663.2857142857143" y="103.38095238095238"/>
      <point x="791.904761904762" y="155.57142857142858"/>
      <point x="791.904761904762" y="352.38095238095235" type="curve" smooth="yes"/>
      <point x="791.904761904762" y="500.35714285714283"/>
      <point x="712.8095238095237" y="576.5714285714286"/>
      <point x="596.2380952380953" y="576.5714285714286" type="curve" smooth="yes"/>
      <point x="523.7857142857142" y="576.5714285714286"/>
      <point x="453.30952380952385" y="544.1190476190476"/>
      <point x="429.3095238095238" y="465.11904761904765" type="curve"/>
      <point x="401.6666666666667" y="541.0238095238095"/>
      <point x="340.8571428571429" y="576.5714285714286"/>
      <point x="253.57142857142858" y="576.5714285714286" type="curve" smooth="yes"/>
      <point x="130.1904761904762" y="576.5714285714286"/>
      <point x="48.0" y="484.28571428571433"/>
      <point x="48.0" y="346.9047619047619" type="curve" smooth="yes"/>
      <point x="48.0" y="233.35714285714286"/>
      <point x="108.19047619047619" y="153.45238095238096"/>
      <point x="195.38095238095238" y="153.45238095238096" type="curve" smooth="yes"/>
      <point x="264.4761904761905" y="153.45238095238096"/>
      <point x="318.1190476190476" y="199.35714285714286"/>
      <point x="318.1190476190476" y="283.73809523809524" type="curve" smooth="yes"/>
      <point x="318.1190476190476" y="362.54761904761904"/>
      <point x="276.0238095238095" y="410.4523809523809"/>
      <point x="215.02380952380952" y="410.4523809523809" type="curve" smooth="yes"/>
      <point x="150.19047619047618" y="410.4523809523809"/>
      <point x="102.64285714285714" y="363.5238095238095"/>
      <point x="96.19047619047618" y="236.2380952380952" type="curve"/>
      <point x="126.47619047619047" y="216.80952380952382" type="line"/>
      <point x="130.47619047619048" y="312.7142857142857"/>
      <point x="155.83333333333334" y="339.26190476190476"/>
      <point x="181.1904761904762" y="339.26190476190476" type="curve" smooth="yes"/>
      <point x="206.09523809523805" y="339.26190476190476"/>
      <point x="218.547619047619" y="316.3571428571429"/>
      <point x="218.547619047619" y="282.095238095238" type="curve" smooth="yes"/>
      <point x="218.547619047619" y="245.73809523809524"/>
      <point x="204.6428571428572" y="222.38095238095238"/>
      <point x="177.19047619047618" y="222.38095238095238" type="curve" smooth="yes"/>
      <point x="140.19047619047618" y="222.38095238095238"/>
      <point x="114.28571428571428" y="264.6666666666667"/>
      <point x="114.28571428571428" y="345.54761904761904" type="curve" smooth="yes"/>
      <point x="114.28571428571428" y="449.0"/>
      <point x="172.92857142857142" y="508.09523809523813"/>
      <point x="249.66666666666666" y="508.09523809523813" type="curve" smooth="yes"/>
      <point x="324.6666666666667" y="508.09523809523813"/>
      <point x="367.4761904761905" y="469.83333333333337"/>
      <point x="367.4761904761905" y="380.59523809523813" type="curve" smooth="yes"/>
      <point x="367.4761904761905" y="209.35714285714283" type="line"/>
      <point x="489.1428571428571" y="209.35714285714283" type="line"/>
      <point x="489.1428571428571" y="395.76190476190476" type="line" smooth="yes"/>
      <point x="489.1428571428571" y="468.4761904761905"/>
      <point x="517.5952380952381" y="506.54761904761904"/>
      <point x="566.952380952381" y="506.54761904761904" type="curve" smooth="yes"/>
      <point x="617.6666666666667" y="506.54761904761904"/>
      <point x="645.6666666666667" y="457.3809523809524"/>
      <point x="645.6666666666667" y="364.9285714285714" type="curve" smooth="yes"/>
      <point x="645.6666666666667" y="204.57142857142858"/>
      <point x="598.8095238095239" y="150.57142857142858"/>
      <point x="358.92857142857144" y="120.0952380952381" type="curve" smooth="yes"/>
      <point x="208.85714285714283" y="101.45238095238095"/>
      <point x="42.45238095238095" y="58.357142857142854"/>
      <point x="42.45238095238095" y="-118.92857142857143" type="curve" smooth="yes"/>
      <point x="42.45238095238095" y="-251.30952380952385"/>
      <point x="117.35714285714283" y="-323.30952380952385"/>
    </contour>
  </outline>
</glyph>
<glyph name="o-tamil" format="2">
  <advance width="897.5952380952382"/>
  <unicode hex="0B92"/>
  <note>
uni0B92
</note>
  <anchor x="450.5238095238095" y="0.0" name="bottom"/>
  <anchor x="448.5238095238095" y="-335.0" name="nukta"/>
  <anchor x="443.5238095238095" y="571.0238095238095" name="top"/>
  <anchor x="443.5238095238095" y="571.0238095238095" name="vedic"/>
  <outline>
    <contour>
      <point x="321.7619047619048" y="-318.2142857142857" type="curve" smooth="yes"/>
      <point x="509.7142857142858" y="-318.2142857142857"/>
      <point x="552.0952380952381" y="-130.35714285714283"/>
      <point x="683.1904761904763" y="-130.35714285714283" type="curve" smooth="yes"/>
      <point x="734.5714285714287" y="-130.35714285714283" type="line"/>
      <point x="734.5714285714287" y="-67.07142857142857" type="line"/>
      <point x="663.452380952381" y="-67.07142857142857" type="line" smooth="yes"/>
      <point x="525.6190476190476" y="-67.07142857142857"/>
      <point x="456.0714285714286" y="36.83333333333334"/>
      <point x="533.0714285714284" y="213.30952380952382" type="curve"/>
      <point x="539.0714285714286" y="210.30952380952382" type="line"/>
      <point x="518.6190476190477" y="91.4761904761905"/>
      <point x="553.9047619047619" y="-3.4523809523809526"/>
      <point x="682.0238095238095" y="-3.4523809523809526" type="curve" smooth="yes"/>
      <point x="778.3095238095239" y="-3.4523809523809526"/>
      <point x="855.1428571428572" y="64.90476190476191"/>
      <point x="855.1428571428572" y="198.1904761904762" type="curve" smooth="yes"/>
      <point x="855.1428571428572" y="443.11904761904765"/>
      <point x="662.6428571428571" y="576.5714285714286"/>
      <point x="421.33333333333337" y="576.5714285714286" type="curve" smooth="yes"/>
      <point x="188.547619047619" y="576.5714285714286"/>
      <point x="42.45238095238095" y="418.54761904761904"/>
      <point x="42.45238095238095" y="247.19047619047623" type="curve" smooth="yes"/>
      <point x="42.45238095238095" y="97.21428571428572"/>
      <point x="118.0952380952381" y="-5.0"/>
      <point x="238.11904761904762" y="-5.0" type="curve" smooth="yes"/>
      <point x="341.4047619047619" y="-5.0"/>
      <point x="411.33333333333326" y="61.0952380952381"/>
      <point x="411.33333333333326" y="170.02380952380952" type="curve" smooth="yes"/>
      <point x="411.33333333333326" y="262.0238095238095"/>
      <point x="359.7857142857143" y="333.40476190476187"/>
      <point x="269.404761904762" y="333.40476190476187" type="curve" smooth="yes"/>
      <point x="166.57142857142858" y="333.40476190476187"/>
      <point x="112.92857142857143" y="235.11904761904762"/>
      <point x="109.38095238095237" y="117.00000000000001" type="curve"/>
      <point x="149.11904761904762" y="90.45238095238095" type="line"/>
      <point x="152.2142857142857" y="176.7380952380952"/>
      <point x="174.47619047619048" y="234.99999999999997"/>
      <point x="216.83333333333337" y="234.99999999999997" type="curve" smooth="yes"/>
      <point x="248.0" y="234.99999999999997"/>
      <point x="267.0" y="201.83333333333334"/>
      <point x="267.0" y="156.83333333333334" type="curve" smooth="yes"/>
      <point x="267.0" y="102.83333333333334"/>
      <point x="249.0" y="70.66666666666667"/>
      <point x="208.28571428571428" y="70.66666666666667" type="curve" smooth="yes"/>
      <point x="156.47619047619048" y="70.66666666666667"/>
      <point x="110.83333333333333" y="136.95238095238096"/>
      <point x="110.83333333333333" y="246.19047619047623" type="curve" smooth="yes"/>
      <point x="110.83333333333333" y="394.4523809523809"/>
      <point x="247.5714285714286" y="509.6428571428571"/>
      <point x="403.95238095238096" y="509.6428571428571" type="curve" smooth="yes"/>
      <point x="581.8809523809524" y="509.6428571428571"/>
      <point x="705.2619047619047" y="406.92857142857144"/>
      <point x="705.2619047619047" y="215.38095238095238" type="curve" smooth="yes"/>
      <point x="705.2619047619047" y="119.28571428571429"/>
      <point x="675.7142857142858" y="77.85714285714288"/>
      <point x="635.3571428571429" y="77.85714285714288" type="curve" smooth="yes"/>
      <point x="585.6428571428572" y="77.85714285714288"/>
      <point x="567.7142857142858" y="152.1904761904762"/>
      <point x="603.2619047619048" y="264.9285714285714" type="curve"/>
      <point x="522.3333333333333" y="302.2142857142857" type="line"/>
      <point x="396.16666666666674" y="82.5"/>
      <point x="437.04761904761915" y="-40.78571428571429"/>
      <point x="556.6190476190476" y="-92.16666666666666" type="curve"/>
      <point x="556.6190476190476" y="-97.16666666666666" type="line"/>
      <point x="434.1428571428571" y="-124.9047619047619"/>
      <point x="395.11904761904765" y="-244.4761904761905"/>
      <point x="295.02380952380946" y="-244.4761904761905" type="curve" smooth="yes"/>
      <point x="249.92857142857142" y="-244.4761904761905"/>
      <point x="217.92857142857144" y="-219.3809523809524"/>
      <point x="217.92857142857144" y="-173.3809523809524" type="curve" smooth="yes"/>
      <point x="217.92857142857144" y="-140.83333333333331"/>
      <point x="234.47619047619048" y="-117.73809523809526"/>
      <point x="261.0238095238095" y="-90.28571428571428" type="curve"/>
      <point x="218.92857142857142" y="-48.547619047619044" type="line"/>
      <point x="180.92857142857144" y="-87.54761904761905"/>
      <point x="155.1904761904762" y="-123.28571428571426"/>
      <point x="155.1904761904762" y="-172.38095238095238" type="curve" smooth="yes"/>
      <point x="155.1904761904762" y="-259.38095238095246"/>
      <point x="217.19047619047618" y="-318.2142857142857"/>
    </contour>
  </outline>
</glyph>
<glyph name="oo-tamil" format="2">
  <advance width="897.5952380952382"/>
  <unicode hex="0B93"/>
  <note>
uni0B93
</note>
  <anchor x="447.3571428571429" y="0.0" name="bottom"/>
  <anchor x="445.3571428571429" y="-297.66666666666674" name="nukta"/>
  <anchor x="440.3571428571429" y="571.0238095238095" name="top"/>
  <anchor x="440.3571428571429" y="571.0238095238095" name="vedic"/>
  <outline>
    <contour>
      <point x="301.85714285714295" y="-329.2142857142857" type="curve" smooth="yes"/>
      <point x="503.92857142857144" y="-329.2142857142857"/>
      <point x="552.0952380952381" y="-130.35714285714286"/>
      <point x="683.1904761904761" y="-130.35714285714286" type="curve" smooth="yes"/>
      <point x="733.2142857142858" y="-130.35714285714283" type="line"/>
      <point x="733.2142857142858" y="-67.07142857142857" type="line"/>
      <point x="663.4523809523811" y="-67.07142857142857" type="line" smooth="yes"/>
      <point x="525.6190476190477" y="-67.07142857142857"/>
      <point x="456.07142857142867" y="36.83333333333333"/>
      <point x="533.0714285714286" y="213.30952380952382" type="curve"/>
      <point x="539.0714285714286" y="210.30952380952382" type="line"/>
      <point x="518.6190476190477" y="91.47619047619048"/>
      <point x="553.9047619047619" y="-3.4523809523809517"/>
      <point x="682.0238095238095" y="-3.4523809523809517" type="curve" smooth="yes"/>
      <point x="778.3095238095239" y="-3.4523809523809517"/>
      <point x="855.1428571428572" y="64.90476190476193"/>
      <point x="855.1428571428572" y="198.1904761904762" type="curve" smooth="yes"/>
      <point x="855.1428571428572" y="443.11904761904765"/>
      <point x="662.6428571428571" y="576.5714285714286"/>
      <point x="421.33333333333337" y="576.5714285714286" type="curve" smooth="yes"/>
      <point x="188.547619047619" y="576.5714285714286"/>
      <point x="42.45238095238095" y="418.5476190476191"/>
      <point x="42.45238095238095" y="247.1904761904762" type="curve" smooth="yes"/>
      <point x="42.45238095238095" y="97.21428571428572"/>
      <point x="118.0952380952381" y="-5.0"/>
      <point x="238.11904761904762" y="-5.0" type="curve" smooth="yes"/>
      <point x="341.4047619047619" y="-5.0"/>
      <point x="411.33333333333326" y="61.09523809523811"/>
      <point x="411.33333333333326" y="170.02380952380952" type="curve" smooth="yes"/>
      <point x="411.33333333333326" y="262.0238095238096"/>
      <point x="359.7857142857143" y="333.4047619047619"/>
      <point x="269.404761904762" y="333.4047619047619" type="curve" smooth="yes"/>
      <point x="166.57142857142858" y="333.4047619047619"/>
      <point x="112.92857142857143" y="235.11904761904762"/>
      <point x="109.38095238095237" y="117.0" type="curve"/>
      <point x="149.11904761904762" y="90.45238095238096" type="line"/>
      <point x="152.2142857142857" y="176.7380952380952"/>
      <point x="174.47619047619048" y="235.0"/>
      <point x="216.83333333333337" y="235.0" type="curve" smooth="yes"/>
      <point x="248.0" y="235.0"/>
      <point x="267.0" y="201.83333333333334"/>
      <point x="267.0" y="156.83333333333334" type="curve" smooth="yes"/>
      <point x="267.0" y="102.83333333333334"/>
      <point x="249.0" y="70.66666666666666"/>
      <point x="208.28571428571428" y="70.66666666666666" type="curve" smooth="yes"/>
      <point x="156.47619047619048" y="70.66666666666666"/>
      <point x="110.83333333333333" y="136.95238095238096"/>
      <point x="110.83333333333333" y="246.1904761904762" type="curve" smooth="yes"/>
      <point x="110.83333333333333" y="394.45238095238096"/>
      <point x="247.5714285714286" y="509.64285714285717"/>
      <point x="403.95238095238096" y="509.64285714285717" type="curve" smooth="yes"/>
      <point x="581.8809523809524" y="509.64285714285717"/>
      <point x="705.2619047619047" y="406.92857142857144"/>
      <point x="705.2619047619047" y="215.38095238095238" type="curve" smooth="yes"/>
      <point x="705.2619047619047" y="119.28571428571429"/>
      <point x="675.7142857142858" y="77.85714285714286"/>
      <point x="635.3571428571429" y="77.85714285714286" type="curve" smooth="yes"/>
      <point x="585.6428571428572" y="77.85714285714286"/>
      <point x="567.7142857142858" y="152.19047619047618"/>
      <point x="603.2619047619047" y="264.92857142857144" type="curve"/>
      <point x="522.3333333333334" y="302.2142857142857" type="line"/>
      <point x="395.7142857142857" y="82.50000000000001"/>
      <point x="437.04761904761904" y="-40.78571428571429"/>
      <point x="556.6190476190477" y="-92.16666666666666" type="curve"/>
      <point x="556.6190476190477" y="-97.16666666666666" type="line"/>
      <point x="434.14285714285717" y="-124.90476190476193"/>
      <point x="376.64285714285717" y="-257.9285714285714"/>
      <point x="271.4761904761905" y="-257.9285714285714" type="curve" smooth="yes"/>
      <point x="217.47619047619045" y="-257.9285714285714"/>
      <point x="185.1904761904762" y="-231.73809523809527"/>
      <point x="185.1904761904762" y="-187.19047619047615" type="curve" smooth="yes"/>
      <point x="185.1904761904762" y="-152.0952380952381"/>
      <point x="210.28571428571428" y="-125.00000000000001"/>
      <point x="241.38095238095235" y="-125.00000000000001" type="curve" smooth="yes"/>
      <point x="275.4761904761905" y="-125.00000000000001"/>
      <point x="298.0238095238096" y="-143.54761904761904"/>
      <point x="310.0238095238095" y="-186.83333333333331" type="curve"/>
      <point x="341.11904761904765" y="-173.83333333333337"/>
      <point x="362.2142857142857" y="-151.38095238095238"/>
      <point x="362.2142857142857" y="-119.64285714285715" type="curve" smooth="yes"/>
      <point x="362.2142857142857" y="-76.0"/>
      <point x="318.0238095238096" y="-47.904761904761905"/>
      <point x="261.8333333333333" y="-47.904761904761905" type="curve" smooth="yes"/>
      <point x="178.9047619047619" y="-47.904761904761905"/>
      <point x="125.0" y="-111.28571428571429"/>
      <point x="125.0" y="-184.2857142857143" type="curve" smooth="yes"/>
      <point x="125.0" y="-272.2142857142857"/>
      <point x="198.38095238095235" y="-329.2142857142857"/>
    </contour>
  </outline>
</glyph>
<glyph name="au-tamil" format="2">
  <advance width="1974.380952380952"/>
  <unicode hex="0B94"/>
  <note>
uni0B94
</note>
  <anchor x="1038.404761904762" y="0.0" name="bottom"/>
  <anchor x="1143.4047619047617" y="0.0" name="nukta"/>
  <anchor x="1032.4047619047617" y="571.0238095238095" name="top"/>
  <anchor x="1032.4047619047617" y="571.0238095238095" name="vedic"/>
  <outline>
    <contour>
      <point x="1113.9761904761906" y="-5.0" type="curve" smooth="yes"/>
      <point x="1216.2619047619048" y="-5.0"/>
      <point x="1287.1904761904761" y="61.095238095238095"/>
      <point x="1287.1904761904761" y="170.02380952380952" type="curve" smooth="yes"/>
      <point x="1287.1904761904761" y="262.0238095238095"/>
      <point x="1235.642857142857" y="333.4047619047619"/>
      <point x="1145.2619047619048" y="333.4047619047619" type="curve" smooth="yes"/>
      <point x="1042.4285714285718" y="333.4047619047619"/>
      <point x="988.7857142857143" y="235.11904761904762"/>
      <point x="985.2380952380952" y="117.0" type="curve"/>
      <point x="1024.5238095238096" y="90.45238095238095" type="line"/>
      <point x="1027.6190476190475" y="176.73809523809527"/>
      <point x="1050.3333333333335" y="235.0"/>
      <point x="1092.6904761904764" y="235.0" type="curve" smooth="yes"/>
      <point x="1122.857142857143" y="235.0"/>
      <point x="1142.4047619047622" y="201.83333333333331"/>
      <point x="1142.4047619047622" y="156.83333333333334" type="curve" smooth="yes"/>
      <point x="1142.4047619047622" y="102.83333333333334"/>
      <point x="1123.8571428571427" y="70.66666666666666"/>
      <point x="1084.1428571428573" y="70.66666666666666" type="curve" smooth="yes"/>
      <point x="1031.7857142857142" y="70.66666666666666"/>
      <point x="986.6904761904763" y="142.3095238095238"/>
      <point x="986.6904761904763" y="258.2857142857143" type="curve" smooth="yes"/>
      <point x="986.6904761904763" y="415.0"/>
      <point x="1074.7142857142858" y="501.9047619047619"/>
      <point x="1192.0714285714284" y="501.9047619047619" type="curve" smooth="yes"/>
      <point x="1317.5476190476193" y="501.9047619047619"/>
      <point x="1396.0" y="420.07142857142856"/>
      <point x="1396.0" y="285.19047619047615" type="curve"/>
      <point x="1460.7380952380952" y="298.4761904761905" type="line"/>
      <point x="1449.7380952380952" y="495.47619047619054"/>
      <point x="1321.6190476190477" y="576.0238095238095"/>
      <point x="1189.6190476190477" y="576.0238095238095" type="curve" smooth="yes"/>
      <point x="1025.1428571428569" y="576.0238095238095"/>
      <point x="918.3095238095239" y="448.8095238095238"/>
      <point x="918.3095238095239" y="259.73809523809524" type="curve" smooth="yes"/>
      <point x="918.3095238095239" y="103.11904761904762"/>
      <point x="993.5000000000001" y="-5.0"/>
    </contour>
    <contour>
      <point x="1396.0" y="0.0" type="line"/>
      <point x="1558.0714285714284" y="0.0" type="line"/>
      <point x="1558.0714285714284" y="507.1904761904762" type="line"/>
      <point x="1697.8809523809525" y="507.1904761904762" type="line"/>
      <point x="1697.8809523809525" y="0.0" type="line"/>
      <point x="1859.4999999999998" y="0.0" type="line"/>
      <point x="1859.4999999999998" y="507.1904761904762" type="line"/>
      <point x="1958.0238095238094" y="507.1904761904762" type="line"/>
      <point x="1958.0238095238094" y="571.0238095238095" type="line"/>
      <point x="1435.4761904761906" y="571.0238095238095" type="line"/>
      <point x="1435.4761904761906" y="344.76190476190476" type="line"/>
      <point x="1396.0" y="359.3333333333333" type="line"/>
    </contour>
    <component base="o-tamil"/>
  </outline>
</glyph>
<glyph name="ka-tamil" format="2">
  <advance width="739.0952380952382"/>
  <unicode hex="0B95"/>
  <note>
uni0B95
</note>
  <anchor x="366.95238095238096" y="0.0" name="bottom"/>
  <anchor x="522.0" y="571.0238095238095" name="imatra"/>
  <anchor x="366.95238095238096" y="0.0" name="nukta"/>
  <anchor x="392.04761904761904" y="571.0238095238095" name="top"/>
  <anchor x="383.3095238095238" y="571.0238095238095" name="vedic"/>
  <outline>
    <contour>
      <point x="238.11904761904762" y="-4.0" type="curve" smooth="yes"/>
      <point x="374.4047619047619" y="-4.0"/>
      <point x="462.5238095238095" y="65.45238095238095"/>
      <point x="462.5238095238095" y="202.5476190476191" type="curve" smooth="yes"/>
      <point x="462.5238095238095" y="270.73809523809524" type="line"/>
      <point x="479.7857142857143" y="270.73809523809524" type="line" smooth="yes"/>
      <point x="521.952380952381" y="270.73809523809524"/>
      <point x="543.3095238095237" y="232.0952380952381"/>
      <point x="543.3095238095237" y="161.73809523809524" type="curve" smooth="yes"/>
      <point x="543.3095238095237" y="96.54761904761905"/>
      <point x="513.1190476190476" y="60.28571428571429"/>
      <point x="475.3095238095238" y="60.28571428571429" type="curve" smooth="yes"/>
      <point x="461.5952380952381" y="60.28571428571429" type="line"/>
      <point x="461.5952380952381" y="-3.547619047619048" type="line"/>
      <point x="520.9761904761904" y="-3.547619047619048" type="line" smooth="yes"/>
      <point x="618.452380952381" y="-3.547619047619048"/>
      <point x="699.1904761904763" y="44.261904761904766"/>
      <point x="699.1904761904763" y="163.38095238095235" type="curve" smooth="yes"/>
      <point x="699.1904761904763" y="284.3095238095238"/>
      <point x="616.2619047619047" y="335.02380952380946"/>
      <point x="491.5238095238095" y="335.02380952380946" type="curve" smooth="yes"/>
      <point x="462.5238095238095" y="335.02380952380946" type="line"/>
      <point x="462.5238095238095" y="506.7380952380953" type="line"/>
      <point x="582.5238095238096" y="506.7380952380953" type="line"/>
      <point x="582.5238095238096" y="571.0238095238095" type="line"/>
      <point x="131.16666666666669" y="571.0238095238095" type="line"/>
      <point x="131.16666666666669" y="298.92857142857144" type="line"/>
      <point x="198.9047619047619" y="298.92857142857144" type="line"/>
      <point x="198.9047619047619" y="506.7380952380953" type="line"/>
      <point x="297.3571428571429" y="506.7380952380953" type="line"/>
      <point x="297.3571428571429" y="335.02380952380946" type="line"/>
      <point x="190.64285714285714" y="335.02380952380946" type="line" smooth="yes"/>
      <point x="114.28571428571426" y="335.02380952380946"/>
      <point x="41.904761904761905" y="270.38095238095235"/>
      <point x="41.904761904761905" y="174.3809523809524" type="curve" smooth="yes"/>
      <point x="41.904761904761905" y="70.19047619047619"/>
      <point x="105.54761904761905" y="-4.0"/>
    </contour>
    <contour>
      <point x="198.90476190476193" y="71.66666666666667" type="curve" smooth="yes"/>
      <point x="149.73809523809524" y="71.66666666666667"/>
      <point x="110.0952380952381" y="107.57142857142857"/>
      <point x="110.0952380952381" y="172.38095238095238" type="curve" smooth="yes"/>
      <point x="110.0952380952381" y="229.64285714285714"/>
      <point x="135.64285714285714" y="270.73809523809524"/>
      <point x="193.54761904761904" y="270.73809523809524" type="curve" smooth="yes"/>
      <point x="297.3571428571429" y="270.73809523809524" type="line"/>
      <point x="297.3571428571429" y="190.547619047619" type="line" smooth="yes"/>
      <point x="297.3571428571429" y="105.57142857142857"/>
      <point x="257.99999999999994" y="71.66666666666667"/>
    </contour>
  </outline>
</glyph>
<glyph name="nga-tamil" format="2">
  <advance width="863.642857142857"/>
  <unicode hex="0B99"/>
  <note>
uni0B99
</note>
  <anchor x="425.7619047619048" y="0.0" name="bottom"/>
  <anchor x="472.5952380952381" y="571.0238095238095" name="imatra"/>
  <anchor x="426.5952380952381" y="0.0" name="nukta"/>
  <anchor x="453.5238095238096" y="571.0238095238095" name="top"/>
  <anchor x="429.50000000000006" y="571.0238095238095" name="vedic"/>
  <outline>
    <contour>
      <point x="60.16666666666667" y="0.0" type="line"/>
      <point x="129.9047619047619" y="0.0" type="line"/>
      <point x="129.9047619047619" y="507.1904761904762" type="line"/>
      <point x="219.0714285714286" y="507.1904761904762" type="line"/>
      <point x="219.0714285714286" y="179.52380952380952" type="line"/>
      <point x="366.49999999999994" y="179.52380952380952" type="line"/>
      <point x="366.49999999999994" y="247.1904761904762" type="line" smooth="yes"/>
      <point x="366.49999999999994" y="274.1666666666667"/>
      <point x="377.21428571428567" y="293.42857142857144"/>
      <point x="398.4761904761904" y="293.42857142857144" type="curve" smooth="yes"/>
      <point x="422.2857142857143" y="293.42857142857144"/>
      <point x="435.5476190476191" y="271.16666666666663"/>
      <point x="435.5476190476191" y="218.73809523809524" type="curve" smooth="yes"/>
      <point x="435.5476190476191" y="127.40476190476191"/>
      <point x="387.7380952380953" y="64.28571428571429"/>
      <point x="316.4523809523809" y="64.28571428571429" type="curve" smooth="yes"/>
      <point x="219.0714285714286" y="64.28571428571429" type="line"/>
      <point x="219.0714285714286" y="0.0" type="line"/>
      <point x="803.9285714285713" y="0.0" type="line"/>
      <point x="803.9285714285713" y="571.0238095238095" type="line"/>
      <point x="641.3095238095237" y="571.0238095238095" type="line"/>
      <point x="641.3095238095237" y="64.28571428571429" type="line"/>
      <point x="452.2142857142857" y="64.28571428571429" type="line"/>
      <point x="530.5238095238095" y="89.47619047619048"/>
      <point x="584.4285714285714" y="153.7619047619048"/>
      <point x="584.4285714285714" y="246.11904761904762" type="curve" smooth="yes"/>
      <point x="584.4285714285714" y="340.11904761904765"/>
      <point x="542.4285714285716" y="393.9285714285714"/>
      <point x="469.7857142857142" y="393.9285714285714" type="curve" smooth="yes"/>
      <point x="418.7857142857142" y="393.9285714285714"/>
      <point x="390.2380952380952" y="364.0238095238095"/>
      <point x="372.04761904761904" y="333.2857142857143" type="curve"/>
      <point x="372.04761904761904" y="507.1904761904762" type="line"/>
      <point x="497.23809523809524" y="507.1904761904762" type="line"/>
      <point x="497.23809523809524" y="571.0238095238095" type="line"/>
      <point x="60.16666666666667" y="571.0238095238095" type="line"/>
    </contour>
  </outline>
</glyph>
<glyph name="ca-tamil" format="2">
  <advance width="622.6190476190475"/>
  <unicode hex="0B9A"/>
  <note>
uni0B9A
</note>
  <anchor x="311.9285714285714" y="0.0" name="bottom"/>
  <anchor x="473.7619047619048" y="571.0238095238095" name="imatra"/>
  <anchor x="304.2142857142858" y="0.0" name="nukta"/>
  <anchor x="365.02380952380946" y="571.0238095238095" name="top"/>
  <anchor x="363.9523809523809" y="571.0238095238095" name="vedic"/>
  <outline>
    <contour>
      <point x="238.11904761904762" y="-4.0" type="curve" smooth="yes"/>
      <point x="374.4047619047619" y="-4.0"/>
      <point x="461.5238095238095" y="65.45238095238093"/>
      <point x="461.5238095238095" y="202.54761904761907" type="curve" smooth="yes"/>
      <point x="461.5238095238095" y="270.73809523809524" type="line"/>
      <point x="582.5238095238095" y="270.73809523809524" type="line"/>
      <point x="582.5238095238095" y="335.02380952380946" type="line"/>
      <point x="461.5238095238095" y="335.02380952380946" type="line"/>
      <point x="461.5238095238095" y="506.7380952380953" type="line"/>
      <point x="582.5238095238095" y="506.7380952380953" type="line"/>
      <point x="582.5238095238095" y="571.0238095238095" type="line"/>
      <point x="131.16666666666669" y="571.0238095238095" type="line"/>
      <point x="131.16666666666669" y="298.92857142857144" type="line"/>
      <point x="198.9047619047619" y="298.92857142857144" type="line"/>
      <point x="198.9047619047619" y="506.7380952380953" type="line"/>
      <point x="298.9047619047619" y="506.7380952380953" type="line"/>
      <point x="298.9047619047619" y="335.02380952380946" type="line"/>
      <point x="190.64285714285714" y="335.02380952380946" type="line" smooth="yes"/>
      <point x="114.28571428571428" y="335.02380952380946"/>
      <point x="41.904761904761905" y="270.38095238095235"/>
      <point x="41.904761904761905" y="174.3809523809524" type="curve" smooth="yes"/>
      <point x="41.904761904761905" y="70.19047619047619"/>
      <point x="105.54761904761907" y="-4.0"/>
    </contour>
    <contour>
      <point x="198.90476190476193" y="71.66666666666667" type="curve" smooth="yes"/>
      <point x="149.7380952380952" y="71.66666666666667"/>
      <point x="110.0952380952381" y="107.57142857142858"/>
      <point x="110.0952380952381" y="172.38095238095238" type="curve" smooth="yes"/>
      <point x="110.0952380952381" y="229.64285714285714"/>
      <point x="135.64285714285714" y="270.73809523809524"/>
      <point x="193.54761904761907" y="270.73809523809524" type="curve" smooth="yes"/>
      <point x="298.9047619047619" y="270.73809523809524" type="line"/>
      <point x="298.9047619047619" y="190.547619047619" type="line" smooth="yes"/>
      <point x="298.9047619047619" y="105.57142857142857"/>
      <point x="257.99999999999994" y="71.66666666666667"/>
    </contour>
  </outline>
</glyph>
<glyph name="tta-tamil" format="2">
  <advance width="765.452380952381"/>
  <unicode hex="0B9F"/>
  <note>
uni0B9F
</note>
  <anchor x="390.3095238095238" y="0.0" name="bottom"/>
  <anchor x="390.3095238095238" y="0.0" name="nukta"/>
  <anchor x="400.4047619047619" y="571.0238095238095" name="top"/>
  <anchor x="406.4047619047618" y="571.0238095238095" name="vedic"/>
  <outline>
    <contour>
      <point x="60.16666666666667" y="0.0" type="line"/>
      <point x="753.5476190476192" y="0.0" type="line"/>
      <point x="753.5476190476192" y="64.28571428571429" type="line"/>
      <point x="222.23809523809524" y="64.28571428571429" type="line"/>
      <point x="222.23809523809524" y="571.0238095238095" type="line"/>
      <point x="60.16666666666667" y="571.0238095238095" type="line"/>
    </contour>
  </outline>
</glyph>
<glyph name="nna-tamil" format="2">
  <advance width="1529.5714285714287"/>
  <unicode hex="0BA3"/>
  <note>
uni0BA3
</note>
  <anchor x="789.2619047619047" y="0.0" name="bottom"/>
  <anchor x="1427.595238095238" y="571.0238095238095" name="imatra"/>
  <anchor x="788.8095238095239" y="0.0" name="nukta"/>
  <anchor x="780.3571428571429" y="571.0238095238095" name="top"/>
  <anchor x="781.0952380952382" y="571.0238095238095" name="vedic"/>
  <outline>
    <contour>
      <point x="613.8095238095239" y="-4.0" type="curve" smooth="yes"/>
      <point x="718.7380952380953" y="-4.0"/>
      <point x="782.8333333333333" y="70.83333333333334"/>
      <point x="782.8333333333333" y="193.83333333333334" type="curve" smooth="yes"/>
      <point x="782.8333333333333" y="414.9285714285715"/>
      <point x="625.8095238095239" y="576.5714285714286"/>
      <point x="375.95238095238096" y="576.5714285714286" type="curve" smooth="yes"/>
      <point x="172.99999999999997" y="576.5714285714286"/>
      <point x="42.45238095238095" y="443.16666666666663"/>
      <point x="42.45238095238095" y="259.73809523809524" type="curve" smooth="yes"/>
      <point x="42.45238095238095" y="103.11904761904762"/>
      <point x="117.64285714285714" y="-5.0"/>
      <point x="238.1190476190476" y="-5.0" type="curve" smooth="yes"/>
      <point x="340.95238095238096" y="-5.0"/>
      <point x="411.33333333333326" y="61.095238095238095"/>
      <point x="411.33333333333326" y="170.02380952380952" type="curve" smooth="yes"/>
      <point x="411.33333333333326" y="262.0238095238095"/>
      <point x="359.78571428571433" y="333.4047619047619"/>
      <point x="268.95238095238096" y="333.4047619047619" type="curve" smooth="yes"/>
      <point x="166.57142857142858" y="333.4047619047619"/>
      <point x="112.92857142857143" y="235.11904761904762"/>
      <point x="109.38095238095238" y="117.0" type="curve"/>
      <point x="149.11904761904765" y="90.45238095238095" type="line"/>
      <point x="152.2142857142857" y="176.73809523809527"/>
      <point x="174.47619047619048" y="235.0"/>
      <point x="216.38095238095238" y="235.0" type="curve" smooth="yes"/>
      <point x="247.99999999999997" y="235.0"/>
      <point x="266.54761904761904" y="201.83333333333331"/>
      <point x="266.54761904761904" y="156.83333333333334" type="curve" smooth="yes"/>
      <point x="266.54761904761904" y="102.83333333333334"/>
      <point x="248.54761904761907" y="70.66666666666666"/>
      <point x="208.28571428571428" y="70.66666666666666" type="curve" smooth="yes"/>
      <point x="156.02380952380952" y="70.66666666666666"/>
      <point x="110.83333333333333" y="142.3095238095238"/>
      <point x="110.83333333333333" y="258.2857142857143" type="curve" smooth="yes"/>
      <point x="110.83333333333333" y="415.90476190476187"/>
      <point x="230.21428571428572" y="508.09523809523813"/>
      <point x="357.6666666666667" y="508.09523809523813" type="curve" smooth="yes"/>
      <point x="541.4285714285713" y="508.09523809523813"/>
      <point x="640.6904761904761" y="369.4285714285715"/>
      <point x="640.6904761904761" y="180.90476190476193" type="curve" smooth="yes"/>
      <point x="640.6904761904761" y="108.47619047619048"/>
      <point x="622.3333333333334" y="72.21428571428572"/>
      <point x="584.4285714285713" y="72.21428571428572" type="curve" smooth="yes"/>
      <point x="550.5238095238095" y="72.21428571428572"/>
      <point x="528.0714285714287" y="109.57142857142858"/>
      <point x="528.0714285714287" y="184.54761904761904" type="curve" smooth="yes"/>
      <point x="528.0714285714287" y="358.4761904761905"/>
      <point x="604.7142857142857" y="508.09523809523813"/>
      <point x="775.9047619047618" y="508.09523809523813" type="curve" smooth="yes"/>
      <point x="942.7380952380952" y="508.09523809523813"/>
      <point x="1017.095238095238" y="364.90476190476187"/>
      <point x="1017.095238095238" y="180.90476190476193" type="curve" smooth="yes"/>
      <point x="1017.095238095238" y="108.47619047619047"/>
      <point x="997.7380952380954" y="72.21428571428572"/>
      <point x="960.2857142857143" y="72.21428571428572" type="curve" smooth="yes"/>
      <point x="925.9285714285713" y="72.21428571428572"/>
      <point x="904.0238095238096" y="109.57142857142857"/>
      <point x="904.0238095238096" y="184.54761904761904" type="curve" smooth="yes"/>
      <point x="904.0238095238096" y="364.35714285714283"/>
      <point x="1008.8571428571427" y="507.1904761904762"/>
      <point x="1200.0714285714287" y="507.1904761904762" type="curve" smooth="yes"/>
      <point x="1513.2142857142856" y="507.1904761904762" type="line"/>
      <point x="1513.2142857142856" y="571.0238095238095" type="line"/>
      <point x="1192.4285714285713" y="571.0238095238095" type="line" smooth="yes"/>
      <point x="951.8333333333333" y="571.0238095238095"/>
      <point x="837.190476190476" y="390.5238095238096"/>
      <point x="837.190476190476" y="191.19047619047618" type="curve" smooth="yes"/>
      <point x="837.190476190476" y="72.3809523809524"/>
      <point x="882.7380952380952" y="-3.9999999999999996"/>
      <point x="989.7619047619049" y="-3.9999999999999996" type="curve" smooth="yes"/>
      <point x="1094.1428571428573" y="-3.9999999999999996"/>
      <point x="1158.6904761904764" y="70.83333333333333"/>
      <point x="1158.6904761904764" y="193.83333333333334" type="curve" smooth="yes"/>
      <point x="1158.6904761904764" y="411.76190476190476"/>
      <point x="1023.0238095238095" y="576.5714285714286"/>
      <point x="794.6428571428571" y="576.5714285714286" type="curve" smooth="yes"/>
      <point x="575.0714285714287" y="576.5714285714286"/>
      <point x="461.3333333333333" y="384.64285714285717"/>
      <point x="461.3333333333333" y="191.1904761904762" type="curve" smooth="yes"/>
      <point x="461.3333333333333" y="72.38095238095237"/>
      <point x="507.33333333333337" y="-4.0"/>
    </contour>
    <contour>
      <point x="1253.071428571429" y="0.0" type="line"/>
      <point x="1414.6904761904764" y="0.0" type="line"/>
      <point x="1414.6904761904764" y="539.2857142857142" type="line"/>
      <point x="1253.071428571429" y="539.2857142857142" type="line"/>
    </contour>
  </outline>
</glyph>
<glyph name="na-tamil" format="2">
  <advance width="708.2857142857142"/>
  <unicode hex="0BA8"/>
  <note>
uni0BA8
</note>
  <anchor x="333.952380952381" y="0.0" name="bottom"/>
  <anchor x="453.76190476190465" y="571.0238095238095" name="imatra"/>
  <anchor x="377.59523809523813" y="-211.95238095238096" name="nukta"/>
  <anchor x="333.85714285714283" y="571.0238095238095" name="top"/>
  <anchor x="356.14285714285717" y="571.0238095238095" name="vedic"/>
  <outline>
    <contour>
      <point x="172.21428571428572" y="-284.595238095238" type="curve"/>
      <point x="172.21428571428572" y="-189.28571428571428"/>
      <point x="192.85714285714283" y="-131.26190476190473"/>
      <point x="293.42857142857144" y="-131.26190476190473" type="curve" smooth="yes"/>
      <point x="411.57142857142856" y="-131.26190476190473" type="line" smooth="yes"/>
      <point x="551.1904761904761" y="-131.26190476190473"/>
      <point x="665.9285714285714" y="-54.80952380952381"/>
      <point x="665.9285714285714" y="143.0" type="curve" smooth="yes"/>
      <point x="665.9285714285714" y="281.1904761904762"/>
      <point x="600.0952380952381" y="352.73809523809524"/>
      <point x="512.3571428571428" y="352.73809523809524" type="curve" smooth="yes"/>
      <point x="451.16666666666674" y="352.73809523809524"/>
      <point x="415.9761904761905" y="318.1904761904762"/>
      <point x="390.69047619047626" y="278.1666666666667" type="curve"/>
      <point x="390.69047619047626" y="507.1904761904762" type="line"/>
      <point x="525.9047619047619" y="507.1904761904762" type="line"/>
      <point x="525.9047619047619" y="571.0238095238095" type="line"/>
      <point x="60.16666666666667" y="571.0238095238095" type="line"/>
      <point x="60.16666666666667" y="0.0" type="line"/>
      <point x="128.45238095238096" y="0.0" type="line"/>
      <point x="128.45238095238096" y="507.1904761904762" type="line"/>
      <point x="228.0714285714286" y="507.1904761904762" type="line"/>
      <point x="228.0714285714286" y="0.0" type="line"/>
      <point x="390.69047619047626" y="0.0" type="line"/>
      <point x="390.69047619047626" y="176.23809523809524" type="line" smooth="yes"/>
      <point x="390.69047619047626" y="224.97619047619048"/>
      <point x="413.2380952380953" y="252.23809523809527"/>
      <point x="448.6904761904762" y="252.23809523809527" type="curve" smooth="yes"/>
      <point x="493.78571428571433" y="252.23809523809527"/>
      <point x="517.6904761904761" y="210.69047619047623"/>
      <point x="517.6904761904761" y="131.0" type="curve" smooth="yes"/>
      <point x="517.6904761904761" y="-12.976190476190474"/>
      <point x="460.5" y="-75.97619047619048"/>
      <point x="347.8809523809524" y="-75.97619047619048" type="curve" smooth="yes"/>
      <point x="240.50000000000003" y="-75.97619047619048" type="line" smooth="yes"/>
      <point x="138.83333333333331" y="-75.97619047619048"/>
      <point x="50.26190476190476" y="-95.61904761904762"/>
      <point x="50.26190476190476" y="-188.28571428571428" type="curve" smooth="yes"/>
      <point x="50.26190476190476" y="-253.85714285714283"/>
      <point x="99.19047619047619" y="-284.595238095238"/>
    </contour>
  </outline>
</glyph>
<glyph name="nnna-tamil" format="2">
  <advance width="1157.333333333333"/>
  <unicode hex="0BA9"/>
  <note>
uni0BA9
</note>
  <anchor x="560.4285714285714" y="0.0" name="bottom"/>
  <anchor x="1017.0476190476189" y="571.0238095238095" name="imatra"/>
  <anchor x="562.4285714285714" y="0.0" name="nukta"/>
  <anchor x="605.9047619047619" y="571.0238095238095" name="top"/>
  <anchor x="595.7142857142858" y="571.0238095238095" name="vedic"/>
  <outline>
    <contour>
      <point x="238.1190476190476" y="-5.0" type="curve" smooth="yes"/>
      <point x="340.95238095238096" y="-5.0"/>
      <point x="411.33333333333326" y="61.095238095238095"/>
      <point x="411.33333333333326" y="170.02380952380952" type="curve" smooth="yes"/>
      <point x="411.33333333333326" y="262.0238095238095"/>
      <point x="359.78571428571433" y="333.4047619047619"/>
      <point x="268.95238095238096" y="333.4047619047619" type="curve" smooth="yes"/>
      <point x="166.57142857142856" y="333.4047619047619"/>
      <point x="112.9285714285714" y="235.11904761904762"/>
      <point x="109.38095238095238" y="117.0" type="curve"/>
      <point x="149.11904761904765" y="90.45238095238095" type="line"/>
      <point x="152.2142857142857" y="176.73809523809527"/>
      <point x="174.47619047619048" y="235.0"/>
      <point x="216.38095238095238" y="235.0" type="curve" smooth="yes"/>
      <point x="247.99999999999997" y="235.0"/>
      <point x="266.54761904761904" y="201.83333333333331"/>
      <point x="266.54761904761904" y="156.83333333333334" type="curve" smooth="yes"/>
      <point x="266.54761904761904" y="102.83333333333334"/>
      <point x="248.54761904761907" y="70.66666666666666"/>
      <point x="208.28571428571428" y="70.66666666666666" type="curve" smooth="yes"/>
      <point x="156.02380952380952" y="70.66666666666666"/>
      <point x="110.83333333333333" y="142.3095238095238"/>
      <point x="110.83333333333333" y="258.2857142857143" type="curve" smooth="yes"/>
      <point x="110.83333333333333" y="415.90476190476187"/>
      <point x="230.76190476190476" y="508.09523809523813"/>
      <point x="357.66666666666663" y="508.09523809523813" type="curve" smooth="yes"/>
      <point x="541.4285714285714" y="508.09523809523813"/>
      <point x="640.6904761904763" y="369.4285714285715"/>
      <point x="640.6904761904763" y="180.90476190476187" type="curve" smooth="yes"/>
      <point x="640.6904761904763" y="108.47619047619048"/>
      <point x="621.8809523809523" y="72.21428571428572"/>
      <point x="583.9761904761905" y="72.21428571428572" type="curve" smooth="yes"/>
      <point x="550.0714285714284" y="72.21428571428572"/>
      <point x="528.0714285714286" y="109.57142857142856"/>
      <point x="528.0714285714286" y="184.54761904761904" type="curve" smooth="yes"/>
      <point x="528.0714285714286" y="364.3571428571429"/>
      <point x="631.547619047619" y="507.1904761904762"/>
      <point x="823.7619047619048" y="507.1904761904762" type="curve" smooth="yes"/>
      <point x="1140.9761904761904" y="507.1904761904762" type="line"/>
      <point x="1140.9761904761904" y="571.0238095238095" type="line"/>
      <point x="816.4761904761906" y="571.0238095238095" type="line" smooth="yes"/>
      <point x="575.9761904761904" y="571.0238095238095"/>
      <point x="461.3333333333335" y="390.5238095238096"/>
      <point x="461.3333333333335" y="191.1904761904762" type="curve" smooth="yes"/>
      <point x="461.3333333333335" y="72.38095238095238"/>
      <point x="506.88095238095235" y="-4.0"/>
      <point x="613.3571428571428" y="-4.0" type="curve" smooth="yes"/>
      <point x="717.8333333333333" y="-4.0"/>
      <point x="782.8333333333334" y="70.83333333333334"/>
      <point x="782.8333333333334" y="193.83333333333334" type="curve" smooth="yes"/>
      <point x="782.8333333333334" y="416.28571428571433"/>
      <point x="625.8095238095239" y="576.5714285714286"/>
      <point x="375.95238095238096" y="576.5714285714286" type="curve" smooth="yes"/>
      <point x="172.99999999999997" y="576.5714285714286"/>
      <point x="42.45238095238095" y="443.1666666666667"/>
      <point x="42.45238095238095" y="259.73809523809524" type="curve" smooth="yes"/>
      <point x="42.45238095238095" y="103.1190476190476"/>
      <point x="117.64285714285712" y="-5.0"/>
    </contour>
    <contour>
      <point x="880.2857142857143" y="0.0" type="line"/>
      <point x="1042.452380952381" y="0.0" type="line"/>
      <point x="1042.452380952381" y="539.2857142857142" type="line"/>
      <point x="880.2857142857143" y="539.2857142857142" type="line"/>
    </contour>
  </outline>
</glyph>
<glyph name="pa-tamil" format="2">
  <advance width="759.8095238095237"/>
  <unicode hex="0BAA"/>
  <note>
uni0BAA
</note>
  <anchor x="384.4047619047619" y="0.0" name="bottom"/>
  <anchor x="692.0952380952382" y="571.0238095238095" name="imatra"/>
  <anchor x="384.4047619047619" y="0.0" name="nukta"/>
  <anchor x="386.5" y="571.0238095238095" name="top"/>
  <anchor x="379.30952380952374" y="571.0238095238095" name="vedic"/>
  <outline>
    <contour>
      <point x="60.16666666666667" y="0.0" type="line"/>
      <point x="700.0952380952381" y="0.0" type="line"/>
      <point x="700.0952380952381" y="571.0238095238095" type="line"/>
      <point x="539.5714285714287" y="571.0238095238095" type="line"/>
      <point x="539.5714285714287" y="64.28571428571429" type="line"/>
      <point x="222.23809523809524" y="64.28571428571429" type="line"/>
      <point x="222.23809523809524" y="571.0238095238095" type="line"/>
      <point x="60.16666666666667" y="571.0238095238095" type="line"/>
    </contour>
  </outline>
</glyph>
<glyph name="ya-tamil" format="2">
  <advance width="858.1190476190477"/>
  <unicode hex="0BAF"/>
  <note>
uni0BAF
</note>
  <anchor x="415.5" y="0.0" name="bottom"/>
  <anchor x="793.952380952381" y="571.0238095238095" name="imatra"/>
  <anchor x="412.30952380952374" y="0.0" name="nukta"/>
  <anchor x="433.50000000000006" y="571.0238095238095" name="top"/>
  <anchor x="430.23809523809524" y="571.0238095238095" name="vedic"/>
  <outline>
    <contour>
      <point x="197.19047619047615" y="-10.19047619047619" type="curve" smooth="yes"/>
      <point x="255.09523809523816" y="-10.19047619047619"/>
      <point x="293.28571428571433" y="16.428571428571427"/>
      <point x="322.76190476190476" y="60.54761904761904" type="curve"/>
      <point x="322.76190476190476" y="0.0" type="line"/>
      <point x="798.4047619047619" y="0.0" type="line"/>
      <point x="798.4047619047619" y="571.0238095238095" type="line"/>
      <point x="635.7857142857142" y="571.0238095238095" type="line"/>
      <point x="635.7857142857142" y="64.28571428571429" type="line"/>
      <point x="461.99999999999994" y="64.28571428571429" type="line"/>
      <point x="461.99999999999994" y="571.0238095238095" type="line"/>
      <point x="306.0238095238096" y="571.0238095238095" type="line"/>
      <point x="306.0238095238096" y="139.71428571428572" type="line" smooth="yes"/>
      <point x="306.0238095238096" y="95.73809523809524"/>
      <point x="284.1190476190476" y="73.02380952380953"/>
      <point x="258.85714285714283" y="73.02380952380953" type="curve" smooth="yes"/>
      <point x="230.95238095238096" y="73.02380952380953"/>
      <point x="216.69047619047615" y="87.73809523809523"/>
      <point x="216.69047619047615" y="140.54761904761907" type="curve" smooth="yes"/>
      <point x="216.69047619047615" y="571.0238095238095" type="line"/>
      <point x="55.61904761904762" y="571.0238095238095" type="line"/>
      <point x="55.61904761904762" y="156.28571428571428" type="line" smooth="yes"/>
      <point x="55.61904761904762" y="43.00000000000001"/>
      <point x="115.45238095238095" y="-10.19047619047619"/>
    </contour>
  </outline>
</glyph>
<glyph name="ra-tamil" format="2">
  <advance width="537.7619047619048"/>
  <unicode hex="0BB0"/>
  <note>
uni0BB0
</note>
  <anchor x="259.73809523809524" y="0.0" name="bottom"/>
  <anchor x="464.5952380952381" y="571.0238095238095" name="imatra"/>
  <anchor x="259.73809523809524" y="-239.6904761904762" name="nukta"/>
  <anchor x="277.8333333333333" y="571.0238095238095" name="top"/>
  <anchor x="288.2857142857143" y="571.0238095238095" name="vedic"/>
  <outline>
    <contour>
      <point x="174.90476190476195" y="-228.21428571428572" type="line"/>
      <point x="422.3333333333334" y="51.30952380952381" type="line"/>
      <point x="422.3333333333334" y="507.1904761904762" type="line"/>
      <point x="521.4047619047619" y="507.1904761904762" type="line"/>
      <point x="521.4047619047619" y="571.0238095238095" type="line"/>
      <point x="60.16666666666666" y="571.0238095238095" type="line"/>
      <point x="60.16666666666666" y="0.0" type="line"/>
      <point x="129.45238095238096" y="0.0" type="line"/>
      <point x="129.45238095238096" y="507.1904761904762" type="line"/>
      <point x="260.2619047619048" y="507.1904761904762" type="line"/>
      <point x="260.2619047619048" y="-24.761904761904763" type="line"/>
      <point x="123.71428571428574" y="-183.92857142857142" type="line"/>
    </contour>
  </outline>
</glyph>
<glyph name="rra-tamil" format="2">
  <advance width="795.3095238095239"/>
  <unicode hex="0BB1"/>
  <note>
uni0BB1
</note>
  <anchor x="407.5238095238095" y="0.0" name="bottom"/>
  <anchor x="475.14285714285717" y="-127.35714285714283" name="nukta"/>
  <anchor x="417.0952380952382" y="571.0238095238096" name="top"/>
  <anchor x="418.0714285714286" y="571.0238095238095" name="vedic"/>
  <outline>
    <contour>
      <point x="195.50000000000003" y="-283.9761904761904" type="curve"/>
      <point x="195.50000000000003" y="-196.4047619047619"/>
      <point x="211.49999999999997" y="-131.64285714285717"/>
      <point x="316.7142857142857" y="-131.64285714285717" type="curve" smooth="yes"/>
      <point x="438.0238095238095" y="-131.64285714285717" type="line" smooth="yes"/>
      <point x="601.4523809523808" y="-131.64285714285717"/>
      <point x="762.6904761904763" y="-35.73809523809524"/>
      <point x="762.6904761904763" y="242.9047619047619" type="curve" smooth="yes"/>
      <point x="762.6904761904763" y="463.4047619047619"/>
      <point x="666.8333333333334" y="576.5714285714286"/>
      <point x="521.0" y="576.5714285714286" type="curve" smooth="yes"/>
      <point x="437.80952380952385" y="576.5714285714286"/>
      <point x="375.6904761904762" y="541.6666666666666"/>
      <point x="353.5952380952381" y="475.8095238095238" type="curve"/>
      <point x="333.5" y="541.2142857142858"/>
      <point x="286.1190476190476" y="576.0238095238095"/>
      <point x="216.47619047619048" y="576.0238095238095" type="curve" smooth="yes"/>
      <point x="135.0952380952381" y="576.0238095238095"/>
      <point x="80.0" y="521.2857142857143"/>
      <point x="80.0" y="426.1904761904762" type="curve" smooth="yes"/>
      <point x="80.0" y="0.0" type="line"/>
      <point x="148.83333333333334" y="0.0" type="line"/>
      <point x="148.83333333333334" y="419.0" type="line" smooth="yes"/>
      <point x="148.83333333333334" y="478.54761904761904"/>
      <point x="168.28571428571428" y="505.0"/>
      <point x="206.73809523809524" y="505.0" type="curve" smooth="yes"/>
      <point x="250.28571428571428" y="505.0"/>
      <point x="267.73809523809524" y="473.5476190476191"/>
      <point x="267.73809523809524" y="416.64285714285717" type="curve" smooth="yes"/>
      <point x="267.73809523809524" y="0.0" type="line"/>
      <point x="435.45238095238096" y="0.0" type="line"/>
      <point x="435.45238095238096" y="406.9047619047619" type="line" smooth="yes"/>
      <point x="435.45238095238096" y="474.73809523809524"/>
      <point x="458.26190476190476" y="505.5476190476191"/>
      <point x="503.35714285714283" y="505.5476190476191" type="curve" smooth="yes"/>
      <point x="567.1666666666667" y="505.5476190476191"/>
      <point x="594.5238095238095" y="438.45238095238096"/>
      <point x="594.5238095238095" y="257.1904761904762" type="curve" smooth="yes"/>
      <point x="594.5238095238095" y="10.642857142857144"/>
      <point x="555.8333333333334" y="-75.00000000000001"/>
      <point x="393.61904761904765" y="-75.00000000000001" type="curve" smooth="yes"/>
      <point x="263.7857142857142" y="-75.00000000000001" type="line" smooth="yes"/>
      <point x="161.57142857142856" y="-75.00000000000001"/>
      <point x="73.0" y="-96.0952380952381"/>
      <point x="73.0" y="-189.7619047619048" type="curve" smooth="yes"/>
      <point x="73.0" y="-253.2380952380952"/>
      <point x="121.83333333333331" y="-283.9761904761904"/>
    </contour>
  </outline>
</glyph>
<glyph name="la-tamil" format="2">
  <advance width="910.3809523809525"/>
  <unicode hex="0BB2"/>
  <note>
uni0BB2
</note>
  <anchor x="448.04761904761904" y="0.0" name="bottom"/>
  <anchor x="445.95238095238096" y="0.0" name="nukta"/>
  <anchor x="456.6666666666667" y="571.0238095238095" name="top"/>
  <anchor x="450.59523809523813" y="571.0238095238095" name="vedic"/>
  <outline>
    <contour>
      <point x="238.11904761904762" y="-5.0" type="curve" smooth="yes"/>
      <point x="341.40476190476187" y="-5.0"/>
      <point x="411.33333333333326" y="61.095238095238095"/>
      <point x="411.33333333333326" y="170.02380952380952" type="curve" smooth="yes"/>
      <point x="411.33333333333326" y="262.0238095238095"/>
      <point x="359.7857142857143" y="333.4047619047619"/>
      <point x="269.40476190476187" y="333.4047619047619" type="curve" smooth="yes"/>
      <point x="166.57142857142858" y="333.4047619047619"/>
      <point x="112.92857142857142" y="235.11904761904762"/>
      <point x="109.38095238095238" y="117.0" type="curve"/>
      <point x="149.11904761904765" y="90.45238095238095" type="line"/>
      <point x="152.21428571428572" y="176.73809523809527"/>
      <point x="174.47619047619048" y="235.0"/>
      <point x="216.83333333333337" y="235.0" type="curve" smooth="yes"/>
      <point x="247.99999999999997" y="235.0"/>
      <point x="267.0" y="201.83333333333331"/>
      <point x="267.0" y="156.83333333333334" type="curve" smooth="yes"/>
      <point x="267.0" y="102.83333333333334"/>
      <point x="249.0" y="70.66666666666666"/>
      <point x="208.28571428571433" y="70.66666666666666" type="curve" smooth="yes"/>
      <point x="156.47619047619048" y="70.66666666666666"/>
      <point x="110.83333333333333" y="142.30952380952382"/>
      <point x="110.83333333333333" y="258.2857142857143" type="curve" smooth="yes"/>
      <point x="110.83333333333333" y="414.0952380952381"/>
      <point x="189.11904761904762" y="504.0"/>
      <point x="303.0238095238095" y="504.0" type="curve" smooth="yes"/>
      <point x="433.047619047619" y="504.0"/>
      <point x="479.59523809523813" y="415.3333333333333"/>
      <point x="480.0476190476191" y="290.595238095238" type="curve" smooth="yes"/>
      <point x="480.0476190476191" y="170.1904761904762" type="line" smooth="yes"/>
      <point x="480.0476190476191" y="59.83333333333333"/>
      <point x="526.404761904762" y="-3.6428571428571432"/>
      <point x="643.1666666666667" y="-3.6428571428571432" type="curve" smooth="yes"/>
      <point x="771.452380952381" y="-3.6428571428571432"/>
      <point x="863.8333333333334" y="100.71428571428574"/>
      <point x="863.8333333333334" y="298.5714285714286" type="curve" smooth="yes"/>
      <point x="863.8333333333334" y="402.9285714285714"/>
      <point x="834.190476190476" y="482.57142857142856"/>
      <point x="778.1904761904764" y="576.0238095238095" type="curve"/>
      <point x="718.9047619047619" y="542.2857142857143" type="line"/>
      <point x="767.4523809523811" y="459.73809523809524"/>
      <point x="795.547619047619" y="385.38095238095235"/>
      <point x="795.547619047619" y="293.6428571428572" type="curve" smooth="yes"/>
      <point x="795.547619047619" y="151.0952380952381"/>
      <point x="739.3571428571429" y="77.57142857142857"/>
      <point x="688.2857142857143" y="77.57142857142857" type="curve" smooth="yes"/>
      <point x="657.0238095238095" y="77.57142857142857"/>
      <point x="643.6666666666666" y="100.83333333333334"/>
      <point x="643.6666666666666" y="161.45238095238096" type="curve" smooth="yes"/>
      <point x="643.6666666666666" y="300.88095238095235" type="line" smooth="yes"/>
      <point x="643.6666666666666" y="476.64285714285717"/>
      <point x="541.8333333333334" y="576.0238095238095"/>
      <point x="347.23809523809524" y="576.0238095238095" type="curve" smooth="yes"/>
      <point x="143.64285714285714" y="576.0238095238095"/>
      <point x="42.45238095238095" y="446.09523809523813"/>
      <point x="42.45238095238095" y="259.7380952380952" type="curve" smooth="yes"/>
      <point x="42.45238095238095" y="103.11904761904762"/>
      <point x="118.09523809523807" y="-5.0"/>
    </contour>
  </outline>
</glyph>
<glyph name="lla-tamil" format="2">
  <advance width="1098.5238095238094"/>
  <unicode hex="0BB3"/>
  <note>
uni0BB3
</note>
  <anchor x="548.2619047619047" y="0.0" name="bottom"/>
  <anchor x="971.4047619047618" y="571.0238095238095" name="imatra"/>
  <anchor x="550.7142857142858" y="0.0" name="nukta"/>
  <anchor x="568.5952380952381" y="571.0238095238095" name="top"/>
  <anchor x="564.8095238095239" y="571.0238095238095" name="vedic"/>
  <outline>
    <contour>
      <point x="238.1190476190476" y="-5.0" type="curve" smooth="yes"/>
      <point x="341.40476190476187" y="-5.0"/>
      <point x="411.33333333333326" y="61.095238095238095"/>
      <point x="411.33333333333326" y="170.02380952380952" type="curve" smooth="yes"/>
      <point x="411.33333333333326" y="262.0238095238095"/>
      <point x="359.7857142857143" y="333.4047619047619"/>
      <point x="269.40476190476187" y="333.4047619047619" type="curve" smooth="yes"/>
      <point x="166.57142857142856" y="333.4047619047619"/>
      <point x="112.92857142857142" y="235.11904761904762"/>
      <point x="109.38095238095237" y="117.0" type="curve"/>
      <point x="149.11904761904762" y="90.45238095238095" type="line"/>
      <point x="152.21428571428572" y="176.73809523809527"/>
      <point x="174.47619047619045" y="235.0"/>
      <point x="216.83333333333337" y="235.0" type="curve" smooth="yes"/>
      <point x="248.0" y="235.0"/>
      <point x="267.0" y="201.83333333333331"/>
      <point x="267.0" y="156.83333333333334" type="curve" smooth="yes"/>
      <point x="267.0" y="102.83333333333334"/>
      <point x="249.0" y="70.66666666666666"/>
      <point x="208.28571428571428" y="70.66666666666666" type="curve" smooth="yes"/>
      <point x="156.47619047619048" y="70.66666666666666"/>
      <point x="110.83333333333333" y="142.3095238095238"/>
      <point x="110.83333333333333" y="258.2857142857143" type="curve" smooth="yes"/>
      <point x="110.83333333333333" y="415.0"/>
      <point x="199.30952380952382" y="501.9047619047619"/>
      <point x="316.6666666666667" y="501.9047619047619" type="curve" smooth="yes"/>
      <point x="442.23809523809524" y="501.9047619047619"/>
      <point x="520.1428571428571" y="420.07142857142856"/>
      <point x="520.1428571428571" y="285.19047619047615" type="curve"/>
      <point x="585.4285714285714" y="298.4761904761905" type="line"/>
      <point x="573.8809523809525" y="495.47619047619054"/>
      <point x="446.2142857142857" y="576.0238095238095"/>
      <point x="314.2142857142857" y="576.0238095238095" type="curve" smooth="yes"/>
      <point x="149.28571428571428" y="576.0238095238095"/>
      <point x="42.45238095238095" y="448.8095238095238"/>
      <point x="42.45238095238095" y="259.73809523809524" type="curve" smooth="yes"/>
      <point x="42.45238095238095" y="103.11904761904762"/>
      <point x="118.0952380952381" y="-5.0"/>
    </contour>
    <contour>
      <point x="520.5952380952381" y="0.0" type="line"/>
      <point x="682.2142857142857" y="0.0" type="line"/>
      <point x="682.2142857142857" y="507.1904761904762" type="line"/>
      <point x="822.0238095238095" y="507.1904761904762" type="line"/>
      <point x="822.0238095238095" y="0.0" type="line"/>
      <point x="983.6428571428571" y="0.0" type="line"/>
      <point x="983.6428571428571" y="507.1904761904762" type="line"/>
      <point x="1082.1666666666665" y="507.1904761904762" type="line"/>
      <point x="1082.1666666666665" y="571.0238095238095" type="line"/>
      <point x="560.0714285714287" y="571.0238095238095" type="line"/>
      <point x="560.0714285714287" y="344.76190476190476" type="line"/>
      <point x="520.5952380952381" y="359.3333333333333" type="line"/>
    </contour>
  </outline>
</glyph>
<glyph name="sha-tamil" format="2">
  <advance width="949.1904761904763"/>
  <unicode hex="0BB6"/>
  <note>
uni0BB6
</note>
  <anchor x="471.30952380952385" y="0.0" name="bottom"/>
  <anchor x="757.1904761904761" y="571.0238095238095" name="imatra"/>
  <anchor x="471.30952380952385" y="0.0" name="nukta"/>
  <anchor x="471.30952380952385" y="571.0238095238095" name="top"/>
  <anchor x="479.9523809523809" y="571.0238095238095" name="vedic"/>
  <outline>
    <contour>
      <point x="241.83333333333331" y="-5.0" type="curve" smooth="yes"/>
      <point x="350.6666666666667" y="-5.0"/>
      <point x="433.95238095238096" y="40.0"/>
      <point x="433.95238095238096" y="194.28571428571428" type="curve" smooth="yes"/>
      <point x="433.95238095238096" y="507.1904761904762" type="line"/>
      <point x="538.1428571428571" y="507.1904761904762" type="line"/>
      <point x="538.1428571428571" y="168.66666666666666" type="line" smooth="yes"/>
      <point x="538.1428571428571" y="59.833333333333336"/>
      <point x="575.047619047619" y="-5.0"/>
      <point x="683.7142857142857" y="-5.0" type="curve" smooth="yes"/>
      <point x="824.547619047619" y="-5.0"/>
      <point x="903.7380952380952" y="123.54761904761907"/>
      <point x="903.7380952380952" y="338.4761904761904" type="curve" smooth="yes"/>
      <point x="903.7380952380952" y="491.83333333333326"/>
      <point x="855.9047619047618" y="571.0238095238095"/>
      <point x="767.3571428571429" y="571.0238095238095" type="curve" smooth="yes"/>
      <point x="365.21428571428567" y="571.0238095238095" type="line"/>
      <point x="365.21428571428567" y="194.28571428571428" type="line" smooth="yes"/>
      <point x="365.21428571428567" y="102.40476190476191"/>
      <point x="334.95238095238096" y="74.11904761904762"/>
      <point x="287.95238095238096" y="74.11904761904762" type="curve" smooth="yes"/>
      <point x="238.40476190476193" y="74.11904761904762"/>
      <point x="217.69047619047618" y="107.85714285714286"/>
      <point x="217.69047619047618" y="179.19047619047618" type="curve" smooth="yes"/>
      <point x="217.69047619047618" y="571.0238095238095" type="line"/>
      <point x="55.61904761904762" y="571.0238095238095" type="line"/>
      <point x="55.61904761904762" y="189.02380952380952" type="line" smooth="yes"/>
      <point x="55.61904761904762" y="50.73809523809524"/>
      <point x="124.80952380952382" y="-5.0"/>
    </contour>
    <contour>
      <point x="741.3809523809523" y="82.85714285714286" type="curve" smooth="yes"/>
      <point x="708.4761904761905" y="82.85714285714286"/>
      <point x="700.7619047619047" y="107.40476190476191"/>
      <point x="700.7619047619047" y="160.3809523809524" type="curve" smooth="yes"/>
      <point x="700.7619047619047" y="507.73809523809524" type="line"/>
      <point x="761.452380952381" y="507.73809523809524" type="line" smooth="yes"/>
      <point x="816.7142857142859" y="507.73809523809524"/>
      <point x="834.3571428571428" y="448.57142857142856"/>
      <point x="834.3571428571428" y="336.8333333333333" type="curve" smooth="yes"/>
      <point x="834.3571428571428" y="159.4761904761905"/>
      <point x="783.0" y="82.85714285714286"/>
    </contour>
  </outline>
</glyph>
<glyph name="ssa-tamil" format="2">
  <advance width="1314.5"/>
  <unicode hex="0BB7"/>
  <note>
uni0BB7
</note>
  <anchor x="660.6428571428571" y="0.0" name="bottom"/>
  <anchor x="530.047619047619" y="0.0" name="nukta"/>
  <anchor x="680.9285714285713" y="571.0238095238095" name="top"/>
  <anchor x="662.4523809523811" y="571.0238095238095" name="vedic"/>
  <outline>
    <contour>
      <point x="238.11904761904762" y="-5.0" type="curve" smooth="yes"/>
      <point x="341.40476190476187" y="-5.0"/>
      <point x="411.33333333333326" y="61.095238095238095"/>
      <point x="411.33333333333326" y="170.02380952380952" type="curve" smooth="yes"/>
      <point x="411.33333333333326" y="262.0238095238095"/>
      <point x="359.7857142857143" y="333.4047619047619"/>
      <point x="269.40476190476187" y="333.4047619047619" type="curve" smooth="yes"/>
      <point x="166.57142857142858" y="333.4047619047619"/>
      <point x="112.92857142857142" y="235.11904761904762"/>
      <point x="109.38095238095238" y="117.0" type="curve"/>
      <point x="149.11904761904765" y="90.45238095238095" type="line"/>
      <point x="152.21428571428572" y="176.73809523809527"/>
      <point x="174.47619047619048" y="235.0"/>
      <point x="216.83333333333337" y="235.0" type="curve" smooth="yes"/>
      <point x="247.99999999999997" y="235.0"/>
      <point x="267.0" y="201.83333333333331"/>
      <point x="267.0" y="156.83333333333334" type="curve" smooth="yes"/>
      <point x="267.0" y="102.83333333333334"/>
      <point x="249.0" y="70.66666666666666"/>
      <point x="208.28571428571433" y="70.66666666666666" type="curve" smooth="yes"/>
      <point x="156.47619047619048" y="70.66666666666666"/>
      <point x="110.83333333333333" y="142.30952380952382"/>
      <point x="110.83333333333333" y="258.2857142857143" type="curve" smooth="yes"/>
      <point x="110.83333333333333" y="414.09523809523813"/>
      <point x="193.02380952380952" y="504.00000000000006"/>
      <point x="304.3809523809524" y="504.00000000000006" type="curve" smooth="yes"/>
      <point x="433.11904761904776" y="504.00000000000006"/>
      <point x="503.57142857142856" y="411.2857142857143"/>
      <point x="503.57142857142856" y="261.09523809523813" type="curve" smooth="yes"/>
      <point x="503.57142857142856" y="170.11904761904762"/>
      <point x="485.3095238095238" y="101.92857142857144"/>
      <point x="460.95238095238096" y="46.19047619047619" type="curve"/>
      <point x="482.5952380952381" y="0.0" type="line"/>
      <point x="1266.595238095238" y="0.0" type="line"/>
      <point x="1266.595238095238" y="337.0238095238095" type="line"/>
      <point x="1107.5238095238094" y="287.0238095238096" type="line"/>
      <point x="1107.5238095238094" y="64.28571428571429" type="line"/>
      <point x="567.1666666666666" y="64.28571428571429" type="line"/>
      <point x="620.547619047619" y="123.1190476190476"/>
      <point x="660.0952380952381" y="191.21428571428572"/>
      <point x="660.0952380952381" y="285.11904761904765" type="curve" smooth="yes"/>
      <point x="660.0952380952381" y="481.6904761904762"/>
      <point x="522.4285714285716" y="576.0238095238095"/>
      <point x="350.04761904761904" y="576.0238095238095" type="curve" smooth="yes"/>
      <point x="151.64285714285714" y="576.0238095238095"/>
      <point x="42.45238095238095" y="445.6428571428571"/>
      <point x="42.45238095238095" y="259.7380952380952" type="curve" smooth="yes"/>
      <point x="42.45238095238095" y="103.11904761904762"/>
      <point x="118.09523809523807" y="-5.0"/>
    </contour>
    <contour>
      <point x="866.1904761904761" y="-270.47619047619054" type="line"/>
      <point x="1022.7142857142858" y="-270.47619047619054" type="line"/>
      <point x="1022.7142857142858" y="416.42857142857144" type="line" smooth="yes"/>
      <point x="1022.7142857142858" y="520.6428571428571"/>
      <point x="967.4285714285714" y="576.5714285714286"/>
      <point x="871.2142857142857" y="576.5714285714286" type="curve" smooth="yes"/>
      <point x="770.6428571428571" y="576.5714285714286"/>
      <point x="718.0" y="504.0"/>
      <point x="718.0" y="413.45238095238096" type="curve" smooth="yes"/>
      <point x="718.0" y="286.64285714285717"/>
      <point x="793.095238095238" y="205.61904761904762"/>
      <point x="933.4047619047618" y="205.61904761904762" type="curve" smooth="yes"/>
      <point x="1061.2619047619048" y="205.61904761904762"/>
      <point x="1154.8333333333333" y="247.90476190476187"/>
      <point x="1266.595238095238" y="330.4761904761905" type="curve"/>
      <point x="1266.595238095238" y="342.0238095238095" type="line"/>
      <point x="1231.4047619047622" y="385.40476190476187" type="line"/>
      <point x="1128.0" y="309.2857142857143"/>
      <point x="1036.9761904761906" y="267.9047619047619"/>
      <point x="928.6666666666666" y="267.9047619047619" type="curve" smooth="yes"/>
      <point x="830.8333333333335" y="267.9047619047619"/>
      <point x="781.2857142857142" y="316.2857142857143"/>
      <point x="781.2857142857142" y="415.5476190476191" type="curve" smooth="yes"/>
      <point x="781.2857142857142" y="457.26190476190476"/>
      <point x="800.9285714285714" y="480.42857142857144"/>
      <point x="824.1904761904761" y="480.42857142857144" type="curve" smooth="yes"/>
      <point x="850.1904761904761" y="480.42857142857144"/>
      <point x="866.1904761904761" y="463.9761904761904"/>
      <point x="866.1904761904761" y="425.4285714285714" type="curve" smooth="yes"/>
    </contour>
  </outline>
</glyph>
<glyph name="sa-tamil" format="2">
  <advance width="1194.142857142857"/>
  <unicode hex="0BB8"/>
  <note>
uni0BB8
</note>
  <anchor x="627.6428571428572" y="0.0" name="bottom"/>
  <anchor x="623.547619047619" y="0.0" name="nukta"/>
  <anchor x="618.7380952380953" y="571.0238095238095" name="top"/>
  <anchor x="623.0952380952381" y="571.0238095238095" name="vedic"/>
  <outline>
    <contour>
      <point x="495.76190476190476" y="0.0" type="line"/>
      <point x="655.8333333333333" y="0.0" type="line"/>
      <point x="655.8333333333333" y="432.92857142857144" type="line" smooth="yes"/>
      <point x="655.8333333333333" y="488.0238095238095"/>
      <point x="678.2857142857142" y="507.6428571428571"/>
      <point x="711.0" y="507.6428571428571" type="curve" smooth="yes"/>
      <point x="742.8095238095237" y="507.6428571428571"/>
      <point x="764.8095238095237" y="486.3809523809524"/>
      <point x="764.8095238095237" y="441.38095238095235" type="curve" smooth="yes"/>
      <point x="764.8095238095237" y="170.1904761904762" type="line" smooth="yes"/>
      <point x="764.8095238095237" y="59.833333333333336"/>
      <point x="810.1666666666667" y="-3.642857142857143"/>
      <point x="926.9285714285716" y="-3.642857142857143" type="curve" smooth="yes"/>
      <point x="1054.7619047619046" y="-3.642857142857143"/>
      <point x="1147.595238095238" y="100.71428571428571"/>
      <point x="1147.595238095238" y="298.5714285714286" type="curve" smooth="yes"/>
      <point x="1147.595238095238" y="402.9285714285714"/>
      <point x="1117.952380952381" y="482.5714285714286"/>
      <point x="1061.952380952381" y="576.0238095238095" type="curve"/>
      <point x="1002.6666666666666" y="542.2857142857142" type="line"/>
      <point x="1051.214285714286" y="459.73809523809524"/>
      <point x="1079.3095238095239" y="385.38095238095235"/>
      <point x="1079.3095238095239" y="293.64285714285717" type="curve" smooth="yes"/>
      <point x="1079.3095238095239" y="151.0952380952381"/>
      <point x="1023.1190476190477" y="77.57142857142857"/>
      <point x="972.0476190476189" y="77.57142857142857" type="curve" smooth="yes"/>
      <point x="940.7857142857143" y="77.57142857142857"/>
      <point x="927.4285714285716" y="100.83333333333333"/>
      <point x="927.4285714285716" y="161.45238095238093" type="curve" smooth="yes"/>
      <point x="927.4285714285716" y="395.5238095238095" type="line" smooth="yes"/>
      <point x="927.4285714285716" y="516.1904761904763"/>
      <point x="836.6666666666667" y="575.0238095238095"/>
      <point x="721.9047619047619" y="575.0238095238095" type="curve" smooth="yes"/>
      <point x="615.4285714285714" y="575.0238095238095"/>
      <point x="530.2142857142857" y="521.2142857142857"/>
      <point x="530.2142857142857" y="425.0" type="curve" smooth="yes"/>
      <point x="530.2142857142857" y="351.1904761904762" type="line"/>
      <point x="495.76190476190476" y="351.1904761904762" type="line"/>
    </contour>
    <contour>
      <point x="237.57142857142858" y="-5.0" type="curve" smooth="yes"/>
      <point x="339.85714285714283" y="-5.0"/>
      <point x="410.2380952380952" y="61.095238095238095"/>
      <point x="410.2380952380952" y="170.02380952380952" type="curve" smooth="yes"/>
      <point x="410.2380952380952" y="262.0238095238095"/>
      <point x="359.23809523809524" y="333.4047619047619"/>
      <point x="267.85714285714283" y="333.4047619047619" type="curve" smooth="yes"/>
      <point x="165.47619047619045" y="333.4047619047619"/>
      <point x="111.83333333333333" y="235.11904761904762"/>
      <point x="108.28571428571428" y="117.0" type="curve"/>
      <point x="148.02380952380952" y="90.45238095238095" type="line"/>
      <point x="151.11904761904762" y="176.73809523809527"/>
      <point x="173.92857142857142" y="235.0"/>
      <point x="215.73809523809527" y="235.0" type="curve" smooth="yes"/>
      <point x="246.9047619047619" y="235.0"/>
      <point x="266.45238095238096" y="201.83333333333331"/>
      <point x="266.45238095238096" y="156.83333333333334" type="curve" smooth="yes"/>
      <point x="266.45238095238096" y="102.83333333333334"/>
      <point x="247.45238095238096" y="70.66666666666666"/>
      <point x="207.1904761904762" y="70.66666666666666" type="curve" smooth="yes"/>
      <point x="155.3809523809524" y="70.66666666666666"/>
      <point x="109.73809523809523" y="142.30952380952382"/>
      <point x="109.73809523809523" y="258.28571428571433" type="curve" smooth="yes"/>
      <point x="109.73809523809523" y="411.8333333333333"/>
      <point x="190.02380952380955" y="501.90476190476187"/>
      <point x="310.38095238095235" y="501.90476190476187" type="curve" smooth="yes"/>
      <point x="433.69047619047615" y="501.90476190476187"/>
      <point x="496.2142857142857" y="423.69047619047615"/>
      <point x="496.2142857142857" y="290.61904761904765" type="curve"/>
      <point x="563.0476190476189" y="303.9047619047619" type="line"/>
      <point x="553.9523809523808" y="496.3809523809524"/>
      <point x="432.92857142857144" y="576.0238095238095"/>
      <point x="308.73809523809524" y="576.0238095238095" type="curve" smooth="yes"/>
      <point x="139.9047619047619" y="576.0238095238095"/>
      <point x="41.904761904761905" y="445.1904761904762"/>
      <point x="41.904761904761905" y="259.73809523809524" type="curve" smooth="yes"/>
      <point x="41.904761904761905" y="103.11904761904762"/>
      <point x="117.54761904761905" y="-5.0"/>
    </contour>
  </outline>
</glyph>
<glyph name="ha-tamil" format="2">
  <advance width="1456.7619047619048"/>
  <unicode hex="0BB9"/>
  <note>
uni0BB9
</note>
  <anchor x="734.547619047619" y="0.0" name="bottom"/>
  <anchor x="737.0952380952381" y="-127.23809523809523" name="nukta"/>
  <anchor x="755.1190476190477" y="571.0238095238095" name="top"/>
  <anchor x="748.8571428571428" y="571.0238095238095" name="vedic"/>
  <outline>
    <contour>
      <point x="218.952380952381" y="-289.52380952380946" type="curve"/>
      <point x="218.952380952381" y="-201.4047619047619"/>
      <point x="234.95238095238096" y="-137.64285714285714"/>
      <point x="340.61904761904765" y="-137.64285714285714" type="curve" smooth="yes"/>
      <point x="985.6190476190476" y="-137.64285714285714" type="line" smooth="yes"/>
      <point x="1252.7142857142858" y="-137.64285714285714"/>
      <point x="1424.142857142857" y="-21.19047619047619"/>
      <point x="1424.142857142857" y="247.547619047619" type="curve" smooth="yes"/>
      <point x="1424.142857142857" y="467.6904761904762"/>
      <point x="1331.0238095238096" y="576.5714285714286"/>
      <point x="1178.904761904762" y="576.5714285714286" type="curve" smooth="yes"/>
      <point x="1096.7142857142856" y="576.5714285714286"/>
      <point x="1036.6904761904761" y="541.6666666666666"/>
      <point x="1014.047619047619" y="475.8095238095238" type="curve"/>
      <point x="994.9523809523808" y="541.2142857142857"/>
      <point x="947.5714285714287" y="576.0238095238095"/>
      <point x="877.4761904761904" y="576.0238095238095" type="curve" smooth="yes"/>
      <point x="796.0952380952381" y="576.0238095238095"/>
      <point x="741.0000000000001" y="521.2857142857143"/>
      <point x="741.0000000000001" y="426.1904761904762" type="curve" smooth="yes"/>
      <point x="741.0000000000001" y="64.28571428571429" type="line"/>
      <point x="567.1666666666666" y="64.28571428571429" type="line"/>
      <point x="620.547619047619" y="123.1190476190476"/>
      <point x="660.0952380952381" y="191.21428571428572"/>
      <point x="660.0952380952381" y="285.11904761904765" type="curve" smooth="yes"/>
      <point x="660.0952380952381" y="481.6904761904762"/>
      <point x="522.4285714285716" y="576.0238095238095"/>
      <point x="350.04761904761904" y="576.0238095238095" type="curve" smooth="yes"/>
      <point x="152.09523809523807" y="576.0238095238095"/>
      <point x="42.45238095238095" y="445.6428571428571"/>
      <point x="42.45238095238095" y="259.7380952380952" type="curve" smooth="yes"/>
      <point x="42.45238095238095" y="103.11904761904762"/>
      <point x="118.09523809523807" y="-5.0"/>
      <point x="238.11904761904762" y="-5.0" type="curve" smooth="yes"/>
      <point x="341.40476190476187" y="-5.0"/>
      <point x="411.33333333333326" y="61.095238095238095"/>
      <point x="411.33333333333326" y="170.02380952380952" type="curve" smooth="yes"/>
      <point x="411.33333333333326" y="262.0238095238095"/>
      <point x="359.7857142857143" y="333.4047619047619"/>
      <point x="269.40476190476187" y="333.4047619047619" type="curve" smooth="yes"/>
      <point x="166.57142857142858" y="333.4047619047619"/>
      <point x="112.92857142857144" y="235.11904761904762"/>
      <point x="109.38095238095238" y="117.00000000000001" type="curve"/>
      <point x="149.11904761904765" y="90.45238095238095" type="line"/>
      <point x="152.2142857142857" y="176.73809523809527"/>
      <point x="174.47619047619048" y="235.0"/>
      <point x="216.83333333333337" y="235.0" type="curve" smooth="yes"/>
      <point x="247.99999999999997" y="235.0"/>
      <point x="267.0" y="201.83333333333331"/>
      <point x="267.0" y="156.83333333333334" type="curve" smooth="yes"/>
      <point x="267.0" y="102.83333333333334"/>
      <point x="249.0" y="70.66666666666666"/>
      <point x="208.28571428571433" y="70.66666666666666" type="curve" smooth="yes"/>
      <point x="156.47619047619048" y="70.66666666666666"/>
      <point x="110.83333333333333" y="142.30952380952382"/>
      <point x="110.83333333333333" y="258.2857142857143" type="curve" smooth="yes"/>
      <point x="110.83333333333333" y="414.09523809523813"/>
      <point x="193.47619047619048" y="504.00000000000006"/>
      <point x="304.3809523809524" y="504.00000000000006" type="curve" smooth="yes"/>
      <point x="433.11904761904776" y="504.00000000000006"/>
      <point x="503.57142857142856" y="411.2857142857143"/>
      <point x="503.57142857142856" y="261.09523809523813" type="curve" smooth="yes"/>
      <point x="503.57142857142856" y="170.11904761904762"/>
      <point x="485.3095238095238" y="101.92857142857144"/>
      <point x="460.95238095238096" y="46.19047619047619" type="curve"/>
      <point x="482.5952380952381" y="0.0" type="line"/>
      <point x="810.2857142857144" y="0.0" type="line"/>
      <point x="810.2857142857144" y="419.0" type="line" smooth="yes"/>
      <point x="810.2857142857144" y="478.54761904761904"/>
      <point x="829.2857142857142" y="505.0"/>
      <point x="867.7380952380952" y="505.0" type="curve" smooth="yes"/>
      <point x="911.2857142857144" y="505.0"/>
      <point x="928.6428571428571" y="473.547619047619"/>
      <point x="928.6428571428571" y="416.6428571428571" type="curve" smooth="yes"/>
      <point x="928.6428571428571" y="0.0" type="line"/>
      <point x="1095.9047619047617" y="0.0" type="line"/>
      <point x="1095.9047619047617" y="406.9047619047619" type="line" smooth="yes"/>
      <point x="1095.9047619047617" y="474.73809523809524"/>
      <point x="1117.1666666666665" y="505.54761904761904"/>
      <point x="1162.2619047619048" y="505.54761904761904" type="curve" smooth="yes"/>
      <point x="1224.1666666666665" y="505.54761904761904"/>
      <point x="1253.4285714285713" y="442.1904761904762"/>
      <point x="1253.4285714285713" y="262.8333333333333" type="curve" smooth="yes"/>
      <point x="1253.4285714285713" y="25.642857142857146"/>
      <point x="1192.2619047619048" y="-80.54761904761905"/>
      <point x="941.6666666666667" y="-80.54761904761905" type="curve" smooth="yes"/>
      <point x="287.23809523809524" y="-80.54761904761905" type="line" smooth="yes"/>
      <point x="184.47619047619048" y="-80.54761904761905"/>
      <point x="96.45238095238095" y="-101.64285714285712"/>
      <point x="96.45238095238095" y="-195.30952380952382" type="curve" smooth="yes"/>
      <point x="96.45238095238095" y="-259.23809523809524"/>
      <point x="145.28571428571428" y="-289.52380952380946"/>
    </contour>
  </outline>
</glyph>
<glyph name="aaMatra-tamil" format="2">
  <advance width="538.6666666666667"/>
  <unicode hex="0BBE"/>
  <note>
uni0BBE
</note>
  <anchor x="280.4761904761904" y="0.0" name="bottom"/>
  <anchor x="279.4761904761904" y="0.0" name="nukta"/>
  <anchor x="273.4761904761904" y="571.0238095238095" name="top"/>
  <anchor x="273.4761904761904" y="571.0238095238095" name="vedic"/>
  <outline>
    <contour>
      <point x="60.16666666666667" y="0.0" type="line"/>
      <point x="129.45238095238096" y="0.0" type="line"/>
      <point x="129.45238095238096" y="507.1904761904762" type="line"/>
      <point x="261.1666666666667" y="507.1904761904762" type="line"/>
      <point x="261.1666666666667" y="0.0" type="line"/>
      <point x="423.23809523809524" y="0.0" type="line"/>
      <point x="423.23809523809524" y="507.1904761904762" type="line"/>
      <point x="522.3095238095239" y="507.1904761904762" type="line"/>
      <point x="522.3095238095239" y="571.0238095238095" type="line"/>
      <point x="60.16666666666667" y="571.0238095238095" type="line"/>
    </contour>
  </outline>
</glyph>
<glyph name="iMatra-tamil" format="2">
  <advance width="198.3571428571429"/>
  <unicode hex="0BBF"/>
  <note>
uni0BBF
</note>
  <anchor x="-124.59523809523807" y="839.2142857142858" name="top"/>
  <outline>
    <contour>
      <point x="68.26190476190476" y="0.0" type="line"/>
      <point x="138.09523809523813" y="0.0" type="line"/>
      <point x="138.09523809523813" y="563.9047619047619" type="line" smooth="yes"/>
      <point x="138.09523809523813" y="758.7619047619047"/>
      <point x="16.785714285714292" y="839.2142857142858"/>
      <point x="-124.59523809523807" y="839.2142857142858" type="curve" smooth="yes"/>
      <point x="-249.0714285714286" y="839.2142857142858"/>
      <point x="-324.80952380952385" y="767.3095238095237"/>
      <point x="-324.80952380952385" y="662.5714285714287" type="curve" smooth="yes"/>
      <point x="-324.80952380952385" y="566.3809523809524"/>
      <point x="-260.8809523809524" y="511.3809523809524"/>
      <point x="-146.66666666666663" y="511.3809523809524" type="curve" smooth="yes"/>
      <point x="-144.76190476190476" y="511.3809523809524" type="line"/>
      <point x="-144.76190476190476" y="571.0238095238095" type="line"/>
      <point x="-146.66666666666663" y="571.0238095238095" type="line" smooth="yes"/>
      <point x="-194.85714285714283" y="571.0238095238095"/>
      <point x="-233.59523809523807" y="588.2857142857142"/>
      <point x="-233.59523809523807" y="633.6428571428572" type="curve" smooth="yes"/>
      <point x="-233.59523809523807" y="677.0714285714286"/>
      <point x="-196.23809523809524" y="709.9761904761905"/>
      <point x="-118.40476190476193" y="709.9761904761905" type="curve" smooth="yes"/>
      <point x="-25.404761904761898" y="709.9761904761905"/>
      <point x="68.26190476190476" y="661.0714285714286"/>
      <point x="68.26190476190476" y="525.1666666666666" type="curve" smooth="yes"/>
    </contour>
  </outline>
</glyph>
<glyph name="iiMatra-tamil" format="2">
  <unicode hex="0BC0"/>
  <note>
uni0BC0
</note>
  <anchor x="0.0" y="571.0238095238095" name="_imatra"/>
  <anchor x="-2.5476190476190466" y="918.5952380952381" name="top"/>
  <outline>
    <contour>
      <point x="-28.09523809523809" y="508.09523809523813" type="curve" smooth="yes"/>
      <point x="-0.5476190476190478" y="508.09523809523813" type="line"/>
      <point x="-0.5476190476190478" y="571.0238095238095" type="line"/>
      <point x="-24.095238095238095" y="571.0238095238095" type="line" smooth="yes"/>
      <point x="-87.0952380952381" y="571.0238095238095"/>
      <point x="-136.92857142857142" y="615.8333333333333"/>
      <point x="-136.92857142857142" y="702.5714285714286" type="curve" smooth="yes"/>
      <point x="-136.92857142857142" y="791.1190476190475"/>
      <point x="-93.64285714285715" y="851.2142857142857"/>
      <point x="-20.28571428571429" y="851.2142857142857" type="curve" smooth="yes"/>
      <point x="34.166666666666664" y="851.2142857142857"/>
      <point x="59.52380952380952" y="811.5714285714284"/>
      <point x="59.52380952380952" y="757.3095238095237" type="curve" smooth="yes"/>
      <point x="59.52380952380952" y="718.595238095238"/>
      <point x="41.61904761904762" y="693.1428571428571"/>
      <point x="13.166666666666663" y="693.1428571428571" type="curve" smooth="yes"/>
      <point x="-37.547619047619044" y="693.1428571428571"/>
      <point x="-49.642857142857146" y="785.4047619047619"/>
      <point x="-15.190476190476192" y="873.6666666666666" type="curve"/>
      <point x="-60.738095238095234" y="878.2142857142857" type="line"/>
      <point x="-117.28571428571428" y="754.2142857142857"/>
      <point x="-85.83333333333333" y="609.7380952380953"/>
      <point x="47.73809523809524" y="609.7380952380953" type="curve" smooth="yes"/>
      <point x="123.73809523809526" y="609.7380952380953"/>
      <point x="182.11904761904762" y="662.0"/>
      <point x="182.11904761904762" y="749.6666666666667" type="curve" smooth="yes"/>
      <point x="182.11904761904762" y="849.2142857142857"/>
      <point x="111.83333333333334" y="918.5952380952381"/>
      <point x="-2.5476190476190466" y="918.5952380952381" type="curve" smooth="yes"/>
      <point x="-127.92857142857144" y="918.5952380952381"/>
      <point x="-202.66666666666666" y="823.1190476190476"/>
      <point x="-202.66666666666666" y="706.1190476190476" type="curve" smooth="yes"/>
      <point x="-202.66666666666666" y="582.1904761904763"/>
      <point x="-138.02380952380952" y="508.09523809523813"/>
    </contour>
  </outline>
</glyph>
